<svg width="1080" height="1080" viewBox="0 0 1080 1080" fill="none" xmlns="http://www.w3.org/2000/svg">
<rect width="1080" height="1080" fill="white"/>
<path d="M562.951 554.388L533.937 577.855C530.649 577.66 523.296 577.469 520.187 578.27C516.302 579.271 513.578 577.193 510.646 573.568C507.715 569.944 499.65 561.907 495.989 555.447C492.329 548.986 489.191 543.816 487.733 538.144C486.275 532.471 486.939 515.233 488.42 509.324C489.901 503.416 508.604 493 515.227 487.643C521.849 482.286 529.397 486.459 532.44 486.996C535.483 487.533 545.864 491.983 548.795 495.607C551.727 499.232 561.046 510.108 561.777 511.658C562.362 512.897 566.891 525.936 569.082 532.3L562.951 554.388Z" fill="#F0E9DF"/>
<mask id="path-2-outside-1_101_13" maskUnits="userSpaceOnUse" x="462" y="463.994" width="166" height="159" fill="black">
<rect fill="white" x="462" y="463.994" width="166" height="159"/>
<path fill-rule="evenodd" clip-rule="evenodd" d="M486.443 566.708C489.555 572.65 492.915 578.337 500.936 578.775C500.8 579.369 500.666 579.923 500.538 580.451L500.538 580.451L500.538 580.451C500.273 581.545 500.035 582.527 499.868 583.514C498.843 589.505 503.921 595.362 509.092 593.693C512.175 592.695 513.901 593.912 516.023 595.454C516.519 595.813 517.013 596.175 517.509 596.537C520.522 598.74 523.553 600.955 526.803 602.754C534.01 606.75 541.515 607.507 549.013 603.369C551.517 601.989 554.043 600.643 556.57 599.297C562.979 595.882 569.391 592.466 575.438 588.494C586.904 580.968 597.344 572.098 604.693 560.222C605.327 559.199 606.025 558.174 606.727 557.144L606.727 557.144L606.727 557.144C608.879 553.988 611.067 550.778 611.547 547.37C612.431 541.132 609.955 534.9 605.846 529.687C604.905 528.492 603.922 527.127 603.597 525.691C602.133 519.276 600.683 513.03 591.99 513.525C591.48 513.553 590.787 512.938 590.405 512.443C589.25 510.957 588.144 509.426 587.039 507.895L587.039 507.895L587.039 507.895L587.038 507.895C584.833 504.842 582.629 501.791 580.043 499.11C571.428 490.176 561.525 483.549 548.857 481.073C538.035 478.958 528.034 479.729 518.591 485.374C517.843 485.821 517.092 486.267 516.341 486.713C511.021 489.873 505.668 493.052 500.858 496.889C478.005 515.116 472.849 540.771 486.443 566.708ZM494.676 568.243C488.77 559.197 485.488 549.209 485.502 538.274C485.269 526.667 489.874 516.941 497.527 508.588C506.184 499.131 516.816 492.525 528.663 487.736C536.868 484.416 544.808 486.633 552.629 488.817L552.811 488.868C566.583 492.702 575.764 502.547 583.969 513.575C585.157 515.173 585.206 516.284 584.386 517.967C570.176 547.066 548.355 566.51 515.599 571.829C510.782 572.608 505.732 572.636 500.872 572.162C498.659 571.95 495.921 570.146 494.676 568.243ZM544.861 598.297C538.672 600.992 530.806 599.252 525.834 594.329C541.515 591.111 552.365 581.067 562.204 569.559C563.428 568.13 564.779 566.807 566.137 565.499C567.679 564.014 569.037 562.861 570.869 565.534C572.333 567.67 574.427 566.475 576.223 565.428C586.975 559.176 594.295 549.796 600.251 539.165C600.481 538.755 600.697 538.336 600.912 537.917L600.913 537.917L600.913 537.916L600.913 537.916L600.913 537.915L600.913 537.915L600.914 537.915C601.129 537.496 601.344 537.078 601.574 536.669C601.643 536.552 601.748 536.46 601.929 536.301C602.045 536.199 602.192 536.07 602.38 535.891L602.459 536.058L602.459 536.058C604.176 539.691 605.729 542.979 604.113 547.172C601.185 554.783 596.92 561.46 591.254 567.26C577.963 580.848 562.19 590.764 544.861 598.297ZM583.466 543.148C579.774 552.046 571.562 556.481 562.211 559.183C564.177 556.792 566.118 554.469 568.029 552.182L568.031 552.179L568.035 552.175L568.036 552.173L568.04 552.168L568.041 552.167L568.041 552.167C572.611 546.698 577.007 541.437 581.139 535.968C584.308 531.774 586.762 526.992 589.16 522.282C590.561 519.523 592.548 519.318 594.628 520.499C597.181 521.949 595.477 524.213 594.246 525.16C589.056 529.163 586.867 534.655 584.588 540.372C584.221 541.293 583.851 542.22 583.466 543.148ZM542.753 570.737C542.829 570.838 542.905 570.938 542.979 571.037C542.797 571.248 542.623 571.468 542.449 571.688C542.063 572.177 541.677 572.665 541.204 573.046C540.577 573.542 539.953 574.041 539.328 574.54C536.573 576.739 533.814 578.942 530.891 580.89C529.561 581.774 527.496 582.22 525.926 581.951C520.069 580.954 514.998 582.298 510.407 586.011C509.983 586.353 509.788 585.911 509.568 585.413C509.338 584.889 509.08 584.304 508.5 584.5C508.407 583.776 507.842 583.725 507.349 583.681C506.868 583.638 506.455 583.601 506.609 582.956C507.09 580.947 507.917 579.002 510.669 578.79C521.335 577.955 531.464 574.984 541.246 570.74C541.514 570.621 541.81 570.569 542.105 570.518L542.105 570.518L542.105 570.518L542.105 570.518L542.105 570.518L542.105 570.518C542.247 570.493 542.389 570.468 542.527 570.436C542.601 570.535 542.677 570.636 542.753 570.737ZM555.085 568.014C553.385 569.87 551.733 571.673 549.89 573.683C550.286 565.697 550.922 564.983 556.942 565.987L555.085 568.014ZM595.12 533.748L595.121 533.748C595.345 533.891 595.569 534.034 595.795 534.179C594.649 536.202 593.503 538.225 592.364 540.255C591.968 540.05 591.572 539.837 591.176 539.625C592.265 537.517 593.355 535.417 594.444 533.316C594.669 533.46 594.893 533.603 595.116 533.745L595.12 533.748ZM548.618 499.513C548.619 499.375 548.62 499.18 548.631 498.905C548.507 498.76 548.361 498.532 548.2 498.28C547.794 497.645 547.289 496.855 546.778 496.861C543.489 496.846 540.172 497.094 536.932 497.66C536.366 497.752 535.525 500.072 535.871 500.935C537.205 504.241 539.302 503.536 541.441 502.818C542.693 502.397 543.959 501.972 545.095 502.342C545.654 502.524 546.55 501.681 547.439 500.845C547.831 500.476 548.222 500.109 548.582 499.831C548.616 499.801 548.616 499.725 548.618 499.513V499.513ZM509.679 511.219C510.095 510.406 510.443 509.636 510.768 508.919C511.462 507.383 512.049 506.084 512.975 505.101C513.562 504.48 514.673 504.352 515.783 504.225C516.277 504.168 516.772 504.112 517.219 504.012C517.304 504.446 517.41 504.882 517.516 505.318L517.516 505.318L517.516 505.318L517.516 505.318L517.517 505.318L517.517 505.318L517.517 505.319C517.765 506.338 518.014 507.358 517.99 508.369C517.975 508.935 517.693 509.485 517.41 510.039C517.151 510.545 516.89 511.053 516.83 511.58C516.582 513.702 515.811 515.668 513.519 515.01C512.512 514.72 511.713 513.706 510.878 512.646C510.494 512.158 510.102 511.661 509.679 511.219ZM496.876 529.645C494.882 529.164 492.675 532.566 492.618 536.831C492.807 536.984 493.029 537.21 493.28 537.468C493.963 538.165 494.868 539.09 495.943 539.385C498.114 539.972 500.123 536.711 499.805 532.651C499.72 531.533 498.072 529.928 496.876 529.645ZM528.982 538.904C528.266 539.467 527.665 540.034 527.134 540.532C526.155 541.455 525.42 542.146 524.667 542.164C521.866 542.221 520.826 539.752 521.017 537.503C521.09 536.606 521.944 535.772 522.798 534.938C523.183 534.562 523.568 534.186 523.882 533.804C524.349 534.271 524.815 534.738 525.302 535.225L525.309 535.233L525.318 535.242C526.374 536.299 527.525 537.452 528.982 538.904ZM511.293 559.424L511.293 559.424C511.843 558.901 512.467 558.307 513.215 557.704C510.899 555.726 509.424 554.462 507.952 553.202L507.932 553.185C507.641 553.57 507.286 553.948 506.932 554.327C506.147 555.165 505.364 556.001 505.286 556.898C505.102 558.963 505.972 561.432 508.667 561.206C509.493 561.136 510.262 560.405 511.293 559.424ZM543.969 523.201C543.329 522.487 542.69 521.888 542.121 521.354C541.051 520.351 540.23 519.58 540.114 518.717C539.775 516.156 542.088 515.173 544.132 515.633C545.158 515.862 546.053 516.7 546.946 517.536L546.946 517.536C547.346 517.91 547.746 518.284 548.157 518.604C547.783 519.014 547.41 519.423 547.012 519.859L547.01 519.862C546.179 520.772 545.24 521.801 543.969 523.201ZM571.914 516.487C572.398 517.018 572.926 517.6 573.493 518.264C574.009 517.465 574.557 516.729 575.036 516.086C575.91 514.912 576.551 514.051 576.336 513.695C575.466 512.231 573.854 510.866 572.248 510.335C571.576 510.116 569.108 512.627 569.299 513.037C569.839 514.203 570.744 515.199 571.914 516.487Z"/>
</mask>
<path fill-rule="evenodd" clip-rule="evenodd" d="M486.443 566.708C489.555 572.65 492.915 578.337 500.936 578.775C500.8 579.369 500.666 579.923 500.538 580.451L500.538 580.451L500.538 580.451C500.273 581.545 500.035 582.527 499.868 583.514C498.843 589.505 503.921 595.362 509.092 593.693C512.175 592.695 513.901 593.912 516.023 595.454C516.519 595.813 517.013 596.175 517.509 596.537C520.522 598.74 523.553 600.955 526.803 602.754C534.01 606.75 541.515 607.507 549.013 603.369C551.517 601.989 554.043 600.643 556.57 599.297C562.979 595.882 569.391 592.466 575.438 588.494C586.904 580.968 597.344 572.098 604.693 560.222C605.327 559.199 606.025 558.174 606.727 557.144L606.727 557.144L606.727 557.144C608.879 553.988 611.067 550.778 611.547 547.37C612.431 541.132 609.955 534.9 605.846 529.687C604.905 528.492 603.922 527.127 603.597 525.691C602.133 519.276 600.683 513.03 591.99 513.525C591.48 513.553 590.787 512.938 590.405 512.443C589.25 510.957 588.144 509.426 587.039 507.895L587.039 507.895L587.039 507.895L587.038 507.895C584.833 504.842 582.629 501.791 580.043 499.11C571.428 490.176 561.525 483.549 548.857 481.073C538.035 478.958 528.034 479.729 518.591 485.374C517.843 485.821 517.092 486.267 516.341 486.713C511.021 489.873 505.668 493.052 500.858 496.889C478.005 515.116 472.849 540.771 486.443 566.708ZM494.676 568.243C488.77 559.197 485.488 549.209 485.502 538.274C485.269 526.667 489.874 516.941 497.527 508.588C506.184 499.131 516.816 492.525 528.663 487.736C536.868 484.416 544.808 486.633 552.629 488.817L552.811 488.868C566.583 492.702 575.764 502.547 583.969 513.575C585.157 515.173 585.206 516.284 584.386 517.967C570.176 547.066 548.355 566.51 515.599 571.829C510.782 572.608 505.732 572.636 500.872 572.162C498.659 571.95 495.921 570.146 494.676 568.243ZM544.861 598.297C538.672 600.992 530.806 599.252 525.834 594.329C541.515 591.111 552.365 581.067 562.204 569.559C563.428 568.13 564.779 566.807 566.137 565.499C567.679 564.014 569.037 562.861 570.869 565.534C572.333 567.67 574.427 566.475 576.223 565.428C586.975 559.176 594.295 549.796 600.251 539.165C600.481 538.755 600.697 538.336 600.912 537.917L600.913 537.917L600.913 537.916L600.913 537.916L600.913 537.915L600.913 537.915L600.914 537.915C601.129 537.496 601.344 537.078 601.574 536.669C601.643 536.552 601.748 536.46 601.929 536.301C602.045 536.199 602.192 536.07 602.38 535.891L602.459 536.058L602.459 536.058C604.176 539.691 605.729 542.979 604.113 547.172C601.185 554.783 596.92 561.46 591.254 567.26C577.963 580.848 562.19 590.764 544.861 598.297ZM583.466 543.148C579.774 552.046 571.562 556.481 562.211 559.183C564.177 556.792 566.118 554.469 568.029 552.182L568.031 552.179L568.035 552.175L568.036 552.173L568.04 552.168L568.041 552.167L568.041 552.167C572.611 546.698 577.007 541.437 581.139 535.968C584.308 531.774 586.762 526.992 589.16 522.282C590.561 519.523 592.548 519.318 594.628 520.499C597.181 521.949 595.477 524.213 594.246 525.16C589.056 529.163 586.867 534.655 584.588 540.372C584.221 541.293 583.851 542.22 583.466 543.148ZM542.753 570.737C542.829 570.838 542.905 570.938 542.979 571.037C542.797 571.248 542.623 571.468 542.449 571.688C542.063 572.177 541.677 572.665 541.204 573.046C540.577 573.542 539.953 574.041 539.328 574.54C536.573 576.739 533.814 578.942 530.891 580.89C529.561 581.774 527.496 582.22 525.926 581.951C520.069 580.954 514.998 582.298 510.407 586.011C509.983 586.353 509.788 585.911 509.568 585.413C509.338 584.889 509.08 584.304 508.5 584.5C508.407 583.776 507.842 583.725 507.349 583.681C506.868 583.638 506.455 583.601 506.609 582.956C507.09 580.947 507.917 579.002 510.669 578.79C521.335 577.955 531.464 574.984 541.246 570.74C541.514 570.621 541.81 570.569 542.105 570.518L542.105 570.518L542.105 570.518L542.105 570.518L542.105 570.518L542.105 570.518C542.247 570.493 542.389 570.468 542.527 570.436C542.601 570.535 542.677 570.636 542.753 570.737ZM555.085 568.014C553.385 569.87 551.733 571.673 549.89 573.683C550.286 565.697 550.922 564.983 556.942 565.987L555.085 568.014ZM595.12 533.748L595.121 533.748C595.345 533.891 595.569 534.034 595.795 534.179C594.649 536.202 593.503 538.225 592.364 540.255C591.968 540.05 591.572 539.837 591.176 539.625C592.265 537.517 593.355 535.417 594.444 533.316C594.669 533.46 594.893 533.603 595.116 533.745L595.12 533.748ZM548.618 499.513C548.619 499.375 548.62 499.18 548.631 498.905C548.507 498.76 548.361 498.532 548.2 498.28C547.794 497.645 547.289 496.855 546.778 496.861C543.489 496.846 540.172 497.094 536.932 497.66C536.366 497.752 535.525 500.072 535.871 500.935C537.205 504.241 539.302 503.536 541.441 502.818C542.693 502.397 543.959 501.972 545.095 502.342C545.654 502.524 546.55 501.681 547.439 500.845C547.831 500.476 548.222 500.109 548.582 499.831C548.616 499.801 548.616 499.725 548.618 499.513V499.513ZM509.679 511.219C510.095 510.406 510.443 509.636 510.768 508.919C511.462 507.383 512.049 506.084 512.975 505.101C513.562 504.48 514.673 504.352 515.783 504.225C516.277 504.168 516.772 504.112 517.219 504.012C517.304 504.446 517.41 504.882 517.516 505.318L517.516 505.318L517.516 505.318L517.516 505.318L517.517 505.318L517.517 505.318L517.517 505.319C517.765 506.338 518.014 507.358 517.99 508.369C517.975 508.935 517.693 509.485 517.41 510.039C517.151 510.545 516.89 511.053 516.83 511.58C516.582 513.702 515.811 515.668 513.519 515.01C512.512 514.72 511.713 513.706 510.878 512.646C510.494 512.158 510.102 511.661 509.679 511.219ZM496.876 529.645C494.882 529.164 492.675 532.566 492.618 536.831C492.807 536.984 493.029 537.21 493.28 537.468C493.963 538.165 494.868 539.09 495.943 539.385C498.114 539.972 500.123 536.711 499.805 532.651C499.72 531.533 498.072 529.928 496.876 529.645ZM528.982 538.904C528.266 539.467 527.665 540.034 527.134 540.532C526.155 541.455 525.42 542.146 524.667 542.164C521.866 542.221 520.826 539.752 521.017 537.503C521.09 536.606 521.944 535.772 522.798 534.938C523.183 534.562 523.568 534.186 523.882 533.804C524.349 534.271 524.815 534.738 525.302 535.225L525.309 535.233L525.318 535.242C526.374 536.299 527.525 537.452 528.982 538.904ZM511.293 559.424L511.293 559.424C511.843 558.901 512.467 558.307 513.215 557.704C510.899 555.726 509.424 554.462 507.952 553.202L507.932 553.185C507.641 553.57 507.286 553.948 506.932 554.327C506.147 555.165 505.364 556.001 505.286 556.898C505.102 558.963 505.972 561.432 508.667 561.206C509.493 561.136 510.262 560.405 511.293 559.424ZM543.969 523.201C543.329 522.487 542.69 521.888 542.121 521.354C541.051 520.351 540.23 519.58 540.114 518.717C539.775 516.156 542.088 515.173 544.132 515.633C545.158 515.862 546.053 516.7 546.946 517.536L546.946 517.536C547.346 517.91 547.746 518.284 548.157 518.604C547.783 519.014 547.41 519.423 547.012 519.859L547.01 519.862C546.179 520.772 545.24 521.801 543.969 523.201ZM571.914 516.487C572.398 517.018 572.926 517.6 573.493 518.264C574.009 517.465 574.557 516.729 575.036 516.086C575.91 514.912 576.551 514.051 576.336 513.695C575.466 512.231 573.854 510.866 572.248 510.335C571.576 510.116 569.108 512.627 569.299 513.037C569.839 514.203 570.744 515.199 571.914 516.487Z" fill="#1F1C1C"/>
<path d="M500.936 578.775L516.534 582.342L520.766 563.836L501.81 562.799L500.936 578.775ZM486.443 566.708L500.617 559.284L500.615 559.281L486.443 566.708ZM500.538 580.451L516.061 584.331L516.074 584.276L516.088 584.22L500.538 580.451ZM500.538 580.451L485.016 576.571L485.002 576.626L484.988 576.682L500.538 580.451ZM499.868 583.514L515.639 586.214L515.641 586.198L515.644 586.182L499.868 583.514ZM509.092 593.693L514.007 608.919L514.015 608.916L509.092 593.693ZM516.023 595.454L506.618 608.397L506.625 608.403L516.023 595.454ZM517.509 596.537L508.066 609.454L508.066 609.454L517.509 596.537ZM526.803 602.754L534.562 588.761L534.555 588.757L534.549 588.753L526.803 602.754ZM549.013 603.369L541.29 589.356L541.282 589.361L549.013 603.369ZM556.57 599.297L564.093 613.418L564.093 613.418L556.57 599.297ZM575.438 588.494L566.658 575.118L566.654 575.121L575.438 588.494ZM604.693 560.222L591.089 551.801L591.087 551.803L604.693 560.222ZM606.727 557.144L593.707 547.845L593.605 547.987L593.507 548.132L606.727 557.144ZM606.727 557.144L594.233 547.149L593.961 547.49L593.708 547.844L606.727 557.144ZM606.727 557.144L619.221 567.139L619.603 566.662L619.948 566.156L606.727 557.144ZM611.547 547.37L595.705 545.125L595.703 545.139L611.547 547.37ZM605.846 529.687L593.273 539.582L593.281 539.593L605.846 529.687ZM603.597 525.691L619.201 522.155L619.198 522.143L619.196 522.131L603.597 525.691ZM591.99 513.525L592.877 529.5L592.888 529.5L592.899 529.499L591.99 513.525ZM590.405 512.443L603.074 502.67L603.055 502.646L603.037 502.623L590.405 512.443ZM587.039 507.895L573.726 516.771L573.892 517.02L574.068 517.264L587.039 507.895ZM587.039 507.895L600.352 499.02L600.037 498.549L599.69 498.101L587.039 507.895ZM587.038 507.895L574.068 517.263L574.224 517.479L574.387 517.69L587.038 507.895ZM580.043 499.11L568.526 510.217L568.529 510.219L580.043 499.11ZM548.857 481.073L545.788 496.776L545.788 496.776L548.857 481.073ZM518.591 485.374L526.799 499.108L526.8 499.107L518.591 485.374ZM516.341 486.713L524.512 500.469L524.512 500.469L516.341 486.713ZM500.858 496.889L510.835 509.397L510.836 509.397L500.858 496.889ZM485.502 538.274L501.502 538.295L501.503 538.124L501.499 537.952L485.502 538.274ZM494.676 568.243L481.279 576.99L481.283 576.997L481.288 577.003L494.676 568.243ZM497.527 508.588L509.324 519.396L509.328 519.392L497.527 508.588ZM528.663 487.736L534.659 502.57L534.664 502.568L528.663 487.736ZM552.629 488.817L556.932 473.406L556.932 473.406L552.629 488.817ZM552.811 488.868L548.508 504.278L548.52 504.282L552.811 488.868ZM583.969 513.575L596.809 504.029L596.805 504.023L583.969 513.575ZM584.386 517.967L598.763 524.988L598.769 524.977L584.386 517.967ZM515.599 571.829L518.15 587.625L518.163 587.623L515.599 571.829ZM500.872 572.162L502.426 556.237L502.412 556.236L502.399 556.235L500.872 572.162ZM525.834 594.329L522.617 578.656L493.332 584.666L514.577 605.7L525.834 594.329ZM544.861 598.297L538.482 583.624L538.473 583.628L544.861 598.297ZM562.204 569.559L550.052 559.151L550.043 559.162L562.204 569.559ZM566.137 565.499L555.037 553.976L555.035 553.977L566.137 565.499ZM570.869 565.534L557.67 574.578L557.672 574.58L570.869 565.534ZM576.223 565.428L568.18 551.597L568.168 551.604L576.223 565.428ZM600.251 539.165L586.293 531.344L586.292 531.345L600.251 539.165ZM600.912 537.917L586.795 530.388L586.74 530.49L586.687 530.594L600.912 537.917ZM600.913 537.917L586.866 530.255L586.83 530.321L586.795 530.387L600.913 537.917ZM600.914 537.915L614.96 545.576L615.052 545.408L615.14 545.237L600.914 537.915ZM601.574 536.669L587.809 528.512L587.71 528.678L587.616 528.847L601.574 536.669ZM601.929 536.301L612.481 548.328L612.481 548.328L601.929 536.301ZM602.38 535.891L616.847 529.056L607.367 508.99L591.324 524.325L602.38 535.891ZM602.459 536.058L617.315 530.116L617.134 529.664L616.926 529.223L602.459 536.058ZM602.459 536.058L587.604 542L587.785 542.453L587.993 542.894L602.459 536.058ZM604.113 547.172L589.183 541.419L589.18 541.427L604.113 547.172ZM591.254 567.26L602.692 578.448L602.699 578.441L591.254 567.26ZM562.211 559.183L549.852 549.021L517.085 588.877L566.653 574.554L562.211 559.183ZM583.466 543.148L598.245 549.28L598.245 549.278L583.466 543.148ZM568.029 552.182L580.307 562.441L580.318 562.428L580.328 562.416L568.029 552.182ZM568.031 552.179L555.78 541.888L555.756 541.916L555.732 541.945L568.031 552.179ZM568.035 552.175L580.286 562.466L580.306 562.442L580.326 562.418L568.035 552.175ZM568.036 552.173L555.758 541.914L555.751 541.922L555.745 541.93L568.036 552.173ZM568.04 552.168L555.826 541.833L555.794 541.871L555.763 541.909L568.04 552.168ZM568.041 552.167L580.255 562.502L580.34 562.402L580.424 562.299L568.041 552.167ZM568.041 552.167L555.763 541.908L555.71 541.971L555.658 542.035L568.041 552.167ZM581.139 535.968L593.904 545.615L593.906 545.613L581.139 535.968ZM589.16 522.282L603.419 529.54L603.423 529.532L603.427 529.525L589.16 522.282ZM594.628 520.499L586.725 534.411L586.727 534.412L594.628 520.499ZM594.246 525.16L584.483 512.484L584.475 512.49L594.246 525.16ZM584.588 540.372L569.725 534.448L569.725 534.448L584.588 540.372ZM542.979 571.037L555.083 581.502L563.514 571.75L555.779 561.437L542.979 571.037ZM542.753 570.737L555.526 561.101L555.526 561.101L542.753 570.737ZM542.449 571.688L555.004 581.607L555.004 581.607L542.449 571.688ZM541.204 573.046L551.132 585.593L551.181 585.554L551.23 585.515L541.204 573.046ZM539.328 574.54L549.311 587.043L549.311 587.043L539.328 574.54ZM530.891 580.89L539.75 594.214L539.758 594.208L539.766 594.203L530.891 580.89ZM525.926 581.951L528.625 566.181L528.612 566.178L525.926 581.951ZM510.407 586.011L520.439 598.475L520.455 598.463L520.47 598.451L510.407 586.011ZM509.568 585.413L524.208 578.958L524.208 578.958L509.568 585.413ZM508.5 584.5L492.631 586.543L495.123 605.902L513.617 599.66L508.5 584.5ZM507.349 583.681L508.777 567.745L508.777 567.745L507.349 583.681ZM506.609 582.956L491.049 579.23L491.046 579.242L491.043 579.254L506.609 582.956ZM510.669 578.79L511.899 594.742L511.908 594.741L511.917 594.741L510.669 578.79ZM541.246 570.74L547.614 585.418L547.692 585.385L547.769 585.35L541.246 570.74ZM542.105 570.518L544.854 586.28L544.911 586.27L544.967 586.26L542.105 570.518ZM542.105 570.518L539.356 554.756L539.3 554.765L539.243 554.776L542.105 570.518ZM542.527 570.436L555.327 560.836L549.06 552.481L538.89 554.855L542.527 570.436ZM549.89 573.683L533.909 572.89L531.713 617.175L561.682 584.497L549.89 573.683ZM555.085 568.014L543.287 557.206L543.287 557.206L555.085 568.014ZM556.942 565.987L568.739 576.795L588.654 555.057L559.575 550.205L556.942 565.987ZM595.121 533.748L603.725 520.259L603.714 520.251L603.702 520.244L595.121 533.748ZM595.12 533.748L586.528 547.245L586.539 547.252L595.12 533.748ZM595.795 534.179L609.717 542.065L617.185 528.88L604.426 520.706L595.795 534.179ZM592.364 540.255L585.007 554.463L598.748 561.578L606.319 548.083L592.364 540.255ZM591.176 539.625L576.962 532.28L569.725 546.284L583.621 553.729L591.176 539.625ZM594.444 533.316L603.075 519.843L588.311 510.385L580.24 525.951L594.444 533.316ZM595.116 533.745L586.513 547.235L586.524 547.242L595.116 533.745ZM548.631 498.905L564.618 499.55L564.873 493.246L560.756 488.464L548.631 498.905ZM548.618 499.513L532.618 499.409L532.618 499.461V499.513H548.618ZM548.2 498.28L561.682 489.664L561.682 489.664L548.2 498.28ZM546.778 496.861L546.709 512.86L546.823 512.861L546.936 512.86L546.778 496.861ZM536.932 497.66L539.498 513.453L539.592 513.437L539.685 513.421L536.932 497.66ZM535.871 500.935L521.024 506.898L521.029 506.91L521.034 506.922L535.871 500.935ZM541.441 502.818L546.538 517.984L546.538 517.984L541.441 502.818ZM545.095 502.342L540.129 517.552L540.142 517.557L540.155 517.561L545.095 502.342ZM547.439 500.845L558.4 512.501L558.4 512.501L547.439 500.845ZM548.582 499.831L558.352 512.502L558.746 512.198L559.12 511.871L548.582 499.831ZM548.618 499.513L564.618 499.617L564.618 499.565V499.513H548.618ZM510.768 508.919L496.189 502.327L496.189 502.327L510.768 508.919ZM509.679 511.219L495.44 503.922L490.239 514.07L498.134 522.297L509.679 511.219ZM512.975 505.101L501.345 494.112L501.334 494.124L501.324 494.135L512.975 505.101ZM515.783 504.225L513.962 488.329L513.962 488.329L515.783 504.225ZM517.219 504.012L532.923 500.948L529.772 484.797L513.716 488.4L517.219 504.012ZM517.516 505.318L501.973 509.112L501.983 509.156L501.994 509.199L517.516 505.318ZM517.517 505.318L501.994 509.199L502.258 510.253L502.661 511.261L517.517 505.318ZM517.517 505.319L533.06 501.524L532.792 500.426L532.372 499.376L517.517 505.319ZM517.99 508.369L533.984 508.787L533.985 508.774L533.985 508.761L517.99 508.369ZM517.41 510.039L503.167 502.75L503.167 502.75L517.41 510.039ZM516.83 511.58L532.722 513.434L532.723 513.424L532.724 513.414L516.83 511.58ZM513.519 515.01L509.085 530.384L509.095 530.386L509.105 530.389L513.519 515.01ZM510.878 512.646L523.448 502.746L523.448 502.746L510.878 512.646ZM492.618 536.831L476.62 536.619L476.516 544.391L482.562 549.276L492.618 536.831ZM496.876 529.645L493.126 545.199L493.158 545.207L493.191 545.215L496.876 529.645ZM493.28 537.468L504.717 526.278L504.717 526.278L493.28 537.468ZM495.943 539.385L491.714 554.816L491.74 554.823L491.767 554.83L495.943 539.385ZM499.805 532.651L483.851 533.863L483.852 533.882L483.854 533.901L499.805 532.651ZM527.134 540.532L538.099 552.185L538.099 552.185L527.134 540.532ZM528.982 538.904L538.886 551.47L553.052 540.304L540.276 527.571L528.982 538.904ZM524.667 542.164L524.99 558.161L525.023 558.16L525.057 558.16L524.667 542.164ZM521.017 537.503L536.96 538.857L536.962 538.83L536.964 538.803L521.017 537.503ZM522.798 534.938L511.618 523.492L511.618 523.492L522.798 534.938ZM523.882 533.804L535.195 522.49L522.721 510.016L511.521 523.645L523.882 533.804ZM525.302 535.225L536.624 523.92L536.624 523.92L525.302 535.225ZM525.309 535.233L536.632 523.929L536.631 523.928L525.309 535.233ZM525.318 535.242L513.995 546.546L513.996 546.547L525.318 535.242ZM511.293 559.424L500.266 547.831L500.121 547.969L499.979 548.111L511.293 559.424ZM511.293 559.424L522.32 571.017L522.465 570.88L522.606 570.738L511.293 559.424ZM513.215 557.704L523.255 570.162L538.27 558.062L523.607 545.538L513.215 557.704ZM507.952 553.202L497.541 565.352L497.544 565.354L507.952 553.202ZM507.932 553.185L518.343 541.035L505.412 529.955L495.158 543.549L507.932 553.185ZM506.932 554.327L518.611 565.263L518.611 565.263L506.932 554.327ZM505.286 556.898L521.223 558.317L521.225 558.3L521.226 558.284L505.286 556.898ZM508.667 561.206L507.331 545.261L507.328 545.262L508.667 561.206ZM542.121 521.354L531.175 533.024L531.175 533.024L542.121 521.354ZM543.969 523.201L532.058 533.884L543.897 547.084L555.816 533.956L543.969 523.201ZM540.114 518.717L524.253 520.82L524.254 520.828L524.256 520.837L540.114 518.717ZM544.132 515.633L540.621 531.243L540.629 531.245L540.638 531.247L544.132 515.633ZM546.946 517.536L536.012 529.217L536.208 529.401L536.41 529.577L546.946 517.536ZM546.946 517.536L557.88 505.855L557.684 505.671L557.482 505.495L546.946 517.536ZM548.157 518.604L559.987 529.376L571.638 516.581L557.97 505.967L548.157 518.604ZM547.012 519.859L535.192 509.076L535.18 509.089L535.168 509.102L547.012 519.859ZM547.01 519.862L558.83 530.645L558.842 530.632L558.854 530.619L547.01 519.862ZM573.493 518.264L561.323 528.652L575.276 544.997L586.934 526.944L573.493 518.264ZM571.914 516.487L583.755 505.726L583.755 505.726L571.914 516.487ZM575.036 516.086L587.869 525.642L587.869 525.642L575.036 516.086ZM576.336 513.695L562.581 521.868L562.607 521.91L562.632 521.952L576.336 513.695ZM572.248 510.335L577.268 495.143L577.24 495.133L577.211 495.124L572.248 510.335ZM569.299 513.037L583.815 506.308L583.809 506.296L583.804 506.285L569.299 513.037ZM501.81 562.799C501.681 562.792 501.96 562.796 502.424 563.01C502.631 563.105 502.806 563.212 502.941 563.308C503.072 563.401 503.135 563.464 503.131 563.46C503.101 563.43 502.851 563.169 502.38 562.43C501.893 561.668 501.363 560.71 500.617 559.284L472.27 574.133C475.167 579.664 482.233 593.777 500.063 594.752L501.81 562.799ZM516.088 584.22C516.213 583.702 516.371 583.052 516.534 582.342L485.339 575.209C485.23 575.687 485.119 576.144 484.988 576.682L516.088 584.22ZM516.06 584.332L516.061 584.331L485.016 576.57L485.016 576.57L516.06 584.332ZM516.06 584.332L516.06 584.332L485.016 576.57L485.016 576.571L516.06 584.332ZM515.644 586.182C515.701 585.847 515.796 585.424 516.088 584.22L484.988 576.682C484.75 577.667 484.37 579.206 484.092 580.847L515.644 586.182ZM504.176 578.467C509.134 576.866 512.839 579.416 514.097 580.826C515.326 582.204 516.003 584.084 515.639 586.214L484.098 580.815C482.707 588.935 485.411 596.74 490.216 602.126C495.049 607.545 503.878 612.189 514.007 608.919L504.176 578.467ZM525.429 582.51C524.727 582 521.854 579.775 518.122 578.491C513.501 576.902 508.733 576.993 504.168 578.469L514.015 608.916C513.448 609.1 512.486 609.326 511.231 609.33C509.937 609.335 508.733 609.102 507.714 608.751C506.77 608.426 506.175 608.065 506.046 607.985C505.979 607.944 506.026 607.968 506.618 608.397L525.429 582.51ZM526.951 583.62C526.459 583.261 525.942 582.883 525.422 582.505L506.625 608.403C507.095 608.744 507.568 609.089 508.066 609.454L526.951 583.62ZM534.549 588.753C532.33 587.526 530.107 585.927 526.951 583.62L508.066 609.454C510.937 611.553 514.776 614.385 519.057 616.754L534.549 588.753ZM541.282 589.361C539.997 590.07 539.163 590.157 538.537 590.129C537.788 590.094 536.498 589.834 534.562 588.761L519.044 616.747C530.066 622.858 543.5 624.686 556.744 617.377L541.282 589.361ZM549.046 585.176C546.537 586.513 543.91 587.912 541.29 589.356L556.735 617.382C559.123 616.066 561.549 614.773 564.093 613.418L549.046 585.176ZM566.654 575.121C561.323 578.623 555.567 581.702 549.046 585.176L564.093 613.418C570.392 610.062 577.459 606.31 584.223 601.867L566.654 575.121ZM591.087 551.803C585.445 560.92 577.113 568.256 566.658 575.118L584.218 601.87C596.695 593.68 609.243 583.276 618.299 568.642L591.087 551.803ZM593.507 548.132C592.842 549.107 591.94 550.426 591.089 551.801L618.297 568.644C618.713 567.972 619.208 567.242 619.948 566.156L593.507 548.132ZM593.708 547.844L593.707 547.845L619.747 566.444L619.747 566.444L593.708 547.844ZM594.233 547.149L594.233 547.149L619.221 567.139L619.221 567.139L594.233 547.149ZM595.703 545.139C595.827 544.263 596.069 544.038 595.684 544.752C595.51 545.074 595.257 545.5 594.878 546.087C594.49 546.688 594.064 547.314 593.507 548.132L619.948 566.156C621.516 563.856 626.288 557.428 627.391 549.602L595.703 545.139ZM593.281 539.593C595.706 542.669 595.778 544.614 595.705 545.125L627.389 549.615C629.084 537.65 624.205 527.132 618.411 519.782L593.281 539.593ZM587.992 529.227C589.213 534.612 592.468 538.559 593.273 539.582L618.419 519.792C618.055 519.329 618.071 519.316 618.193 519.518C618.271 519.647 618.43 519.925 618.61 520.336C618.79 520.747 619.021 521.362 619.201 522.155L587.992 529.227ZM592.899 529.499C593.151 529.485 592.211 529.58 590.747 528.927C589.17 528.224 588.066 527.137 587.453 526.272C586.966 525.585 586.946 525.263 587.161 525.928C587.386 526.624 587.603 527.52 587.998 529.251L619.196 522.131C618.663 519.797 617.392 513.171 613.555 507.761C611.31 504.595 608.122 501.638 603.783 499.703C599.556 497.817 595.174 497.318 591.08 497.551L592.899 529.499ZM577.737 522.216C578.695 523.457 579.98 524.811 581.588 526.009C582.473 526.669 586.699 529.844 592.877 529.5L591.102 497.55C594.271 497.374 596.684 498.214 597.914 498.744C599.233 499.313 600.174 499.951 600.711 500.352C601.75 501.125 602.498 501.923 603.074 502.67L577.737 522.216ZM574.068 517.264C575.146 518.755 576.416 520.517 577.773 522.263L603.037 502.623C602.085 501.397 601.143 500.097 600.009 498.527L574.068 517.264ZM573.726 516.771L573.726 516.771L600.352 499.02L600.352 499.02L573.726 516.771ZM574.387 517.69L574.387 517.69L599.69 498.101L599.69 498.1L574.387 517.69ZM574.387 517.69L574.387 517.69L599.69 498.1L599.69 498.1L574.387 517.69ZM568.529 510.219C570.191 511.942 571.745 514.047 574.068 517.263L600.009 498.527C597.922 495.637 595.068 491.639 591.557 488L568.529 510.219ZM545.788 496.776C554.369 498.453 561.487 502.918 568.526 510.217L591.56 488.003C581.368 477.435 568.682 468.645 551.926 465.37L545.788 496.776ZM526.8 499.107C531.98 496.011 537.707 495.197 545.788 496.776L551.926 465.37C538.364 462.72 524.087 463.448 510.382 471.64L526.8 499.107ZM524.512 500.469C525.26 500.025 526.029 499.568 526.799 499.108L510.383 471.64C509.656 472.074 508.924 472.508 508.17 472.956L524.512 500.469ZM510.836 509.397C514.64 506.363 519.025 503.728 524.512 500.469L508.17 472.956C503.017 476.017 496.697 479.742 490.881 484.381L510.836 509.397ZM500.615 559.281C495.233 549.014 494.07 539.861 495.657 532.121C497.239 524.402 501.87 516.548 510.835 509.397L490.882 484.38C476.993 495.457 467.619 509.544 464.309 525.694C461.003 541.823 464.058 558.466 472.272 574.136L500.615 559.281ZM469.502 538.253C469.484 552.599 473.841 565.597 481.279 576.99L508.074 559.497C503.7 552.797 501.493 545.82 501.502 538.295L469.502 538.253ZM485.729 497.78C475.924 508.482 469.173 522.035 469.506 538.596L501.499 537.952C501.365 531.299 503.823 525.401 509.324 519.396L485.729 497.78ZM522.667 472.902C509.149 478.366 496.346 486.183 485.725 497.784L509.328 519.392C516.023 512.079 524.482 506.683 534.659 502.57L522.667 472.902ZM556.932 473.406C549.95 471.457 536.679 467.233 522.662 472.904L534.664 502.568C535.772 502.12 537.063 501.913 539.145 502.128C541.552 502.377 544.176 503.069 548.326 504.228L556.932 473.406ZM557.114 473.457L556.932 473.406L548.326 504.228L548.508 504.278L557.114 473.457ZM596.805 504.023C588.143 492.382 576.25 478.784 557.102 473.454L548.52 504.282C556.915 506.619 563.384 512.713 571.132 523.126L596.805 504.023ZM598.769 524.977C599.771 522.92 601.279 519.171 600.873 514.387C600.465 509.568 598.322 506.064 596.809 504.029L571.128 523.12C570.803 522.683 569.28 520.534 568.988 517.091C568.699 513.683 569.821 511.33 570.003 510.957L598.769 524.977ZM518.163 587.623C556.992 581.318 582.728 557.824 598.763 524.988L570.009 510.946C557.624 536.308 539.718 551.703 513.034 556.036L518.163 587.623ZM499.319 588.086C505.249 588.665 511.71 588.665 518.15 587.625L513.048 556.034C509.854 556.55 506.214 556.607 502.426 556.237L499.319 588.086ZM481.288 577.003C483.418 580.26 486.232 582.677 488.781 584.31C491.267 585.902 494.934 587.666 499.346 588.089L502.399 556.235C503.616 556.352 504.482 556.636 504.95 556.818C505.446 557.011 505.799 557.209 506.041 557.364C506.287 557.521 506.551 557.719 506.839 557.991C507.11 558.247 507.569 558.725 508.065 559.483L481.288 577.003ZM514.577 605.7C523.749 614.78 538.493 618.521 551.248 612.967L538.473 583.628C538.803 583.484 538.732 583.629 538.213 583.519C537.984 583.47 537.747 583.385 537.532 583.27C537.317 583.157 537.173 583.041 537.091 582.959L514.577 605.7ZM550.043 559.162C540.795 569.979 532.893 576.547 522.617 578.656L529.051 610.003C550.138 605.675 563.936 592.155 574.366 579.956L550.043 559.162ZM555.035 553.977C553.681 555.282 551.828 557.078 550.052 559.151L574.357 579.967C575.028 579.183 575.876 578.333 577.239 577.021L555.035 553.977ZM584.068 556.491C581.887 553.308 575.688 546.352 565.506 548.22C561.721 548.914 559.057 550.677 557.767 551.629C556.448 552.603 555.389 553.636 555.037 553.976L577.237 577.022C577.656 576.619 577.345 576.952 576.772 577.374C576.227 577.777 574.306 579.139 571.282 579.694C567.684 580.355 564.145 579.589 561.36 577.923C559.04 576.535 557.912 574.93 557.67 574.578L584.068 556.491ZM568.168 551.604C567.651 551.905 567.724 551.852 567.925 551.756C568.113 551.666 569.118 551.184 570.667 550.914C572.353 550.619 575.033 550.519 578.009 551.709C581.043 552.922 582.988 554.916 584.066 556.488L557.672 574.58C559.482 577.221 562.238 579.867 566.132 581.423C569.969 582.957 573.559 582.893 576.176 582.436C580.475 581.685 584.026 579.4 584.279 579.253L568.168 551.604ZM586.292 531.345C581.069 540.669 575.498 547.341 568.18 551.597L584.267 579.259C598.452 571.01 607.522 558.924 614.21 546.985L586.292 531.345ZM586.687 530.594C586.449 531.056 586.361 531.222 586.293 531.344L614.209 546.987C614.6 546.288 614.944 545.617 615.138 545.24L586.687 530.594ZM586.795 530.387L586.795 530.388L615.03 545.446L615.03 545.446L586.795 530.387ZM586.866 530.255L586.866 530.255L614.959 545.578L614.959 545.578L586.866 530.255ZM586.867 530.254L586.866 530.255L614.959 545.578L614.959 545.577L586.867 530.254ZM586.867 530.254L586.867 530.254L614.959 545.577L614.96 545.577L586.867 530.254ZM586.867 530.253L586.867 530.254L614.96 545.577L614.96 545.577L586.867 530.253ZM586.867 530.253L586.867 530.253L614.96 545.577L614.96 545.576L586.867 530.253ZM587.616 528.847C587.225 529.545 586.881 530.217 586.688 530.592L615.14 545.237C615.377 544.776 615.464 544.611 615.532 544.49L587.616 528.847ZM591.377 524.274C591.353 524.295 591.227 524.405 591.095 524.524C590.958 524.648 590.703 524.88 590.404 525.178C589.78 525.802 588.757 526.913 587.809 528.512L615.339 544.825C614.46 546.308 613.524 547.314 613.015 547.823C612.627 548.21 612.258 548.524 612.481 548.328L591.377 524.274ZM591.324 524.325C591.34 524.31 591.355 524.295 591.371 524.281C591.387 524.266 591.4 524.254 591.411 524.244C591.421 524.235 591.426 524.23 591.423 524.233C591.421 524.235 591.417 524.239 591.409 524.245C591.401 524.252 591.392 524.26 591.377 524.274L612.481 548.328C612.625 548.202 612.987 547.885 613.436 547.457L591.324 524.325ZM616.926 529.223L616.847 529.056L587.913 542.725L587.992 542.893L616.926 529.223ZM617.315 530.116L617.315 530.116L587.604 542L587.604 542L617.315 530.116ZM619.043 552.926C623.423 541.561 618.33 532.194 616.926 529.223L587.993 542.894C588.215 543.364 588.382 543.719 588.536 544.054C588.684 544.379 588.786 544.614 588.86 544.794C589.013 545.169 588.978 545.15 588.918 544.883C588.849 544.571 588.762 543.998 588.804 543.26C588.847 542.506 589.01 541.869 589.183 541.419L619.043 552.926ZM602.699 578.441C609.905 571.064 615.347 562.532 619.046 552.918L589.18 541.427C587.023 547.035 583.934 551.856 579.808 556.08L602.699 578.441ZM551.239 612.971C570.029 604.803 587.658 593.819 602.692 578.448L579.816 556.072C568.269 567.877 554.351 576.726 538.482 583.624L551.239 612.971ZM566.653 574.554C577.548 571.406 591.724 564.994 598.245 549.28L568.688 537.015C567.824 539.097 565.576 541.556 557.77 543.811L566.653 574.554ZM555.751 541.923C553.846 544.203 551.864 546.574 549.852 549.021L574.571 569.344C576.489 567.01 578.39 564.735 580.307 562.441L555.751 541.923ZM555.732 541.945L555.73 541.948L580.328 562.416L580.33 562.413L555.732 541.945ZM555.783 541.884L555.78 541.888L580.283 562.47L580.286 562.466L555.783 541.884ZM555.745 541.93L555.743 541.932L580.326 562.418L580.328 562.416L555.745 541.93ZM555.763 541.909L555.758 541.914L580.314 562.433L580.318 562.427L555.763 541.909ZM555.827 541.832L555.826 541.833L580.254 562.503L580.255 562.502L555.827 541.832ZM555.658 542.035L555.657 542.036L580.424 562.299L580.424 562.299L555.658 542.035ZM568.374 526.322C564.518 531.425 560.377 536.385 555.763 541.908L580.319 562.426C584.845 557.01 589.496 551.448 593.904 545.615L568.374 526.322ZM574.901 515.024C572.411 519.915 570.556 523.435 568.373 526.324L593.906 545.613C598.061 540.113 601.114 534.069 603.419 529.54L574.901 515.024ZM602.53 506.587C599.513 504.873 594.046 502.712 587.518 504.453C580.716 506.266 576.844 511.197 574.894 515.039L603.427 529.525C602.877 530.607 600.699 534.056 595.761 535.373C591.096 536.617 587.663 534.944 586.725 534.411L602.53 506.587ZM604.008 537.837C605.926 536.36 609.554 533.015 611.176 527.635C612.12 524.499 612.499 520.127 610.582 515.538C608.69 511.01 605.368 508.198 602.529 506.586L586.727 534.412C585.165 533.525 582.587 531.54 581.055 527.874C579.498 524.146 579.852 520.672 580.536 518.402C581.167 516.308 582.137 514.936 582.665 514.273C583.239 513.551 583.847 512.974 584.483 512.484L604.008 537.837ZM599.451 546.296C601.944 540.041 602.8 538.769 604.016 537.831L584.475 512.49C575.312 519.556 571.789 529.268 569.725 534.448L599.451 546.296ZM598.245 549.278C598.68 548.231 599.09 547.201 599.451 546.296L569.725 534.448C569.351 535.385 569.023 536.209 568.687 537.017L598.245 549.278ZM555.779 561.437C555.689 561.317 555.6 561.198 555.526 561.101L529.98 580.373C530.059 580.477 530.121 580.559 530.179 580.637L555.779 561.437ZM555.004 581.607C555.05 581.549 555.08 581.511 555.107 581.476C555.133 581.444 555.148 581.425 555.156 581.415C555.163 581.406 555.16 581.41 555.149 581.424C555.137 581.438 555.115 581.465 555.083 581.502L530.876 560.573C530.423 561.096 530.031 561.597 529.895 561.769L555.004 581.607ZM551.23 585.515C553.355 583.806 554.832 581.825 555.004 581.607L529.895 561.769C529.787 561.906 529.758 561.942 529.74 561.964C529.73 561.977 529.779 561.915 529.869 561.814C530.038 561.622 530.483 561.136 531.178 560.577L551.23 585.515ZM549.311 587.043C549.94 586.541 550.537 586.064 551.132 585.593L531.276 560.499C530.617 561.02 529.965 561.541 529.345 562.036L549.311 587.043ZM539.766 594.203C543.356 591.81 546.647 589.17 549.311 587.043L529.345 562.036C526.498 564.309 524.272 566.074 522.016 567.577L539.766 594.203ZM523.226 597.722C528.876 598.689 535.068 597.327 539.75 594.214L522.032 567.567C523.363 566.682 524.478 566.351 525.146 566.208C525.81 566.066 526.996 565.902 528.625 566.181L523.226 597.722ZM520.47 598.451C521.22 597.844 521.628 597.723 521.753 597.691C521.877 597.658 522.289 597.562 523.24 597.724L528.612 566.178C518.203 564.406 508.492 566.981 500.344 573.572L520.47 598.451ZM494.928 591.868C494.929 591.868 495.209 592.522 495.569 593.208C495.873 593.785 496.812 595.543 498.56 597.303C500.498 599.254 504.323 602.048 509.894 602.13C515.116 602.207 518.76 599.827 520.439 598.475L500.375 573.547C501.842 572.366 505.302 570.059 510.363 570.134C515.77 570.213 519.453 572.93 521.262 574.751C522.881 576.38 523.704 577.956 523.896 578.321C524.144 578.794 524.318 579.206 524.208 578.958L494.928 591.868ZM513.617 599.66C510.971 600.553 507.541 600.875 503.936 599.704C500.545 598.602 498.36 596.62 497.187 595.295C496.055 594.017 495.432 592.865 495.213 592.447C494.985 592.012 494.829 591.644 494.928 591.868L524.208 578.958C524.192 578.92 523.917 578.282 523.558 577.596C523.208 576.928 522.44 575.544 521.143 574.079C519.804 572.567 517.432 570.442 513.822 569.269C509.999 568.027 506.319 568.35 503.384 569.34L513.617 599.66ZM505.92 599.617C506.166 599.639 505.582 599.597 504.889 599.473C504.155 599.341 502.621 599.009 500.841 598.107C498.916 597.132 496.82 595.543 495.165 593.137C493.543 590.777 492.869 588.392 492.631 586.543L524.369 582.457C523.685 577.146 520.516 572.204 515.308 569.564C513.313 568.553 511.54 568.155 510.558 567.979C509.618 567.81 508.778 567.745 508.777 567.745L505.92 599.617ZM491.043 579.254C490.676 580.797 490.179 583.787 491.106 587.357C492.183 591.504 494.751 594.797 497.915 596.889C500.572 598.647 503.077 599.181 504.04 599.362C504.627 599.473 505.11 599.533 505.388 599.564C505.654 599.594 505.895 599.615 505.92 599.617L508.777 567.745C508.465 567.717 509.17 567.765 509.977 567.918C510.733 568.061 513.054 568.537 515.567 570.199C518.588 572.196 521.051 575.356 522.079 579.314C522.956 582.694 522.465 585.436 522.175 586.658L491.043 579.254ZM509.439 562.837C503.884 563.265 498.817 565.798 495.292 570.206C492.382 573.844 491.408 577.728 491.049 579.23L522.169 586.681C522.29 586.175 521.971 588.081 520.283 590.192C519.312 591.406 517.977 592.589 516.279 593.466C514.606 594.329 513.049 594.653 511.899 594.742L509.439 562.837ZM534.878 556.062C526.285 559.79 517.904 562.174 509.421 562.838L511.917 594.741C524.767 593.735 536.643 590.178 547.614 585.418L534.878 556.062ZM539.356 554.756C539.291 554.767 538.664 554.871 537.97 555.036C537.224 555.213 536.059 555.534 534.724 556.13L547.769 585.35C546.701 585.827 545.818 586.062 545.361 586.171C544.955 586.267 544.623 586.32 544.854 586.28L539.356 554.756ZM539.243 554.776L539.243 554.776L544.967 586.26L544.967 586.26L539.243 554.776ZM539.243 554.776L539.243 554.776L544.967 586.26L544.967 586.26L539.243 554.776ZM539.243 554.776L539.243 554.776L544.967 586.26L544.967 586.26L539.243 554.776ZM539.243 554.776L539.243 554.776L544.967 586.26L544.968 586.26L539.243 554.776ZM539.243 554.776L539.243 554.776L544.968 586.26L544.968 586.26L539.243 554.776ZM538.89 554.855C539.112 554.803 539.278 554.771 539.348 554.758C539.367 554.754 539.382 554.751 539.392 554.749C539.401 554.748 539.407 554.747 539.407 554.747C539.408 554.747 539.404 554.747 539.395 554.749C539.386 554.75 539.375 554.752 539.356 554.756L544.855 586.28C544.917 586.269 545.509 586.17 546.164 586.017L538.89 554.855ZM555.526 561.101C555.447 560.997 555.385 560.914 555.327 560.836L529.726 580.036C529.817 580.156 529.907 580.275 529.98 580.373L555.526 561.101ZM561.682 584.497C563.528 582.483 565.183 580.677 566.883 578.822L543.287 557.206C541.587 559.062 539.938 560.862 538.098 562.868L561.682 584.497ZM559.575 550.205C558.122 549.963 555.357 549.507 552.472 549.667C549.062 549.856 543.765 551 539.498 555.668C535.891 559.613 534.924 564.126 534.561 566.161C534.152 568.455 534.007 570.93 533.909 572.89L565.87 574.475C565.916 573.553 565.958 572.888 566.001 572.386C566.046 571.868 566.076 571.713 566.064 571.779C566.056 571.821 565.952 572.427 565.603 573.316C565.238 574.246 564.509 575.735 563.116 577.259C559.81 580.876 555.826 581.531 554.241 581.618C553.18 581.677 552.752 581.509 554.308 581.769L559.575 550.205ZM566.882 578.822L568.739 576.795L545.144 555.179L543.287 557.206L566.882 578.822ZM603.702 520.244L603.701 520.243L586.539 547.252L586.54 547.253L603.702 520.244ZM604.426 520.706C604.184 520.552 603.947 520.4 603.725 520.259L586.518 547.238C586.744 547.382 586.954 547.517 587.164 547.651L604.426 520.706ZM606.319 548.083C607.439 546.086 608.568 544.092 609.717 542.065L581.873 526.293C580.73 528.311 579.568 530.363 578.41 532.427L606.319 548.083ZM583.621 553.729C584.001 553.932 584.495 554.198 585.007 554.463L599.722 526.047C599.442 525.902 599.144 525.742 598.732 525.522L583.621 553.729ZM580.24 525.951C579.151 528.05 578.057 530.16 576.962 532.28L605.39 546.971C606.474 544.874 607.558 542.783 608.648 540.681L580.24 525.951ZM603.72 520.255C603.494 520.111 603.284 519.978 603.075 519.843L585.813 546.788C586.054 546.943 586.291 547.094 586.513 547.235L603.72 520.255ZM603.713 520.251L603.709 520.248L586.524 547.242L586.528 547.245L603.713 520.251ZM532.644 498.259C532.622 498.81 532.619 499.221 532.618 499.409L564.618 499.616C564.618 499.55 564.618 499.549 564.618 499.551C564.618 499.553 564.618 499.555 564.618 499.556C564.618 499.557 564.618 499.556 564.618 499.55L532.644 498.259ZM534.718 506.896C534.77 506.977 534.965 507.285 535.178 507.6C535.361 507.871 535.837 508.567 536.507 509.345L560.756 488.464C561.059 488.817 561.28 489.108 561.408 489.281C561.54 489.461 561.635 489.599 561.68 489.665C561.749 489.767 561.791 489.835 561.682 489.664L534.718 506.896ZM546.936 512.86C542.836 512.9 539.848 511.34 538.321 510.328C536.799 509.32 535.853 508.285 535.47 507.846C534.778 507.053 534.356 506.329 534.718 506.896L561.682 489.664C561.638 489.595 560.76 488.159 559.587 486.814C558.964 486.099 557.769 484.828 555.997 483.653C554.219 482.475 550.976 480.818 546.62 480.861L546.936 512.86ZM539.685 513.421C541.891 513.036 544.257 512.85 546.709 512.86L546.847 480.861C542.721 480.843 538.452 481.152 534.179 481.898L539.685 513.421ZM550.718 494.972C552.129 498.485 551.765 501.391 551.707 501.894C551.592 502.899 551.38 503.652 551.207 504.16C551.051 504.62 550.716 505.502 550.031 506.594C549.703 507.117 548.998 508.167 547.829 509.297C546.904 510.19 544.102 512.705 539.498 513.453L534.366 481.867C529.621 482.638 526.669 485.245 525.591 486.286C524.269 487.564 523.408 488.817 522.926 489.584C521.935 491.164 521.306 492.697 520.911 493.857C520.501 495.064 520.108 496.564 519.915 498.249C519.78 499.433 519.44 502.953 521.024 506.898L550.718 494.972ZM536.344 487.651C535.642 487.887 535.926 487.775 536.376 487.675C536.878 487.563 538.543 487.227 540.785 487.571C543.344 487.965 545.869 489.124 547.889 490.998C549.697 492.677 550.461 494.334 550.709 494.948L521.034 506.922C523.045 511.906 527.618 517.923 535.924 519.2C539.124 519.692 541.797 519.251 543.336 518.908C544.823 518.577 546.171 518.107 546.538 517.984L536.344 487.651ZM550.06 487.132C546.05 485.823 542.522 486.162 540.43 486.545C538.482 486.901 536.739 487.518 536.344 487.651L546.538 517.984C546.705 517.928 546.798 517.897 546.879 517.87C546.954 517.846 546.972 517.841 546.956 517.846C546.941 517.85 546.652 517.937 546.193 518.022C545.33 518.18 543.004 518.491 540.129 517.552L550.06 487.132ZM536.477 489.19C535.795 489.832 536.164 489.446 536.776 489.004C537.106 488.765 538.221 487.974 539.929 487.331C541.572 486.711 545.401 485.62 550.034 487.124L540.155 517.561C545.068 519.155 549.219 518.027 551.215 517.274C553.276 516.498 554.775 515.477 555.51 514.947C556.933 513.92 558.194 512.694 558.4 512.501L536.477 489.19ZM538.812 487.161C537.704 488.014 536.704 488.977 536.477 489.19L558.4 512.501C558.451 512.453 558.492 512.414 558.532 512.377C558.572 512.34 558.604 512.309 558.633 512.282C558.661 512.256 558.683 512.236 558.7 512.22C558.717 512.205 558.727 512.196 558.731 512.192C558.735 512.189 558.731 512.192 558.72 512.202C558.709 512.212 558.688 512.229 558.66 512.254C558.631 512.278 558.591 512.311 558.541 512.352C558.492 512.392 558.428 512.443 558.352 512.502L538.812 487.161ZM532.618 499.408C532.615 499.875 532.605 499.076 532.681 498.262C532.723 497.8 532.861 496.429 533.417 494.756C534.037 492.889 535.338 490.16 538.044 487.792L559.12 511.871C564.334 507.307 564.542 501.239 564.544 501.218C564.6 500.613 564.61 500.125 564.613 499.98C564.617 499.804 564.617 499.632 564.618 499.617L532.618 499.408ZM532.618 499.513V499.513H564.618V499.513H532.618ZM496.189 502.327C495.85 503.077 495.653 503.506 495.44 503.922L523.918 518.516C524.538 517.306 525.037 516.196 525.347 515.51L496.189 502.327ZM501.324 494.135C498.215 497.438 496.594 501.432 496.189 502.327L525.347 515.51C525.532 515.1 525.641 514.862 525.737 514.658C525.827 514.468 525.851 514.428 525.827 514.471C525.786 514.547 525.41 515.233 524.626 516.067L501.324 494.135ZM513.962 488.329C513.671 488.362 511.967 488.529 510.216 488.977C508.522 489.411 504.67 490.594 501.345 494.112L524.605 516.089C521.867 518.987 518.864 519.795 518.15 519.978C517.379 520.175 516.785 520.215 517.604 520.121L513.962 488.329ZM513.716 488.4C513.901 488.358 514.046 488.331 514.138 488.315C514.231 488.299 514.289 488.291 514.3 488.289C514.311 488.288 514.295 488.29 514.234 488.297C514.168 488.305 514.094 488.314 513.962 488.329L517.604 520.121C517.904 520.087 519.286 519.946 520.722 519.623L513.716 488.4ZM533.06 501.524C533.003 501.29 532.972 501.162 532.946 501.05C532.922 500.947 532.918 500.923 532.923 500.948L501.515 507.075C501.683 507.94 501.882 508.741 501.973 509.112L533.06 501.524ZM533.039 501.438L533.039 501.437L501.994 509.199L501.994 509.199L533.039 501.438ZM533.039 501.438L533.039 501.438L501.994 509.199L501.994 509.199L533.039 501.438ZM533.039 501.438L533.039 501.438L501.994 509.199L501.994 509.199L533.039 501.438ZM533.039 501.438L533.039 501.438L501.994 509.199L501.994 509.199L533.039 501.438ZM533.039 501.438L533.039 501.438L501.994 509.199L501.994 509.199L533.039 501.438ZM532.372 499.376L532.372 499.376L502.661 511.261L502.661 511.261L532.372 499.376ZM533.985 508.761C534.071 505.252 533.206 502.123 533.06 501.524L501.973 509.113C502.04 509.389 502.072 509.521 502.097 509.632C502.12 509.73 502.116 509.72 502.102 509.642C502.078 509.51 501.972 508.888 501.995 507.977L533.985 508.761ZM531.652 517.329C531.72 517.198 532.258 516.178 532.717 514.997C533.206 513.735 533.912 511.556 533.984 508.787L501.995 507.95C502.053 505.747 502.61 504.126 502.884 503.42C503.127 502.794 503.383 502.326 503.167 502.75L531.652 517.329ZM532.724 513.414C532.529 515.11 532.067 516.34 531.85 516.871C531.655 517.345 531.466 517.694 531.653 517.329L503.167 502.75C503.095 502.89 502.645 503.746 502.241 504.732C501.813 505.776 501.192 507.523 500.935 509.746L532.724 513.414ZM509.105 530.389C511.941 531.204 515.703 531.589 519.758 530.317C523.889 529.021 526.822 526.476 528.703 523.988C531.916 519.74 532.53 515.081 532.722 513.434L500.938 509.726C500.946 509.65 501.001 509.18 501.216 508.471C501.411 507.825 501.927 506.343 503.179 504.687C504.55 502.874 506.845 500.83 510.179 499.784C513.437 498.762 516.243 499.146 517.934 499.631L509.105 530.389ZM498.309 522.546C498.574 522.883 499.628 524.26 500.923 525.532C502.241 526.826 504.95 529.191 509.085 530.384L517.954 499.637C521.082 500.539 522.887 502.251 523.346 502.702C523.636 502.987 523.794 503.18 523.774 503.155C523.743 503.119 523.684 503.046 523.448 502.746L498.309 522.546ZM498.134 522.297C498.055 522.215 498.001 522.155 497.976 522.126C497.95 522.097 497.945 522.089 497.964 522.113C497.984 522.137 498.019 522.18 498.078 522.254C498.141 522.333 498.208 522.418 498.309 522.546L523.448 502.746C523.155 502.374 522.282 501.244 521.223 500.141L498.134 522.297ZM508.617 537.043C508.612 537.393 508.554 538.359 507.676 539.796C507.251 540.493 506.192 542.016 504.108 543.373C501.859 544.837 497.896 546.349 493.126 545.199L500.627 514.091C488.772 511.232 481.954 520.517 480.365 523.121C477.871 527.205 476.681 532.005 476.62 536.619L508.617 537.043ZM504.717 526.278C504.623 526.182 504.37 525.922 504.103 525.662C503.85 525.415 503.337 524.922 502.675 524.387L482.562 549.276C482.303 549.067 482.107 548.893 481.989 548.785C481.868 548.675 481.783 548.593 481.748 548.558C481.712 548.523 481.697 548.508 481.72 548.531C481.744 548.555 481.775 548.587 481.844 548.657L504.717 526.278ZM500.171 523.954C502.537 524.602 503.997 525.715 504.434 526.063C504.881 526.419 505.147 526.718 504.717 526.278L481.844 548.657C482.096 548.915 483.156 550.025 484.495 551.091C485.824 552.151 488.273 553.873 491.714 554.816L500.171 523.954ZM483.854 533.901C483.801 533.236 483.819 531.687 485.011 529.657C485.612 528.635 486.926 526.807 489.414 525.349C492.185 523.724 496.046 522.838 500.118 523.939L491.767 554.83C503.149 557.907 510.329 549.737 512.603 545.864C515.264 541.335 516.126 536.126 515.756 531.4L483.854 533.901ZM493.191 545.215C491.184 544.74 489.824 543.953 489.188 543.544C488.453 543.073 487.872 542.581 487.4 542.105C486.944 541.646 486.325 540.935 485.718 539.912C485.21 539.056 484.084 536.942 483.851 533.863L515.759 531.439C515.482 527.801 514.119 525.067 513.241 523.587C512.264 521.94 511.142 520.601 510.114 519.565C508.462 517.9 505.218 515.177 500.561 514.075L493.191 545.215ZM538.099 552.185C538.379 551.921 538.527 551.783 538.668 551.657C538.794 551.544 538.859 551.491 538.886 551.47L519.077 526.338C517.741 527.391 516.668 528.411 516.17 528.88L538.099 552.185ZM525.057 558.16C530.238 558.033 533.829 555.641 535.211 554.638C536.615 553.62 537.853 552.416 538.099 552.185L516.17 528.88C516.04 529.002 515.959 529.079 515.886 529.146C515.817 529.21 515.792 529.233 515.793 529.231C515.795 529.23 515.849 529.182 515.943 529.104C516.037 529.027 516.199 528.897 516.42 528.737C517.001 528.315 519.849 526.277 524.277 526.169L525.057 558.16ZM505.074 536.15C504.761 539.839 505.301 544.852 508.352 549.491C511.926 554.924 518.028 558.302 524.99 558.161L524.344 526.168C526.079 526.133 528.222 526.496 530.376 527.636C532.513 528.768 534.064 530.349 535.088 531.906C536.966 534.762 537.082 537.417 536.96 538.857L505.074 536.15ZM511.618 523.492C511.386 523.719 510.104 524.931 508.968 526.395C507.88 527.799 505.477 531.215 505.07 536.203L536.964 538.803C536.631 542.894 534.69 545.444 534.261 545.998C533.784 546.613 533.356 546.991 533.978 546.384L511.618 523.492ZM511.521 523.645C511.641 523.499 511.737 523.39 511.797 523.325C511.857 523.259 511.894 523.22 511.897 523.217C511.9 523.214 511.884 523.231 511.834 523.28C511.81 523.304 511.781 523.332 511.745 523.368C511.707 523.405 511.668 523.443 511.618 523.492L533.978 546.384C534.218 546.149 535.27 545.147 536.243 543.963L511.521 523.645ZM536.624 523.92C536.138 523.434 535.667 522.962 535.195 522.49L512.568 545.118C513.03 545.58 513.492 546.043 513.979 546.53L536.624 523.92ZM536.631 523.928L536.624 523.92L513.979 546.53L513.987 546.538L536.631 523.928ZM536.641 523.938L536.632 523.929L513.986 546.537L513.995 546.546L536.641 523.938ZM540.276 527.571C538.835 526.134 537.696 524.994 536.64 523.937L513.996 546.547C515.052 547.605 516.215 548.769 517.687 550.236L540.276 527.571ZM499.979 548.111L499.979 548.111L522.606 570.738L522.607 570.738L499.979 548.111ZM503.175 545.246C501.852 546.313 500.79 547.332 500.266 547.831L522.32 571.017C522.896 570.47 523.083 570.301 523.255 570.162L503.175 545.246ZM497.544 565.354C499.017 566.616 500.499 567.885 502.824 569.871L523.607 545.538C521.299 543.567 519.83 542.309 518.36 541.05L497.544 565.354ZM497.521 565.334L497.541 565.352L518.363 541.053L518.343 541.035L497.521 565.334ZM518.611 565.263C518.836 565.022 519.808 564.009 520.705 562.82L495.158 543.549C495.267 543.405 495.355 543.297 495.41 543.23C495.466 543.163 495.501 543.124 495.505 543.119C495.509 543.115 495.495 543.131 495.45 543.18C495.428 543.203 495.402 543.231 495.369 543.267C495.334 543.304 495.298 543.342 495.253 543.391L518.611 565.263ZM521.226 558.284C520.908 561.941 519.295 564.285 518.873 564.878C518.44 565.485 518.046 565.867 518.611 565.263L495.253 543.391C495.034 543.625 493.856 544.844 492.815 546.303C491.786 547.748 489.742 550.958 489.346 555.512L521.226 558.284ZM507.328 545.262C509.221 545.103 511.69 545.37 514.207 546.646C516.698 547.908 518.399 549.732 519.451 551.408C521.321 554.39 521.336 557.055 521.223 558.317L489.349 555.479C489.053 558.806 489.41 563.739 492.343 568.414C495.982 574.213 502.555 577.775 510.006 577.149L507.328 545.262ZM500.266 547.831C499.972 548.111 499.889 548.188 499.844 548.229C499.804 548.265 500.013 548.071 500.384 547.796C500.965 547.367 503.441 545.587 507.331 545.261L510.003 577.15C514.719 576.754 517.992 574.575 519.422 573.517C520.808 572.491 522.034 571.289 522.32 571.017L500.266 547.831ZM531.175 533.024C531.475 533.305 531.643 533.464 531.799 533.617C531.94 533.756 532.017 533.838 532.058 533.884L555.88 512.518C554.718 511.222 553.6 510.185 553.067 509.684L531.175 533.024ZM524.256 520.837C524.894 525.612 527.301 528.819 528.447 530.2C529.573 531.558 530.87 532.738 531.175 533.024L553.067 509.684C552.763 509.399 552.675 509.315 552.626 509.266C552.582 509.223 552.782 509.415 553.073 509.766C553.512 510.295 555.45 512.685 555.973 516.597L524.256 520.837ZM547.643 500.023C543.399 499.068 537.722 499.278 532.581 502.581C526.368 506.573 523.301 513.637 524.253 520.82L555.976 516.614C556.227 518.507 556.086 521.035 554.893 523.676C553.699 526.32 551.819 528.256 549.878 529.503C546.319 531.79 542.821 531.738 540.621 531.243L547.643 500.023ZM557.88 505.854C557.577 505.572 556.443 504.483 555.097 503.489C553.706 502.46 551.161 500.81 547.626 500.019L540.638 531.247C538.129 530.685 536.545 529.568 536.08 529.225C535.804 529.021 535.649 528.881 535.668 528.898C535.699 528.925 535.76 528.981 536.012 529.217L557.88 505.854ZM557.482 505.495L557.482 505.495L536.41 529.577L536.41 529.577L557.482 505.495ZM557.97 505.967C558.069 506.044 558.14 506.102 558.179 506.135C558.217 506.167 558.233 506.182 558.219 506.17C558.206 506.158 558.175 506.129 558.116 506.075C558.086 506.048 558.053 506.017 558.014 505.98C557.973 505.942 557.931 505.903 557.88 505.855L536.012 529.217C536.302 529.488 537.246 530.388 538.343 531.24L557.97 505.967ZM558.832 530.643C559.229 530.207 559.608 529.793 559.987 529.376L536.327 507.831C535.959 508.235 535.591 508.639 535.192 509.076L558.832 530.643ZM558.854 530.619L558.856 530.617L535.168 509.102L535.166 509.104L558.854 530.619ZM555.816 533.956C557.073 532.571 558.001 531.554 558.83 530.645L535.189 509.078C534.357 509.99 533.408 511.031 532.123 512.446L555.816 533.956ZM585.662 507.876C584.913 506.999 584.228 506.246 583.755 505.726L560.073 527.247C560.568 527.791 560.939 528.202 561.323 528.652L585.662 507.876ZM562.203 506.53C561.759 507.126 560.9 508.272 560.052 509.584L586.934 526.944C587.009 526.827 587.118 526.667 587.278 526.445C587.445 526.212 587.619 525.977 587.869 525.642L562.203 506.53ZM562.632 521.952C559.249 516.338 560.563 511.026 560.988 509.568C561.512 507.775 562.236 506.583 562.357 506.382C562.63 505.923 562.841 505.674 562.203 506.53L587.869 525.642C588.105 525.324 589.073 524.058 589.832 522.786C590.195 522.178 591.094 520.631 591.705 518.539C592.218 516.783 593.531 511.23 590.041 505.437L562.632 521.952ZM567.229 525.527C565.785 525.05 564.867 524.406 564.358 523.984C563.834 523.549 563.191 522.893 562.581 521.868L590.091 505.522C587.431 501.044 582.857 496.99 577.268 495.143L567.229 525.527ZM583.804 506.285C585.795 510.562 585.306 514.373 585.013 515.919C584.678 517.684 584.114 518.982 583.823 519.601C583.225 520.873 582.606 521.713 582.431 521.949C581.979 522.557 581.651 522.876 581.543 522.98C581.455 523.065 581.026 523.48 580.228 524.002C579.866 524.238 578.892 524.854 577.457 525.383C576.572 525.709 572.425 527.223 567.285 525.546L577.211 495.124C571.903 493.392 567.532 494.936 566.384 495.36C564.686 495.986 563.41 496.765 562.726 497.212C561.282 498.156 560.122 499.184 559.356 499.92C558.572 500.675 557.62 501.686 556.738 502.873C556.348 503.399 555.562 504.501 554.863 505.987C554.522 506.713 553.924 508.108 553.573 509.955C553.265 511.582 552.778 515.46 554.793 519.789L583.804 506.285ZM583.755 505.726C583.605 505.561 583.483 505.426 583.368 505.299C583.255 505.174 583.167 505.075 583.093 504.991C582.94 504.817 582.898 504.763 582.913 504.783C582.944 504.822 583.38 505.37 583.815 506.308L554.782 519.766C556.557 523.595 559.365 526.467 560.073 527.247L583.755 505.726Z" fill="#F0E9DF" mask="url(#path-2-outside-1_101_13)"/>
</svg>
