<svg width="1080" height="1080" viewBox="0 0 1080 1080" fill="none" xmlns="http://www.w3.org/2000/svg">
<rect width="1080" height="1080" fill="white"/>
<path d="M525.717 558.415L524.127 603.639C522.657 606.541 519.479 613.221 518.534 616.731C517.354 621.119 515.268 622.03 512.398 621.93C509.527 621.829 502.503 623.058 498.043 621.425C493.584 619.792 489.927 618.679 486.75 615.614C483.572 612.55 476.059 598.505 474.01 592.527C471.962 586.549 475.116 561.067 475.479 550.744C475.842 540.421 480.901 536.661 482.423 534.254C483.945 531.847 490.321 525.673 493.192 525.773C496.063 525.874 504.898 525.693 505.906 526.22C506.713 526.642 514.511 532.593 518.309 535.515L525.717 558.415Z" fill="#F0E9DF"/>
<mask id="path-2-outside-1_101_39" maskUnits="userSpaceOnUse" x="433" y="440" width="124" height="199" fill="black">
<rect fill="white" x="433" y="440" width="124" height="199"/>
<path fill-rule="evenodd" clip-rule="evenodd" d="M500.215 466.246C500.907 465.728 501.602 465.173 502.299 464.616C505.876 461.757 509.501 458.86 513 460.814C515.638 462.292 517.268 469.754 516.992 472.874C516.801 475.066 517.671 476.092 519.525 476.792C522.354 477.86 523.535 479.685 523.464 482.981C523.327 489.753 523.379 496.531 523.431 503.309L523.431 503.312C523.46 507.018 523.488 510.724 523.486 514.429C523.486 516.402 523.705 517.654 525.869 518.814C532.723 522.485 539.662 537.176 538.226 544.794C537.745 547.34 536.493 549.943 534.923 552.016C533.501 553.89 533.374 555.277 534.081 557.406C538.177 569.812 539.471 582.706 540.412 595.65C540.907 602.434 537.957 607.413 532.624 611.31C520.621 620.074 507.493 624.431 492.477 622.182C486.083 621.22 479.625 620.456 473.167 620.145C467.522 619.876 464.417 616.813 462.14 612.173C458.794 605.348 457.768 597.999 457.457 590.565C457.304 586.848 457.342 583.127 457.38 579.403C457.408 576.763 457.435 574.122 457.394 571.481C457.379 570.35 457.005 568.836 456.219 568.157C449.96 562.732 448.22 553.706 451.94 546.385C452.496 545.292 452.188 544.02 451.877 542.735C451.689 541.959 451.5 541.177 451.5 540.429C451.493 531.963 451.862 523.503 452.232 515.042L452.232 515.042C452.622 506.091 453.013 497.139 452.959 488.18C452.93 483.766 454.791 480.47 458.341 477.733C459.67 476.705 460.767 475.382 461.867 474.056C462.81 472.919 463.755 471.779 464.849 470.822C465.618 470.149 466.402 469.505 467.183 468.864C469.469 466.988 471.737 465.126 473.577 462.554C476.675 458.225 480.506 455.46 485.5 457.929C485.71 458.034 486.039 458.609 486.387 459.219C486.834 460.004 487.315 460.846 487.617 460.814C494.217 460.156 496.473 461.068 500.215 466.246ZM508.339 576.863L508.339 576.862L508.339 576.862C507.941 576.057 507.627 575.422 507.366 574.763C505.223 569.289 503.101 563.8 501 558.304C500.137 556.055 498.8 555.291 496.353 556.118C494.475 556.751 492.566 557.301 490.659 557.851L490.658 557.851L490.658 557.851C488.047 558.603 485.436 559.355 482.907 560.32C481.464 560.871 480.042 562.611 479.469 564.132C477.875 568.332 476.433 572.586 474.99 576.842C474.283 578.93 473.575 581.019 472.849 583.103C472.702 583.525 472.438 583.903 472.109 584.375C471.931 584.63 471.734 584.913 471.526 585.246C469.66 580.323 470.426 575.704 471.182 571.15C471.509 569.18 471.834 567.222 471.943 565.257C465.528 566.346 464.127 567.612 464.092 573.483C464.088 574.227 464.083 574.971 464.077 575.716L464.077 575.717C464.029 582.627 463.981 589.568 464.785 596.393C465.307 600.837 467.135 605.18 468.912 609.403L468.914 609.407L468.918 609.417C469.088 609.82 469.257 610.223 469.425 610.624C469.97 611.926 472.113 613.128 473.669 613.348C477.636 613.918 481.624 614.335 485.611 614.753L485.611 614.753L485.612 614.753L485.612 614.753C488.649 615.071 491.685 615.388 494.712 615.774C508.207 617.485 519.723 613.029 530.085 604.761C532.546 602.794 533.94 600.319 533.622 597.1C533.408 594.985 533.209 592.867 533.009 590.75L533.009 590.75L533.009 590.749L533.009 590.749L533.008 590.748C532.445 584.781 531.882 578.815 531.026 572.896C530.463 569.005 529.359 565.185 528.258 561.378L528.258 561.378C528.016 560.542 527.774 559.706 527.539 558.87C527.27 557.929 526.188 556.543 525.445 556.514C520.64 556.369 515.831 556.383 510.87 556.399H510.869H510.869H510.868C509.323 556.403 507.763 556.408 506.185 556.408L506.286 556.683C508.657 563.093 511.225 570.037 509.07 578.363C508.798 577.792 508.556 577.302 508.339 576.863L508.339 576.863L508.339 576.863ZM460.096 539.043C460.367 539.043 460.575 539.056 460.738 539.066C461 539.082 461.147 539.09 461.256 539.029C474.44 531.645 488.282 525.795 502.747 521.424C504.614 520.858 504.826 519.734 504.254 518.213C503.899 517.273 503.564 516.322 503.229 515.371L503.229 515.371C502.348 512.871 501.467 510.368 500.222 508.063C492.929 494.567 482.454 485.308 466.476 483.964C460.159 483.434 460.124 483.59 459.558 489.955C458.08 506.295 458.745 522.605 460.096 539.043ZM463.703 545.317C463.809 545.721 463.915 546.124 464.021 546.52C464.79 546.52 465.559 546.533 466.327 546.547C467.983 546.576 469.638 546.605 471.285 546.499C483.564 545.699 495.702 546.272 507.818 548.734C512.741 549.736 517.894 549.785 522.967 549.834C523.303 549.838 523.639 549.841 523.974 549.844C529.724 549.901 532.737 546.718 531.592 541.088C530.914 537.784 529.357 534.634 527.818 531.519C527.429 530.732 527.041 529.947 526.669 529.162C524.745 525.123 521.583 524.006 517.077 524.855C502.026 527.684 487.914 533.116 474.214 539.751C471.792 540.923 469.425 542.213 467.059 543.504L467.059 543.504C465.942 544.112 464.825 544.721 463.703 545.317ZM514.5 485.929C513.07 486.158 511.814 486.317 510.672 486.462C506.702 486.966 504.111 487.294 500.37 489.772C498.065 491.299 497.506 492.643 499.606 495.048C504.607 500.792 507.868 507.561 510.146 514.797L510.159 514.839C511.68 519.656 511.681 519.658 516.632 517.845C516.632 512.123 516.106 507.133 515.577 502.11L515.577 502.109C515.04 497.017 514.5 491.889 514.5 485.929ZM456.347 552.369C456.495 553.046 456.634 553.748 456.776 554.466C457.17 556.455 457.588 558.562 458.285 560.574C458.532 561.289 460.626 562.081 461.447 561.756C466.708 559.672 471.906 557.44 477.106 555.207L477.107 555.207C478.632 554.552 480.156 553.898 481.683 553.246C479.094 553.015 476.561 553.106 474.051 553.196C472.576 553.249 471.11 553.302 469.644 553.289C466.867 553.265 464.09 553.023 460.929 552.748L460.928 552.748L460.928 552.748L460.927 552.748C459.492 552.623 457.977 552.491 456.347 552.369ZM492.632 487.395C494.813 485.785 496.975 484.186 499.129 482.594L501.552 480.803C501.502 480.58 501.454 480.355 501.407 480.131C501.359 479.906 501.311 479.682 501.262 479.459C498.213 482.925 495.702 482.741 493.29 479.466C492.887 478.921 490.899 478.914 490.114 479.409C487.745 480.895 485.87 480.329 484.109 478.596C482.079 476.601 480.686 477.231 479.497 479.544C483.826 482.125 488.105 484.686 492.632 487.395ZM478.578 466.43C478.567 466.596 478.558 466.764 478.55 466.932C478.541 467.1 478.532 467.268 478.521 467.434C478.77 467.636 479.009 467.866 479.249 468.096L479.249 468.096C479.773 468.599 480.298 469.102 480.919 469.316C483.989 470.377 487.094 471.431 490.27 471.954C490.676 472.022 491.27 470.925 491.864 469.826L491.864 469.826C492.141 469.316 492.417 468.805 492.675 468.41C492.349 468.289 492.015 468.121 491.682 467.953C490.952 467.586 490.222 467.219 489.577 467.335C486.726 467.852 484.109 468.142 481.556 466.218C481.154 465.908 480.383 466.075 479.61 466.244C479.255 466.321 478.899 466.399 478.578 466.43ZM507.811 478.37C510.499 477.103 510.605 474.635 509.912 472.548C509.699 471.909 508.638 471.548 507.423 471.135C506.824 470.932 506.188 470.716 505.597 470.448C506.183 472.545 506.647 474.206 507.103 475.837L507.104 475.838L507.116 475.881C507.345 476.7 507.572 477.512 507.811 478.37ZM474.447 473.857C471.37 473.291 469.913 474.89 468.35 476.912C472.24 478.865 473.605 477.111 474.447 473.857ZM472.742 492.106C473.249 492.818 473.77 493.434 474.231 493.981C475.118 495.03 475.785 495.819 475.706 496.526C475.579 497.672 473.832 499.441 472.771 499.448C471.738 499.462 469.984 497.679 469.849 496.533C469.76 495.827 470.42 495.028 471.296 493.967C471.745 493.423 472.251 492.81 472.742 492.106ZM470.383 525.663C470.928 525.217 471.544 524.714 472.254 524.225C471.539 523.72 470.919 523.201 470.37 522.741C469.311 521.854 468.513 521.185 467.791 521.254C466.659 521.375 464.926 523.136 464.891 524.218C464.863 525.215 466.673 526.977 467.812 527.097C468.531 527.176 469.326 526.526 470.383 525.663ZM491.161 516.056C490.451 516.574 489.841 517.101 489.303 517.566C488.272 518.457 487.506 519.12 486.804 519.055C486 518.981 485.262 518.151 484.525 517.322C484.204 516.962 483.883 516.601 483.557 516.303C483.86 515.977 484.153 515.585 484.447 515.194C485.119 514.297 485.792 513.399 486.584 513.276C487.286 513.164 488.105 513.793 489.211 514.644L489.211 514.644C489.778 515.08 490.42 515.574 491.161 516.056ZM513.108 495.251C512.684 494.677 512.204 494.026 511.744 493.28C511.192 493.98 510.632 494.581 510.137 495.112C509.19 496.126 508.484 496.884 508.54 497.58C508.609 498.403 509.455 499.163 510.302 499.924C510.672 500.256 511.042 500.588 511.348 500.926C511.676 500.621 512.068 500.327 512.46 500.032C513.359 499.356 514.261 498.678 514.403 497.87C514.529 497.178 513.921 496.353 513.108 495.251Z"/>
</mask>
<path fill-rule="evenodd" clip-rule="evenodd" d="M500.215 466.246C500.907 465.728 501.602 465.173 502.299 464.616C505.876 461.757 509.501 458.86 513 460.814C515.638 462.292 517.268 469.754 516.992 472.874C516.801 475.066 517.671 476.092 519.525 476.792C522.354 477.86 523.535 479.685 523.464 482.981C523.327 489.753 523.379 496.531 523.431 503.309L523.431 503.312C523.46 507.018 523.488 510.724 523.486 514.429C523.486 516.402 523.705 517.654 525.869 518.814C532.723 522.485 539.662 537.176 538.226 544.794C537.745 547.34 536.493 549.943 534.923 552.016C533.501 553.89 533.374 555.277 534.081 557.406C538.177 569.812 539.471 582.706 540.412 595.65C540.907 602.434 537.957 607.413 532.624 611.31C520.621 620.074 507.493 624.431 492.477 622.182C486.083 621.22 479.625 620.456 473.167 620.145C467.522 619.876 464.417 616.813 462.14 612.173C458.794 605.348 457.768 597.999 457.457 590.565C457.304 586.848 457.342 583.127 457.38 579.403C457.408 576.763 457.435 574.122 457.394 571.481C457.379 570.35 457.005 568.836 456.219 568.157C449.96 562.732 448.22 553.706 451.94 546.385C452.496 545.292 452.188 544.02 451.877 542.735C451.689 541.959 451.5 541.177 451.5 540.429C451.493 531.963 451.862 523.503 452.232 515.042L452.232 515.042C452.622 506.091 453.013 497.139 452.959 488.18C452.93 483.766 454.791 480.47 458.341 477.733C459.67 476.705 460.767 475.382 461.867 474.056C462.81 472.919 463.755 471.779 464.849 470.822C465.618 470.149 466.402 469.505 467.183 468.864C469.469 466.988 471.737 465.126 473.577 462.554C476.675 458.225 480.506 455.46 485.5 457.929C485.71 458.034 486.039 458.609 486.387 459.219C486.834 460.004 487.315 460.846 487.617 460.814C494.217 460.156 496.473 461.068 500.215 466.246ZM508.339 576.863L508.339 576.862L508.339 576.862C507.941 576.057 507.627 575.422 507.366 574.763C505.223 569.289 503.101 563.8 501 558.304C500.137 556.055 498.8 555.291 496.353 556.118C494.475 556.751 492.566 557.301 490.659 557.851L490.658 557.851L490.658 557.851C488.047 558.603 485.436 559.355 482.907 560.32C481.464 560.871 480.042 562.611 479.469 564.132C477.875 568.332 476.433 572.586 474.99 576.842C474.283 578.93 473.575 581.019 472.849 583.103C472.702 583.525 472.438 583.903 472.109 584.375C471.931 584.63 471.734 584.913 471.526 585.246C469.66 580.323 470.426 575.704 471.182 571.15C471.509 569.18 471.834 567.222 471.943 565.257C465.528 566.346 464.127 567.612 464.092 573.483C464.088 574.227 464.083 574.971 464.077 575.716L464.077 575.717C464.029 582.627 463.981 589.568 464.785 596.393C465.307 600.837 467.135 605.18 468.912 609.403L468.914 609.407L468.918 609.417C469.088 609.82 469.257 610.223 469.425 610.624C469.97 611.926 472.113 613.128 473.669 613.348C477.636 613.918 481.624 614.335 485.611 614.753L485.611 614.753L485.612 614.753L485.612 614.753C488.649 615.071 491.685 615.388 494.712 615.774C508.207 617.485 519.723 613.029 530.085 604.761C532.546 602.794 533.94 600.319 533.622 597.1C533.408 594.985 533.209 592.867 533.009 590.75L533.009 590.75L533.009 590.749L533.009 590.749L533.008 590.748C532.445 584.781 531.882 578.815 531.026 572.896C530.463 569.005 529.359 565.185 528.258 561.378L528.258 561.378C528.016 560.542 527.774 559.706 527.539 558.87C527.27 557.929 526.188 556.543 525.445 556.514C520.64 556.369 515.831 556.383 510.87 556.399H510.869H510.869H510.868C509.323 556.403 507.763 556.408 506.185 556.408L506.286 556.683C508.657 563.093 511.225 570.037 509.07 578.363C508.798 577.792 508.556 577.302 508.339 576.863L508.339 576.863L508.339 576.863ZM460.096 539.043C460.367 539.043 460.575 539.056 460.738 539.066C461 539.082 461.147 539.09 461.256 539.029C474.44 531.645 488.282 525.795 502.747 521.424C504.614 520.858 504.826 519.734 504.254 518.213C503.899 517.273 503.564 516.322 503.229 515.371L503.229 515.371C502.348 512.871 501.467 510.368 500.222 508.063C492.929 494.567 482.454 485.308 466.476 483.964C460.159 483.434 460.124 483.59 459.558 489.955C458.08 506.295 458.745 522.605 460.096 539.043ZM463.703 545.317C463.809 545.721 463.915 546.124 464.021 546.52C464.79 546.52 465.559 546.533 466.327 546.547C467.983 546.576 469.638 546.605 471.285 546.499C483.564 545.699 495.702 546.272 507.818 548.734C512.741 549.736 517.894 549.785 522.967 549.834C523.303 549.838 523.639 549.841 523.974 549.844C529.724 549.901 532.737 546.718 531.592 541.088C530.914 537.784 529.357 534.634 527.818 531.519C527.429 530.732 527.041 529.947 526.669 529.162C524.745 525.123 521.583 524.006 517.077 524.855C502.026 527.684 487.914 533.116 474.214 539.751C471.792 540.923 469.425 542.213 467.059 543.504L467.059 543.504C465.942 544.112 464.825 544.721 463.703 545.317ZM514.5 485.929C513.07 486.158 511.814 486.317 510.672 486.462C506.702 486.966 504.111 487.294 500.37 489.772C498.065 491.299 497.506 492.643 499.606 495.048C504.607 500.792 507.868 507.561 510.146 514.797L510.159 514.839C511.68 519.656 511.681 519.658 516.632 517.845C516.632 512.123 516.106 507.133 515.577 502.11L515.577 502.109C515.04 497.017 514.5 491.889 514.5 485.929ZM456.347 552.369C456.495 553.046 456.634 553.748 456.776 554.466C457.17 556.455 457.588 558.562 458.285 560.574C458.532 561.289 460.626 562.081 461.447 561.756C466.708 559.672 471.906 557.44 477.106 555.207L477.107 555.207C478.632 554.552 480.156 553.898 481.683 553.246C479.094 553.015 476.561 553.106 474.051 553.196C472.576 553.249 471.11 553.302 469.644 553.289C466.867 553.265 464.09 553.023 460.929 552.748L460.928 552.748L460.928 552.748L460.927 552.748C459.492 552.623 457.977 552.491 456.347 552.369ZM492.632 487.395C494.813 485.785 496.975 484.186 499.129 482.594L501.552 480.803C501.502 480.58 501.454 480.355 501.407 480.131C501.359 479.906 501.311 479.682 501.262 479.459C498.213 482.925 495.702 482.741 493.29 479.466C492.887 478.921 490.899 478.914 490.114 479.409C487.745 480.895 485.87 480.329 484.109 478.596C482.079 476.601 480.686 477.231 479.497 479.544C483.826 482.125 488.105 484.686 492.632 487.395ZM478.578 466.43C478.567 466.596 478.558 466.764 478.55 466.932C478.541 467.1 478.532 467.268 478.521 467.434C478.77 467.636 479.009 467.866 479.249 468.096L479.249 468.096C479.773 468.599 480.298 469.102 480.919 469.316C483.989 470.377 487.094 471.431 490.27 471.954C490.676 472.022 491.27 470.925 491.864 469.826L491.864 469.826C492.141 469.316 492.417 468.805 492.675 468.41C492.349 468.289 492.015 468.121 491.682 467.953C490.952 467.586 490.222 467.219 489.577 467.335C486.726 467.852 484.109 468.142 481.556 466.218C481.154 465.908 480.383 466.075 479.61 466.244C479.255 466.321 478.899 466.399 478.578 466.43ZM507.811 478.37C510.499 477.103 510.605 474.635 509.912 472.548C509.699 471.909 508.638 471.548 507.423 471.135C506.824 470.932 506.188 470.716 505.597 470.448C506.183 472.545 506.647 474.206 507.103 475.837L507.104 475.838L507.116 475.881C507.345 476.7 507.572 477.512 507.811 478.37ZM474.447 473.857C471.37 473.291 469.913 474.89 468.35 476.912C472.24 478.865 473.605 477.111 474.447 473.857ZM472.742 492.106C473.249 492.818 473.77 493.434 474.231 493.981C475.118 495.03 475.785 495.819 475.706 496.526C475.579 497.672 473.832 499.441 472.771 499.448C471.738 499.462 469.984 497.679 469.849 496.533C469.76 495.827 470.42 495.028 471.296 493.967C471.745 493.423 472.251 492.81 472.742 492.106ZM470.383 525.663C470.928 525.217 471.544 524.714 472.254 524.225C471.539 523.72 470.919 523.201 470.37 522.741C469.311 521.854 468.513 521.185 467.791 521.254C466.659 521.375 464.926 523.136 464.891 524.218C464.863 525.215 466.673 526.977 467.812 527.097C468.531 527.176 469.326 526.526 470.383 525.663ZM491.161 516.056C490.451 516.574 489.841 517.101 489.303 517.566C488.272 518.457 487.506 519.12 486.804 519.055C486 518.981 485.262 518.151 484.525 517.322C484.204 516.962 483.883 516.601 483.557 516.303C483.86 515.977 484.153 515.585 484.447 515.194C485.119 514.297 485.792 513.399 486.584 513.276C487.286 513.164 488.105 513.793 489.211 514.644L489.211 514.644C489.778 515.08 490.42 515.574 491.161 516.056ZM513.108 495.251C512.684 494.677 512.204 494.026 511.744 493.28C511.192 493.98 510.632 494.581 510.137 495.112C509.19 496.126 508.484 496.884 508.54 497.58C508.609 498.403 509.455 499.163 510.302 499.924C510.672 500.256 511.042 500.588 511.348 500.926C511.676 500.621 512.068 500.327 512.46 500.032C513.359 499.356 514.261 498.678 514.403 497.87C514.529 497.178 513.921 496.353 513.108 495.251Z" fill="#1F1C1C"/>
<path d="M502.299 464.616L492.311 452.116L492.311 452.116L502.299 464.616ZM500.215 466.246L487.247 475.618L496.776 488.804L509.801 479.056L500.215 466.246ZM513 460.814L520.821 446.856L520.811 446.85L520.8 446.844L513 460.814ZM516.992 472.874L501.055 471.464L501.054 471.475L501.053 471.485L516.992 472.874ZM519.525 476.792L513.869 491.759L513.874 491.761L519.525 476.792ZM523.464 482.981L507.468 482.638L507.468 482.648L507.468 482.657L523.464 482.981ZM523.431 503.309L507.432 503.432L507.432 503.441L507.432 503.45L523.431 503.309ZM523.431 503.312L539.431 503.189L539.431 503.181L539.431 503.172L523.431 503.312ZM523.486 514.429L507.486 514.418V514.429H523.486ZM525.869 518.814L518.311 532.916L518.315 532.918L525.869 518.814ZM538.226 544.794L553.948 547.764L553.949 547.758L538.226 544.794ZM534.923 552.016L547.671 561.685L547.676 561.678L534.923 552.016ZM534.081 557.406L549.275 552.39L549.27 552.376L549.265 552.361L534.081 557.406ZM540.412 595.65L524.454 596.81L524.454 596.815L540.412 595.65ZM532.624 611.31L542.059 624.233L542.064 624.229L532.624 611.31ZM492.477 622.182L490.096 638.004L490.107 638.005L492.477 622.182ZM473.167 620.145L473.937 604.163L473.928 604.163L473.167 620.145ZM462.14 612.173L447.773 619.215L447.777 619.223L462.14 612.173ZM457.457 590.565L441.471 591.223L441.471 591.234L457.457 590.565ZM457.38 579.403L441.381 579.239L441.381 579.239L457.38 579.403ZM457.394 571.481L441.395 571.681L441.395 571.706L441.396 571.73L457.394 571.481ZM456.219 568.157L445.741 580.248L445.747 580.253L445.753 580.259L456.219 568.157ZM451.94 546.385L466.204 553.634L466.205 553.633L451.94 546.385ZM451.877 542.735L467.428 538.973L467.428 538.973L451.877 542.735ZM451.5 540.429L467.5 540.429L467.5 540.416L451.5 540.429ZM452.232 515.042L468.217 515.739L468.217 515.723L468.218 515.708L452.232 515.042ZM452.232 515.042L436.247 514.344L436.246 514.36L436.246 514.375L452.232 515.042ZM452.959 488.18L468.958 488.083L468.958 488.078L452.959 488.18ZM458.341 477.733L468.11 490.405L468.121 490.396L468.132 490.388L458.341 477.733ZM461.867 474.056L474.183 484.269L474.183 484.269L461.867 474.056ZM464.849 470.822L475.382 482.866L475.391 482.858L464.849 470.822ZM467.183 468.864L457.032 456.496L457.032 456.496L467.183 468.864ZM473.577 462.554L460.566 453.242L460.563 453.246L473.577 462.554ZM485.5 457.929L492.655 443.618L492.623 443.602L492.59 443.585L485.5 457.929ZM486.387 459.219L500.283 451.289L500.283 451.289L486.387 459.219ZM487.617 460.814L486.03 444.893L485.986 444.897L485.942 444.902L487.617 460.814ZM508.339 576.862L493.996 583.954L494.012 583.986L494.028 584.018L508.339 576.862ZM507.366 574.763L492.467 580.596L492.478 580.624L492.489 580.652L507.366 574.763ZM501 558.304L515.945 552.591L515.942 552.582L515.938 552.573L501 558.304ZM496.353 556.118L501.463 571.28L501.471 571.278L501.478 571.275L496.353 556.118ZM490.659 557.851L494.973 573.258L495.03 573.242L495.088 573.225L490.659 557.851ZM490.658 557.851L486.344 542.443L486.303 542.455L486.262 542.466L490.658 557.851ZM490.658 557.851L486.262 542.466L486.245 542.471L486.228 542.476L490.658 557.851ZM482.907 560.32L477.207 545.369L477.2 545.372L477.192 545.375L482.907 560.32ZM479.469 564.132L494.427 569.811L494.435 569.792L494.442 569.773L479.469 564.132ZM474.99 576.842L490.144 581.978L490.144 581.978L474.99 576.842ZM472.849 583.103L457.74 577.836L457.737 577.846L472.849 583.103ZM472.109 584.375L485.237 593.522L485.237 593.522L472.109 584.375ZM471.526 585.246L456.565 590.918L467.98 621.026L485.082 593.744L471.526 585.246ZM471.182 571.15L486.966 573.77L486.966 573.77L471.182 571.15ZM471.943 565.257L487.919 566.142L489.028 546.127L469.265 549.483L471.943 565.257ZM464.092 573.483L448.092 573.387L448.092 573.394L464.092 573.483ZM464.077 575.716L480.077 575.836L480.077 575.828L464.077 575.716ZM464.077 575.717L448.078 575.597L448.078 575.606L464.077 575.717ZM464.785 596.393L480.676 594.525L480.675 594.52L464.785 596.393ZM468.912 609.403L483.66 603.198L483.66 603.197L468.912 609.403ZM468.914 609.407L454.166 615.612L454.171 615.624L468.914 609.407ZM468.918 609.417L483.666 603.211L483.661 603.2L468.918 609.417ZM469.425 610.624L454.662 616.793L454.665 616.801L469.425 610.624ZM473.669 613.348L475.945 597.51L475.923 597.507L475.902 597.504L473.669 613.348ZM485.611 614.753L488.044 598.939L487.662 598.88L487.277 598.839L485.611 614.753ZM485.611 614.753L483.179 630.567L483.337 630.591L483.497 630.612L485.611 614.753ZM485.612 614.753L483.497 630.612L483.62 630.629L483.742 630.643L485.612 614.753ZM485.612 614.753L483.743 630.643L483.844 630.655L483.946 630.666L485.612 614.753ZM494.712 615.774L492.692 631.646L492.699 631.646L494.712 615.774ZM530.085 604.761L540.064 617.267L540.071 617.262L530.085 604.761ZM533.622 597.1L549.544 595.526L549.542 595.511L549.541 595.497L533.622 597.1ZM533.009 590.75L517.074 592.199L517.077 592.226L517.079 592.254L533.009 590.75ZM533.009 590.749L517.07 592.155L517.072 592.176L517.074 592.197L533.009 590.749ZM533.008 590.748L548.947 589.342L548.942 589.293L548.938 589.244L533.008 590.748ZM531.026 572.896L515.19 575.185L515.19 575.186L531.026 572.896ZM528.258 561.378L512.874 565.774L512.881 565.798L512.888 565.823L528.258 561.378ZM528.258 561.378L543.642 556.983L543.635 556.958L543.628 556.934L528.258 561.378ZM527.539 558.87L542.938 554.527L542.93 554.5L542.923 554.474L527.539 558.87ZM525.445 556.514L526.054 540.526L525.992 540.524L525.93 540.522L525.445 556.514ZM510.87 556.399V572.399H510.894L510.919 572.399L510.87 556.399ZM510.868 556.399V540.399H510.843L510.819 540.399L510.868 556.399ZM506.185 556.408V540.408H483.209L491.178 561.958L506.185 556.408ZM506.286 556.683L491.279 562.232L491.28 562.233L506.286 556.683ZM509.07 578.363L494.623 585.24L513.535 624.973L524.56 582.372L509.07 578.363ZM508.339 576.863L522.682 569.771L522.666 569.74L522.65 569.708L508.339 576.863ZM460.738 539.066L459.777 555.037L459.777 555.037L460.738 539.066ZM460.096 539.043L444.149 540.354L445.357 555.043H460.096V539.043ZM461.256 539.029L469.073 552.99L469.074 552.989L461.256 539.029ZM502.747 521.424L507.375 536.74L507.387 536.737L502.747 521.424ZM504.254 518.213L519.226 512.572L519.222 512.561L504.254 518.213ZM503.229 515.371L488.05 520.43L488.092 520.559L488.137 520.686L503.229 515.371ZM503.229 515.371L518.408 510.311L518.365 510.183L518.32 510.056L503.229 515.371ZM500.222 508.063L514.3 500.46L514.298 500.457L500.222 508.063ZM466.476 483.964L467.817 468.021L467.815 468.021L466.476 483.964ZM459.558 489.955L475.493 491.397L475.494 491.385L475.495 491.372L459.558 489.955ZM464.021 546.52L448.566 550.66L451.743 562.52H464.021V546.52ZM463.703 545.317L456.196 531.188L445.005 537.134L448.23 549.389L463.703 545.317ZM466.327 546.547L466.046 562.544L466.046 562.544L466.327 546.547ZM471.285 546.499L472.315 562.465L472.325 562.465L471.285 546.499ZM507.818 548.734L511.009 533.055L511.004 533.054L507.818 548.734ZM522.967 549.834L522.813 565.834L522.813 565.834L522.967 549.834ZM523.974 549.844L523.806 565.843L523.816 565.844L523.974 549.844ZM531.592 541.088L547.27 537.897L547.268 537.885L547.265 537.873L531.592 541.088ZM527.818 531.519L542.162 524.43L542.162 524.43L527.818 531.519ZM526.669 529.162L541.124 522.303L541.118 522.292L541.113 522.281L526.669 529.162ZM517.077 524.855L520.033 540.579L520.039 540.578L517.077 524.855ZM474.214 539.751L481.186 554.152L481.187 554.151L474.214 539.751ZM467.059 543.504L459.4 529.455L458.776 529.796L458.183 530.191L467.059 543.504ZM467.059 543.504L474.717 557.552L475.342 557.211L475.934 556.816L467.059 543.504ZM510.672 486.462L508.658 470.589L508.658 470.589L510.672 486.462ZM514.5 485.929H530.5V467.161L511.969 470.13L514.5 485.929ZM500.37 489.772L491.536 476.432L491.533 476.434L500.37 489.772ZM499.606 495.048L511.673 484.542L511.665 484.532L511.656 484.522L499.606 495.048ZM510.146 514.797L494.884 519.6L494.886 519.608L494.889 519.616L510.146 514.797ZM510.159 514.839L525.416 510.02L525.416 510.02L510.159 514.839ZM516.632 517.845L522.132 532.87L532.632 529.026V517.845H516.632ZM515.577 502.11L531.489 500.433L531.426 499.837L531.319 499.247L515.577 502.11ZM515.577 502.109L499.665 503.786L499.728 504.382L499.835 504.972L515.577 502.109ZM456.776 554.466L441.081 557.576L441.081 557.576L456.776 554.466ZM456.347 552.369L457.536 536.414L436.127 534.818L440.717 555.79L456.347 552.369ZM458.285 560.574L443.165 565.809L443.167 565.813L458.285 560.574ZM461.447 561.756L455.555 546.88L455.548 546.882L461.447 561.756ZM477.106 555.207L470.923 540.45L470.858 540.477L470.794 540.505L477.106 555.207ZM477.107 555.207L483.291 569.964L483.355 569.937L483.419 569.909L477.107 555.207ZM481.683 553.246L487.96 567.964L483.109 537.31L481.683 553.246ZM474.051 553.196L474.626 569.186L474.626 569.186L474.051 553.196ZM469.644 553.289L469.787 537.29L469.784 537.29L469.644 553.289ZM460.929 552.748L459.423 568.677L459.483 568.682L459.542 568.688L460.929 552.748ZM460.928 552.748L462.434 536.819L462.326 536.809L462.217 536.8L460.928 552.748ZM460.928 552.748L459.384 568.673L459.511 568.685L459.639 568.696L460.928 552.748ZM460.927 552.748L462.472 536.822L462.393 536.815L462.314 536.808L460.927 552.748ZM499.129 482.594L489.617 469.728L489.617 469.729L499.129 482.594ZM492.632 487.395L484.416 501.124L493.561 506.597L502.135 500.267L492.632 487.395ZM501.552 480.803L511.064 493.668L519.427 487.485L517.171 477.332L501.552 480.803ZM501.262 479.459L516.881 475.988L510.049 445.243L489.248 468.892L501.262 479.459ZM493.29 479.466L506.173 469.978L506.162 469.962L506.15 469.946L493.29 479.466ZM490.114 479.409L498.612 492.966L498.631 492.954L498.649 492.943L490.114 479.409ZM484.109 478.596L495.331 467.191L495.323 467.183L484.109 478.596ZM479.497 479.544L465.266 472.232L458.402 485.592L471.302 493.285L479.497 479.544ZM478.578 466.43L477.03 450.505L463.478 451.823L462.61 465.411L478.578 466.43ZM478.521 467.434L462.554 466.415L462.028 474.649L468.432 479.852L478.521 467.434ZM479.249 468.096L468.171 479.641L468.576 480.029L469.006 480.387L479.249 468.096ZM479.249 468.096L490.326 456.55L489.922 456.163L489.492 455.804L479.249 468.096ZM480.919 469.316L486.146 454.194L486.133 454.189L486.12 454.185L480.919 469.316ZM490.27 471.954L492.9 456.172L492.886 456.169L492.872 456.167L490.27 471.954ZM491.864 469.826L477.973 461.887L477.881 462.047L477.794 462.209L491.864 469.826ZM491.864 469.826L505.756 477.764L505.848 477.604L505.935 477.442L491.864 469.826ZM492.675 468.41L506.069 477.162L517.002 460.429L498.282 453.425L492.675 468.41ZM491.682 467.953L498.873 453.66L498.873 453.66L491.682 467.953ZM489.577 467.335L486.735 451.59L486.725 451.592L489.577 467.335ZM481.556 466.218L471.786 478.888L471.856 478.943L471.927 478.996L481.556 466.218ZM479.61 466.244L476.205 450.61L476.205 450.61L479.61 466.244ZM509.912 472.548L525.096 467.504L525.094 467.496L525.091 467.489L509.912 472.548ZM507.811 478.37L492.402 482.676L497.498 500.914L514.63 492.844L507.811 478.37ZM507.423 471.135L502.277 486.285L502.277 486.285L507.423 471.135ZM505.597 470.448L512.218 455.882L480.957 441.672L490.186 474.748L505.597 470.448ZM507.103 475.837L491.695 480.147L491.715 480.219L491.736 480.292L507.103 475.837ZM507.104 475.838L522.512 471.529L522.492 471.456L522.471 471.384L507.104 475.838ZM507.116 475.881L522.524 471.572L522.524 471.572L507.116 475.881ZM474.447 473.857L489.937 477.864L494.241 461.229L477.341 458.121L474.447 473.857ZM468.35 476.912L455.689 467.129L443.812 482.5L461.174 491.213L468.35 476.912ZM474.231 493.981L462.01 504.308L462.01 504.308L474.231 493.981ZM472.742 492.106L485.783 482.835L472.616 464.313L459.618 482.954L472.742 492.106ZM475.706 496.526L459.805 494.748L459.804 494.759L475.706 496.526ZM472.771 499.448L472.664 483.448L472.608 483.448L472.551 483.449L472.771 499.448ZM469.849 496.533L485.74 494.67L485.733 494.603L485.724 494.536L469.849 496.533ZM471.296 493.967L458.957 483.781L458.957 483.781L471.296 493.967ZM472.254 524.225L481.324 537.406L500.233 524.394L481.483 511.155L472.254 524.225ZM470.383 525.663L480.507 538.052L480.507 538.052L470.383 525.663ZM470.37 522.741L460.094 535.005L460.094 535.005L470.37 522.741ZM467.791 521.254L466.25 505.329L466.175 505.336L466.101 505.344L467.791 521.254ZM464.891 524.218L448.899 523.696L448.898 523.73L448.897 523.764L464.891 524.218ZM467.812 527.097L469.568 511.193L469.53 511.189L469.492 511.185L467.812 527.097ZM489.303 517.566L499.767 529.671L499.767 529.671L489.303 517.566ZM491.161 516.056L500.598 528.976L519.332 515.293L499.885 502.643L491.161 516.056ZM486.804 519.055L488.281 503.123L488.27 503.122L486.804 519.055ZM484.525 517.322L496.478 506.686L496.478 506.686L484.525 517.322ZM483.557 516.303L471.827 505.422L460.868 517.236L472.76 528.111L483.557 516.303ZM484.447 515.194L471.643 505.599L471.643 505.599L484.447 515.194ZM486.584 513.276L489.04 529.086L489.076 529.081L489.112 529.075L486.584 513.276ZM489.211 514.644L499.206 502.15L499.086 502.054L498.964 501.96L489.211 514.644ZM489.211 514.644L479.216 527.138L479.336 527.234L479.458 527.327L489.211 514.644ZM511.744 493.28L525.361 484.88L513.345 465.401L499.178 483.376L511.744 493.28ZM513.108 495.251L525.984 485.753L525.984 485.753L513.108 495.251ZM510.137 495.112L498.435 484.199L498.435 484.199L510.137 495.112ZM508.54 497.58L492.591 498.856L492.593 498.887L492.596 498.917L508.54 497.58ZM510.302 499.924L499.611 511.827L499.611 511.827L510.302 499.924ZM511.348 500.926L499.481 511.659L510.353 523.679L522.232 512.653L511.348 500.926ZM512.46 500.032L522.074 512.822L522.074 512.822L512.46 500.032ZM514.403 497.87L498.66 495.017L498.654 495.051L498.648 495.084L514.403 497.87ZM492.311 452.116C491.576 452.703 491.082 453.097 490.628 453.436L509.801 479.056C510.732 478.36 511.628 477.642 512.287 477.115L492.311 452.116ZM520.8 446.844C512.97 442.472 505.415 444.306 500.902 446.416C497.039 448.222 493.676 451.025 492.311 452.116L512.287 477.115C513.246 476.349 513.811 475.903 514.306 475.548C514.799 475.195 514.804 475.242 514.456 475.404C514.1 475.57 512.91 476.08 511.103 476.164C509.089 476.258 507 475.789 505.2 474.784L520.8 446.844ZM532.93 474.283C533.305 470.043 532.47 465.293 531.464 461.8C530.908 459.869 530.078 457.533 528.835 455.245C527.815 453.368 525.424 449.435 520.821 446.856L505.179 474.772C503.371 473.759 502.258 472.594 501.709 471.943C501.134 471.262 500.828 470.726 500.717 470.521C500.512 470.146 500.567 470.147 500.714 470.656C500.842 471.1 500.943 471.599 500.997 472.001C501.022 472.191 501.026 472.279 501.025 472.258C501.025 472.244 501.022 472.176 501.023 472.059C501.024 471.946 501.03 471.743 501.055 471.464L532.93 474.283ZM525.18 461.825C525.651 462.003 528.452 463.095 530.673 466.323C533.051 469.778 533.033 473.104 532.932 474.262L501.053 471.485C500.761 474.836 501.083 479.771 504.311 484.463C507.383 488.926 511.545 490.881 513.869 491.759L525.18 461.825ZM539.461 483.325C539.536 479.831 539.007 475.041 536.064 470.436C533.028 465.684 528.734 463.167 525.175 461.823L513.874 491.761C513.144 491.486 510.856 490.415 509.1 487.667C507.437 485.065 507.464 482.836 507.468 482.638L539.461 483.325ZM539.431 503.187C539.378 496.371 539.329 489.817 539.461 483.305L507.468 482.657C507.325 489.69 507.38 496.691 507.432 503.432L539.431 503.187ZM539.431 503.172L539.431 503.169L507.432 503.45L507.432 503.452L539.431 503.172ZM539.486 514.44C539.488 510.657 539.459 506.884 539.431 503.189L507.432 503.435C507.46 507.152 507.488 510.791 507.486 514.418L539.486 514.44ZM533.427 504.712C534.32 505.19 536.815 506.804 538.392 510.219C539.667 512.98 539.486 515.324 539.486 514.429H507.486C507.486 515.507 507.414 519.464 509.339 523.634C511.567 528.458 515.254 531.278 518.311 532.916L533.427 504.712ZM553.949 547.758C555.616 538.918 552.492 529.536 549.612 523.466C546.739 517.411 541.428 508.997 533.424 504.71L518.315 532.918C517.366 532.41 517.485 532.19 518.345 533.277C519.079 534.205 519.932 535.562 520.701 537.182C521.469 538.802 521.985 540.329 522.244 541.501C522.548 542.87 522.31 542.855 522.503 541.83L553.949 547.758ZM547.676 561.678C550.512 557.935 552.943 553.085 553.948 547.764L522.504 541.824C522.526 541.711 522.542 541.666 522.535 541.688C522.529 541.708 522.508 541.765 522.467 541.852C522.427 541.939 522.377 542.034 522.32 542.129C522.262 542.225 522.21 542.301 522.17 542.353L547.676 561.678ZM549.265 552.361C549.294 552.446 549.916 554.268 549.543 556.88C549.153 559.607 547.963 561.3 547.671 561.685L522.175 542.347C520.462 544.606 518.497 547.93 517.865 552.35C517.249 556.656 518.162 560.236 518.897 562.45L549.265 552.361ZM556.37 594.491C555.422 581.454 554.042 566.831 549.275 552.39L518.888 562.421C522.311 572.793 523.52 583.959 524.454 596.81L556.37 594.491ZM542.064 624.229C550.905 617.769 557.345 607.851 556.369 594.486L524.454 596.815C524.483 597.207 524.448 597.358 524.452 597.335C524.458 597.303 524.481 597.234 524.509 597.179C524.571 597.061 524.386 597.514 523.184 598.392L542.064 624.229ZM490.107 638.005C510.101 641 527.385 634.947 542.059 624.233L523.189 598.388C513.857 605.202 504.885 607.862 494.847 606.358L490.107 638.005ZM472.397 636.126C478.131 636.403 484.015 637.089 490.096 638.004L494.857 606.36C488.15 605.351 481.118 604.51 473.937 604.163L472.397 636.126ZM447.777 619.223C449.514 622.762 452.182 627.003 456.544 630.41C461.166 634.018 466.608 635.851 472.406 636.127L473.928 604.163C473.902 604.162 474.215 604.176 474.732 604.359C475.268 604.549 475.793 604.84 476.237 605.187C477.067 605.835 477.043 606.225 476.503 605.123L447.777 619.223ZM441.471 591.234C441.819 599.55 443 609.477 447.773 619.215L476.507 605.131C474.589 601.218 473.718 596.447 473.443 589.895L441.471 591.234ZM441.381 579.239C441.344 582.894 441.298 587.027 441.471 591.223L473.444 589.906C473.31 586.669 473.341 583.36 473.38 579.567L441.381 579.239ZM441.396 571.73C441.433 574.13 441.409 576.565 441.381 579.239L473.38 579.567C473.406 576.962 473.436 574.114 473.392 571.232L441.396 571.73ZM445.753 580.259C444.245 578.954 443.342 577.62 442.841 576.742C442.323 575.836 442.027 575.058 441.858 574.528C441.541 573.539 441.407 572.617 441.395 571.681L473.392 571.281C473.366 569.214 473.038 566.969 472.334 564.771C471.73 562.885 470.26 559.146 466.686 556.055L445.753 580.259ZM437.676 539.137C430.63 553.002 433.923 570.006 445.741 580.248L466.698 556.066C465.996 555.458 465.81 554.41 466.204 553.634L437.676 539.137ZM436.326 546.498C436.548 547.416 436.348 546.753 436.279 545.835C436.19 544.66 436.195 542.052 437.676 539.138L466.205 553.633C468.241 549.626 468.369 545.835 468.188 543.43C468.026 541.281 467.517 539.339 467.428 538.973L436.326 546.498ZM435.5 540.429C435.5 543.436 436.238 546.138 436.326 546.498L467.428 538.973C467.377 538.76 467.356 538.673 467.341 538.605C467.327 538.548 467.338 538.588 467.356 538.687C467.386 538.854 467.5 539.501 467.5 540.429H435.5ZM436.247 514.344C435.88 522.745 435.493 531.561 435.5 540.442L467.5 540.416C467.493 532.365 467.845 524.26 468.217 515.739L436.247 514.344ZM436.246 514.375L436.246 514.375L468.218 515.708L468.218 515.708L436.246 514.375ZM436.959 488.277C437.011 496.773 436.641 505.327 436.247 514.344L468.217 515.739C468.604 506.855 469.016 497.506 468.958 488.083L436.959 488.277ZM448.573 465.061C441.671 470.382 436.894 478.152 436.959 488.283L468.958 488.078C468.959 488.119 468.955 488.342 468.874 488.691C468.79 489.049 468.652 489.428 468.463 489.788C468.07 490.532 467.725 490.702 468.11 490.405L448.573 465.061ZM449.551 463.843C449.264 464.188 449.058 464.437 448.86 464.668C448.67 464.891 448.538 465.04 448.442 465.145C448.239 465.364 448.292 465.279 448.551 465.078L468.132 490.388C471.1 488.092 473.298 485.336 474.183 484.269L449.551 463.843ZM454.315 458.779C452.091 460.724 450.344 462.886 449.551 463.843L474.183 484.269C474.689 483.659 474.961 483.334 475.206 483.062C475.428 482.814 475.472 482.788 475.382 482.866L454.315 458.779ZM457.032 456.496C456.283 457.112 455.301 457.916 454.307 458.786L475.391 482.858C475.935 482.381 476.521 481.899 477.334 481.232L457.032 456.496ZM460.563 453.246C460.398 453.477 460.119 453.812 459.568 454.332C458.953 454.912 458.244 455.502 457.032 456.496L477.334 481.232C479.424 479.516 483.34 476.408 486.591 471.861L460.563 453.246ZM492.59 443.585C485.9 440.278 478.582 440.135 472.033 443.207C466.436 445.832 462.761 450.175 460.566 453.242L486.588 471.866C486.948 471.363 487.117 471.208 487.066 471.257C487.017 471.304 486.55 471.743 485.623 472.178C484.616 472.65 483.247 473.027 481.674 472.998C480.121 472.97 478.989 472.558 478.41 472.272L492.59 443.585ZM500.283 451.289C500.184 451.115 499.762 450.364 499.3 449.654C499.065 449.294 498.59 448.584 497.926 447.793C497.573 447.374 495.774 445.177 492.655 443.618L478.345 472.239C476.624 471.379 475.445 470.394 474.84 469.846C474.18 469.247 473.707 468.713 473.431 468.385C472.898 467.75 472.566 467.242 472.484 467.115C472.325 466.871 472.241 466.713 472.49 467.149L500.283 451.289ZM485.942 444.902C489.845 444.491 492.912 445.605 494.657 446.479C496.39 447.346 497.569 448.341 498.173 448.894C499.347 449.972 500.025 450.949 500.15 451.127C500.46 451.568 500.628 451.894 500.283 451.289L472.49 467.149C472.593 467.329 473.225 468.468 473.963 469.518C474.302 470.001 475.184 471.232 476.548 472.482C477.118 473.005 481.828 477.512 489.292 476.726L485.942 444.902ZM513.183 456.874C510.936 453.765 507.31 449.206 501.273 446.628C495.427 444.131 489.683 444.529 486.03 444.893L489.204 476.735C489.816 476.674 490.242 476.645 490.536 476.633C490.831 476.622 490.918 476.63 490.858 476.627C490.687 476.616 489.83 476.537 488.703 476.056C488.163 475.825 487.688 475.556 487.292 475.285C486.907 475.022 486.657 474.798 486.543 474.689C486.436 474.587 486.444 474.581 486.579 474.743C486.714 474.905 486.93 475.179 487.247 475.618L513.183 456.874ZM494.028 584.018L494.028 584.018L522.65 569.707L522.65 569.707L494.028 584.018ZM494.028 584.018L494.028 584.018L522.65 569.707L522.65 569.707L494.028 584.018ZM492.489 580.652C493.037 582.038 493.666 583.285 493.996 583.954L522.681 569.771C522.466 569.335 522.36 569.12 522.277 568.944C522.208 568.796 522.212 568.796 522.243 568.874L492.489 580.652ZM486.055 564.017C488.17 569.55 490.307 575.079 492.467 580.596L522.265 568.931C520.138 563.498 518.032 558.049 515.945 552.591L486.055 564.017ZM501.478 571.275C500.759 571.518 496.839 572.697 492.197 570.409C487.699 568.192 486.252 564.532 486.062 564.035L515.938 552.573C514.885 549.827 512.338 544.66 506.344 541.706C500.206 538.68 494.394 539.891 491.227 540.961L501.478 571.275ZM495.088 573.225C496.938 572.692 499.19 572.046 501.463 571.28L491.243 540.956C489.759 541.456 488.194 541.91 486.229 542.476L495.088 573.225ZM494.972 573.258L494.973 573.258L486.345 542.443L486.344 542.443L494.972 573.258ZM495.053 573.235L495.054 573.235L486.262 542.466L486.262 542.466L495.053 573.235ZM488.607 575.27C490.405 574.584 492.367 574.009 495.087 573.226L486.228 542.476C483.727 543.197 480.468 544.126 477.207 545.369L488.607 575.27ZM494.442 569.773C493.975 571.012 493.405 571.824 492.902 572.4C492.61 572.734 492.18 573.17 491.573 573.635C490.989 574.082 490.011 574.733 488.621 575.265L477.192 545.375C473.19 546.905 470.432 549.486 468.821 551.325C467.103 553.289 465.536 555.732 464.496 558.491L494.442 569.773ZM490.144 581.978C491.602 577.675 492.952 573.696 494.427 569.811L464.511 558.453C462.797 562.968 461.264 567.496 459.837 571.707L490.144 581.978ZM487.957 588.369C488.71 586.209 489.44 584.055 490.144 581.978L459.837 571.707C459.126 573.806 458.44 575.829 457.74 577.836L487.957 588.369ZM485.237 593.522C485.243 593.513 486.95 591.265 487.96 588.359L457.737 577.846C458.152 576.651 458.636 575.802 458.873 575.413C458.99 575.22 459.075 575.094 459.085 575.08C459.088 575.075 459.078 575.09 458.982 575.228L485.237 593.522ZM485.082 593.744C485.065 593.771 485.061 593.777 485.08 593.748C485.091 593.732 485.107 593.709 485.133 593.672C485.16 593.632 485.19 593.59 485.237 593.522L458.982 575.228C458.814 575.469 458.41 576.045 457.969 576.747L485.082 593.744ZM455.398 568.53C454.717 572.633 452.961 581.413 456.565 590.918L486.487 579.573C486.441 579.452 486.349 579.196 486.367 578.421C486.39 577.406 486.558 576.229 486.966 573.77L455.398 568.53ZM455.968 564.371C455.915 565.316 455.75 566.408 455.398 568.53L486.966 573.77C487.268 571.951 487.753 569.128 487.919 566.142L455.968 564.371ZM480.092 573.579C480.098 572.551 480.179 572.841 479.968 573.697C479.688 574.835 478.925 576.854 477.083 578.744C475.371 580.501 473.696 581.139 473.323 581.27C473.047 581.367 473.261 581.262 474.621 581.031L469.265 549.483C466.627 549.93 459.448 550.991 454.167 556.409C448.189 562.543 448.111 570.329 448.092 573.387L480.092 573.579ZM480.077 575.828C480.082 575.085 480.087 574.329 480.092 573.572L448.092 573.394C448.088 574.125 448.083 574.858 448.078 575.604L480.077 575.828ZM480.077 575.837L480.077 575.836L448.078 575.596L448.078 575.597L480.077 575.837ZM480.675 594.52C480.007 588.851 480.027 582.913 480.077 575.829L448.078 575.606C448.031 582.342 447.954 590.285 448.895 598.266L480.675 594.52ZM483.66 603.197C481.7 598.541 480.887 596.319 480.676 594.525L448.895 598.261C449.728 605.354 452.571 611.82 454.165 615.609L483.66 603.197ZM483.662 603.203L483.66 603.198L454.164 615.607L454.166 615.612L483.662 603.203ZM483.661 603.2L483.657 603.191L454.171 615.624L454.175 615.633L483.661 603.2ZM484.188 604.456C484.011 604.033 483.834 603.611 483.666 603.211L454.17 615.622C454.342 616.029 454.503 616.413 454.662 616.793L484.188 604.456ZM475.902 597.504C477.713 597.759 478.858 598.338 479.546 598.761C479.978 599.026 480.631 599.479 481.363 600.205C482.033 600.869 483.265 602.251 484.185 604.448L454.665 616.801C456.849 622.018 460.894 624.858 462.79 626.023C465.074 627.427 468.069 628.717 471.437 629.191L475.902 597.504ZM487.277 598.839C483.238 598.417 479.557 598.029 475.945 597.51L471.393 629.185C475.715 629.806 480.009 630.254 483.945 630.666L487.277 598.839ZM488.044 598.939L488.044 598.939L483.178 630.566L483.179 630.567L488.044 598.939ZM487.726 598.893L487.726 598.893L483.497 630.612L483.497 630.612L487.726 598.893ZM487.482 598.862L487.481 598.862L483.742 630.643L483.743 630.643L487.482 598.862ZM496.732 599.902C493.499 599.49 490.285 599.154 487.278 598.84L483.946 630.666C487.012 630.987 489.871 631.287 492.692 631.646L496.732 599.902ZM520.105 592.254C512.264 598.511 504.954 600.945 496.725 599.901L492.699 631.646C511.461 634.026 527.181 627.547 540.064 617.267L520.105 592.254ZM517.699 598.675C517.578 597.451 517.781 595.894 518.507 594.402C519.169 593.042 519.948 592.38 520.099 592.26L540.071 617.262C545.701 612.764 550.517 605.369 549.544 595.526L517.699 598.675ZM517.079 592.254C517.279 594.363 517.483 596.53 517.702 598.703L549.541 595.497C549.334 593.44 549.138 591.372 548.938 589.246L517.079 592.254ZM517.074 592.198L517.074 592.199L548.943 589.302L548.943 589.301L517.074 592.198ZM517.074 592.198L517.074 592.198L548.943 589.301L548.943 589.301L517.074 592.198ZM517.074 592.197L517.074 592.198L548.943 589.301L548.943 589.3L517.074 592.197ZM517.07 592.154L517.07 592.155L548.947 589.342L548.947 589.342L517.07 592.154ZM515.19 575.186C515.98 580.648 516.51 586.219 517.079 592.252L548.938 589.244C548.38 583.344 547.783 576.983 546.861 570.606L515.19 575.186ZM512.888 565.823C514.043 569.817 514.813 572.573 515.19 575.185L546.861 570.607C546.114 565.437 544.675 560.553 543.628 556.934L512.888 565.823ZM512.874 565.774L512.874 565.774L543.642 556.983L543.642 556.983L512.874 565.774ZM512.139 563.213C512.392 564.108 512.648 564.995 512.888 565.823L543.628 556.934C543.384 556.089 543.157 555.303 542.938 554.527L512.139 563.213ZM524.836 572.503C520.544 572.339 517.702 570.457 516.806 569.823C515.624 568.987 514.869 568.172 514.471 567.703C513.851 566.973 512.814 565.575 512.154 563.265L542.923 554.474C541.994 551.224 540.282 548.662 538.868 546.996C538.073 546.06 536.891 544.834 535.289 543.701C533.973 542.77 530.717 540.704 526.054 540.526L524.836 572.503ZM510.919 572.399C515.926 572.383 520.467 572.371 524.96 572.507L525.93 540.522C520.812 540.367 515.735 540.384 510.821 540.399L510.919 572.399ZM510.869 572.399H510.87V540.399H510.869V572.399ZM510.869 572.399H510.869V540.399H510.869V572.399ZM510.868 572.399H510.869V540.399H510.868V572.399ZM506.185 572.408C507.792 572.408 509.376 572.403 510.917 572.399L510.819 540.399C509.27 540.404 507.735 540.408 506.185 540.408V572.408ZM521.293 551.133L521.191 550.859L491.178 561.958L491.279 562.232L521.293 551.133ZM524.56 582.372C528.122 568.608 523.534 557.193 521.293 551.133L491.28 562.233C493.779 568.992 494.328 571.466 493.581 574.355L524.56 582.372ZM493.997 583.955C494.215 584.397 494.409 584.789 494.623 585.24L523.517 571.487C523.188 570.795 522.897 570.208 522.682 569.771L493.997 583.955ZM494.028 584.018L494.028 584.019L522.65 569.708L522.65 569.707L494.028 584.018ZM494.028 584.018L494.028 584.018L522.65 569.707L522.65 569.707L494.028 584.018ZM461.699 523.095C461.49 523.082 460.878 523.043 460.096 523.043V555.043C459.981 555.043 459.88 555.041 459.803 555.038C459.738 555.035 459.691 555.032 459.777 555.037L461.699 523.095ZM453.438 525.069C456.482 523.365 459.261 523.137 460.389 523.09C461.305 523.052 462.14 523.121 461.699 523.095L459.777 555.037C459.798 555.038 460.03 555.053 460.275 555.063C460.523 555.072 461.057 555.09 461.72 555.063C463.014 555.009 465.92 554.755 469.073 552.99L453.438 525.069ZM498.118 506.108C482.567 510.808 467.653 517.108 453.437 525.07L469.074 552.989C481.227 546.182 493.998 540.783 507.375 536.74L498.118 506.108ZM489.281 523.854C489.117 523.418 487.531 519.352 489.541 514.28C491.849 508.46 496.651 506.553 498.107 506.112L507.387 536.737C510.71 535.729 516.552 532.978 519.289 526.073C521.729 519.917 519.963 514.529 519.226 512.572L489.281 523.854ZM488.137 520.686C488.462 521.609 488.856 522.729 489.285 523.865L519.222 512.561C518.941 511.817 518.665 511.036 518.32 510.056L488.137 520.686ZM488.05 520.43L488.05 520.43L518.408 510.311L518.408 510.311L488.05 520.43ZM486.143 515.665C486.691 516.679 487.182 517.975 488.137 520.686L518.32 510.056C517.514 507.767 516.243 504.057 514.3 500.46L486.143 515.665ZM465.135 499.908C474.224 500.673 480.605 505.415 486.145 515.669L514.298 500.457C505.254 483.719 490.684 469.944 467.817 468.021L465.135 499.908ZM475.495 491.372C475.669 489.419 475.708 489.252 475.674 489.418C475.662 489.478 475.038 493.196 471.458 496.361C467.752 499.637 463.827 499.752 463.51 499.766C463.177 499.781 463.249 499.75 465.137 499.908L467.815 468.021C466.544 467.914 464.243 467.703 462.109 467.797C459.991 467.89 454.838 468.342 450.263 472.386C445.814 476.32 444.68 481.237 444.304 483.1C443.908 485.07 443.73 487.309 443.621 488.539L475.495 491.372ZM476.042 537.733C474.721 521.668 474.135 506.404 475.493 491.397L443.623 488.514C442.024 506.185 442.768 523.543 444.149 540.354L476.042 537.733ZM479.476 542.38C479.381 542.024 479.284 541.654 479.176 541.246L448.23 549.389C448.334 549.787 448.449 550.224 448.566 550.66L479.476 542.38ZM466.608 530.549C465.863 530.536 464.954 530.52 464.021 530.52V562.52C464.626 562.52 465.254 562.53 466.046 562.544L466.608 530.549ZM470.255 530.532C469.372 530.589 468.375 530.58 466.608 530.549L466.046 562.544C467.591 562.572 469.903 562.621 472.315 562.465L470.255 530.532ZM511.004 533.054C497.294 530.269 483.715 529.656 470.246 530.532L472.325 562.465C483.414 561.743 494.111 562.276 504.633 564.413L511.004 533.054ZM523.122 533.835C517.763 533.783 514.17 533.698 511.009 533.055L504.628 564.412C511.311 565.773 518.024 565.787 522.813 565.834L523.122 533.835ZM524.142 533.845C523.799 533.842 523.456 533.838 523.121 533.835L522.813 565.834C523.15 565.837 523.478 565.84 523.806 565.843L524.142 533.845ZM515.913 544.279C515.846 543.952 515.338 540.419 518.419 536.959C519.796 535.413 521.322 534.593 522.431 534.202C523.479 533.833 524.131 533.845 524.131 533.845L523.816 565.844C529.336 565.898 536.81 564.425 542.318 558.238C548.057 551.794 548.482 543.854 547.27 537.897L515.913 544.279ZM513.474 538.607C515.198 542.097 515.728 543.379 515.918 544.303L547.265 537.873C546.1 532.19 543.516 527.171 542.162 524.43L513.474 538.607ZM512.214 536.022C512.65 536.941 513.094 537.84 513.474 538.607L542.162 524.43C541.763 523.624 541.432 522.953 541.124 522.303L512.214 536.022ZM520.039 540.578C520.564 540.479 518.96 540.912 516.578 539.899C513.818 538.725 512.547 536.722 512.224 536.043L541.113 522.281C538.866 517.564 535.053 512.983 529.104 510.452C523.534 508.083 518.096 508.381 514.115 509.131L520.039 540.578ZM481.187 554.151C494.127 547.885 506.841 543.059 520.033 540.579L514.122 509.13C497.21 512.309 481.702 518.347 467.24 525.35L481.187 554.151ZM474.717 557.552C477.14 556.231 479.169 555.128 481.186 554.152L467.242 525.35C464.414 526.719 461.71 528.196 459.4 529.455L474.717 557.552ZM475.934 556.816L475.934 556.816L458.183 530.191L458.183 530.191L475.934 556.816ZM471.21 559.447C472.421 558.804 473.613 558.154 474.717 557.552L459.4 529.455C458.271 530.071 457.23 530.639 456.196 531.188L471.21 559.447ZM512.685 502.335C513.817 502.191 515.312 502.003 517.031 501.727L511.969 470.13C510.828 470.313 509.81 470.443 508.658 470.589L512.685 502.335ZM509.205 503.111C509.56 502.876 509.73 502.796 509.755 502.784C509.766 502.779 509.755 502.782 509.781 502.775C509.833 502.761 510.02 502.711 510.492 502.634C511.018 502.548 511.629 502.469 512.685 502.335L508.658 470.589C504.301 471.142 498.541 471.792 491.536 476.432L509.205 503.111ZM511.656 484.522C511.747 484.626 512.549 485.535 513.245 487.177C514.032 489.032 514.693 491.879 514.026 495.216C513.385 498.426 511.815 500.572 510.825 501.662C510.332 502.205 509.906 502.572 509.656 502.775C509.401 502.981 509.233 503.093 509.208 503.109L491.533 476.434C490.127 477.365 484.189 481.222 482.646 488.946C480.947 497.448 485.746 503.502 487.556 505.574L511.656 484.522ZM525.407 509.993C522.685 501.344 518.529 492.415 511.673 484.542L487.539 505.555C490.686 509.168 493.051 513.777 494.884 519.6L525.407 509.993ZM525.416 510.02L525.402 509.977L494.889 519.616L494.902 519.659L525.416 510.02ZM511.131 502.82C509.539 503.403 509.566 503.37 509.876 503.292C509.941 503.276 514.047 502.086 518.851 504.318C523.845 506.638 525.583 510.754 525.713 511.045C525.895 511.448 525.921 511.618 525.416 510.02L494.902 519.658C495.158 520.469 495.755 522.445 496.519 524.147C497.232 525.736 499.565 530.642 505.368 533.339C510.98 535.946 516.11 534.718 517.615 534.342C519.365 533.906 521.249 533.193 522.132 532.87L511.131 502.82ZM499.665 503.786C500.2 508.868 500.632 513.074 500.632 517.845H532.632C532.632 511.172 532.012 505.399 531.489 500.433L499.665 503.786ZM499.835 504.972L499.835 504.972L531.319 499.247L531.319 499.247L499.835 504.972ZM498.5 485.929C498.5 492.836 499.133 498.74 499.665 503.786L531.489 500.433C530.947 495.294 530.5 490.942 530.5 485.929H498.5ZM472.471 551.355C472.335 550.668 472.165 549.808 471.977 548.949L440.717 555.79C440.825 556.285 440.933 556.828 441.081 557.576L472.471 551.355ZM473.404 555.339C473.128 554.541 472.9 553.519 472.471 551.355L441.081 557.576C441.441 559.391 442.049 562.584 443.165 565.809L473.404 555.339ZM455.548 546.882C459.04 545.498 461.933 545.845 462.638 545.934C463.771 546.076 464.648 546.341 465.276 546.576C465.88 546.803 466.817 547.215 467.904 547.971C468.456 548.355 469.307 549.007 470.213 549.989C471.06 550.907 472.481 552.675 473.403 555.335L443.167 565.813C444.944 570.941 448.664 573.568 449.632 574.241C451.207 575.337 452.765 576.06 454.026 576.534C455.31 577.016 456.881 577.462 458.645 577.684C459.981 577.852 463.443 578.176 467.345 576.629L455.548 546.882ZM470.794 540.505C465.559 542.753 460.57 544.894 455.555 546.88L467.338 576.631C472.847 574.45 478.254 572.127 483.419 569.909L470.794 540.505ZM470.923 540.45L470.923 540.45L483.29 569.964L483.291 569.964L470.923 540.45ZM475.406 538.529C473.859 539.189 472.316 539.851 470.794 540.505L483.419 569.909C484.947 569.253 486.454 568.606 487.96 567.964L475.406 538.529ZM474.626 569.186C477.284 569.09 478.826 569.055 480.257 569.183L483.109 537.31C479.362 536.975 475.838 537.122 473.476 537.207L474.626 569.186ZM469.502 569.288C471.386 569.305 473.212 569.237 474.626 569.186L473.476 537.207C471.941 537.262 470.834 537.299 469.787 537.29L469.502 569.288ZM459.542 568.688C462.576 568.952 465.991 569.258 469.504 569.288L469.784 537.29C467.744 537.272 465.604 537.094 462.317 536.808L459.542 568.688ZM459.422 568.677L459.423 568.677L462.436 536.819L462.434 536.819L459.422 568.677ZM459.639 568.696L459.639 568.696L462.217 536.8L462.217 536.8L459.639 568.696ZM459.383 568.673L459.384 568.673L462.472 536.822L462.472 536.822L459.383 568.673ZM455.158 568.325C456.675 568.438 458.095 568.562 459.54 568.687L462.314 536.808C460.889 536.684 459.279 536.544 457.536 536.414L455.158 568.325ZM489.617 469.729C487.462 471.322 485.305 472.917 483.13 474.522L502.135 500.267C504.321 498.653 506.488 497.051 508.642 495.459L489.617 469.729ZM492.04 467.937L489.617 469.728L508.641 495.459L511.064 493.668L492.04 467.937ZM485.756 483.458C485.801 483.67 485.864 483.967 485.933 484.274L517.171 477.332C517.14 477.193 517.107 477.041 517.057 476.804L485.756 483.458ZM485.643 482.93C485.673 483.068 485.706 483.221 485.756 483.458L517.057 476.804C517.012 476.592 516.949 476.295 516.881 475.988L485.643 482.93ZM480.407 488.954C482.655 492.006 487.941 497.839 496.767 497.988C505.252 498.131 510.789 492.853 513.275 490.026L489.248 468.892C489.248 468.891 489.255 468.884 489.268 468.87C489.281 468.856 489.301 468.834 489.328 468.807C489.382 468.752 489.47 468.667 489.592 468.56C489.828 468.353 490.25 468.013 490.867 467.645C492.142 466.884 494.371 465.943 497.307 465.992C500.296 466.043 502.643 467.096 504.129 468.108C505.471 469.021 506.102 469.881 506.173 469.978L480.407 488.954ZM498.649 492.943C496.544 494.27 494.701 494.687 494.015 494.823C493.123 495.002 492.335 495.055 491.648 495.046C491.022 495.039 489.922 494.974 488.53 494.596C487.823 494.403 486.708 494.04 485.429 493.344C484.21 492.682 482.192 491.366 480.43 488.985L506.15 469.946C502.746 465.348 498.122 464.042 496.938 463.72C495.036 463.202 493.314 463.065 492.043 463.049C490.279 463.027 485.86 463.176 481.58 465.876L498.649 492.943ZM472.887 490.001C475.02 492.099 478.736 495.027 484.125 495.97C489.904 496.981 494.939 495.269 498.612 492.966L481.616 465.853C482.92 465.035 485.833 463.782 489.642 464.449C493.061 465.048 494.959 466.825 495.331 467.191L472.887 490.001ZM493.729 486.855C493.639 487.031 493.163 487.95 492.132 489.055C491.065 490.198 488.92 492.045 485.552 492.93C477.891 494.942 473.089 490.199 472.895 490.009L495.323 467.183C493.099 464.998 486.585 459.573 477.423 461.979C469.567 464.043 466.163 470.485 465.266 472.232L493.729 486.855ZM500.848 473.666C496.323 470.957 492.033 468.391 487.693 465.802L471.302 493.285C475.619 495.86 479.888 498.415 484.416 501.124L500.848 473.666ZM494.527 467.773C494.537 467.59 494.541 467.511 494.545 467.449L462.61 465.411C462.593 465.681 462.58 465.938 462.572 466.091L494.527 467.773ZM494.489 468.454C494.506 468.183 494.519 467.926 494.527 467.773L462.572 466.091C462.562 466.274 462.558 466.353 462.554 466.415L494.489 468.454ZM490.326 456.55C490.179 456.409 489.461 455.707 488.611 455.017L468.432 479.852C468.319 479.76 468.229 479.684 468.167 479.629C468.105 479.575 468.062 479.536 468.045 479.52C468.028 479.504 468.026 479.502 468.049 479.524C468.076 479.549 468.107 479.579 468.171 479.641L490.326 456.55ZM489.492 455.804L489.492 455.804L469.006 480.387L469.006 480.387L489.492 455.804ZM486.12 454.185C488.111 454.869 489.413 455.826 489.928 456.23C490.388 456.591 490.701 456.911 490.326 456.55L468.172 479.641C468.32 479.784 469.158 480.607 470.167 481.399C471.23 482.234 473.106 483.549 475.718 484.447L486.12 454.185ZM492.872 456.167C491.235 455.897 489.364 455.306 486.146 454.194L475.692 484.438C478.614 485.448 482.953 486.964 487.668 487.741L492.872 456.167ZM477.794 462.209C477.364 463.003 477.481 462.749 477.756 462.344C477.859 462.193 478.573 461.116 479.867 459.945C480.539 459.336 481.849 458.256 483.786 457.372C485.809 456.449 489.02 455.525 492.9 456.172L487.639 487.736C495.399 489.03 500.472 484.456 501.346 483.664C502.884 482.272 503.86 480.865 504.236 480.31C505.058 479.099 505.77 477.747 505.935 477.442L477.794 462.209ZM477.973 461.887L477.973 461.887L505.756 477.764L505.756 477.764L477.973 461.887ZM479.281 459.659C478.584 460.724 477.969 461.884 477.794 462.209L505.935 477.442C506.007 477.31 506.06 477.212 506.11 477.121C506.158 477.033 506.19 476.975 506.211 476.938C506.233 476.9 506.232 476.901 506.215 476.93C506.199 476.957 506.149 477.04 506.069 477.162L479.281 459.659ZM484.491 482.246C484.654 482.328 485.782 482.915 487.068 483.396L498.282 453.425C498.674 453.572 498.939 453.696 499.004 453.726C499.043 453.745 499.058 453.753 499.032 453.74C499.002 453.725 498.964 453.706 498.873 453.66L484.491 482.246ZM492.418 483.081C488.875 483.72 486.189 482.869 485.348 482.577C484.518 482.289 483.907 481.952 484.491 482.246L498.873 453.66C498.726 453.586 497.386 452.883 495.847 452.348C494.298 451.81 490.924 450.834 486.735 451.59L492.418 483.081ZM471.927 478.996C480.414 485.391 489.371 483.633 492.429 483.079L486.725 451.592C486.131 451.699 485.92 451.725 485.862 451.731C485.828 451.735 486.151 451.697 486.696 451.74C487.276 451.785 488.06 451.916 488.939 452.235C489.83 452.558 490.588 452.99 491.184 453.439L471.927 478.996ZM483.015 481.877C483.714 481.725 482.896 481.937 481.861 482.011C481.247 482.055 479.977 482.105 478.368 481.816C476.714 481.52 474.239 480.78 471.786 478.888L491.326 453.547C486.248 449.632 480.817 450.004 479.583 450.092C477.869 450.214 476.279 450.594 476.205 450.61L483.015 481.877ZM480.126 482.355C481.567 482.215 482.897 481.903 483.015 481.877L476.205 450.61C476.108 450.632 476.07 450.64 476.041 450.646C476.018 450.651 476.042 450.645 476.096 450.635C476.149 450.625 476.257 450.605 476.404 450.583C476.55 450.56 476.764 450.531 477.03 450.505L480.126 482.355ZM494.728 477.592C494.497 476.897 493.864 474.671 494.668 471.651C495.102 470.02 495.921 468.333 497.198 466.836C498.463 465.352 499.858 464.43 500.993 463.895L514.63 492.844C520.007 490.311 524.037 485.721 525.591 479.883C526.947 474.79 526.021 470.286 525.096 467.504L494.728 477.592ZM502.277 486.285C503.219 486.605 502.631 486.439 501.894 486.071C501.443 485.846 500.316 485.252 499.053 484.144C497.745 482.997 495.825 480.882 494.733 477.608L525.091 467.489C522.814 460.657 517.171 457.932 516.193 457.443C514.568 456.631 512.842 456.078 512.569 455.986L502.277 486.285ZM498.977 485.013C500.413 485.666 501.813 486.128 502.277 486.285L512.569 455.986C512.412 455.932 512.307 455.896 512.208 455.862C512.115 455.83 512.058 455.809 512.023 455.797C511.989 455.784 511.992 455.785 512.021 455.797C512.05 455.808 512.119 455.837 512.218 455.882L498.977 485.013ZM522.512 471.528C522.056 469.897 521.593 468.24 521.009 466.147L490.186 474.748C490.773 476.85 491.238 478.515 491.695 480.147L522.512 471.528ZM522.471 471.384L522.471 471.383L491.736 480.292L491.736 480.292L522.471 471.384ZM522.524 471.572L522.512 471.529L491.695 480.147L491.707 480.19L522.524 471.572ZM523.221 474.063C522.981 473.204 522.753 472.39 522.524 471.572L491.707 480.19C491.936 481.009 492.163 481.82 492.402 482.676L523.221 474.063ZM477.341 458.121C472.256 457.186 467.043 457.955 462.438 460.792C458.719 463.083 456.393 466.218 455.689 467.129L481.011 486.696C481.34 486.27 481.313 486.329 481.126 486.526C480.908 486.755 480.274 487.389 479.224 488.036C478.095 488.731 476.7 489.31 475.123 489.58C473.589 489.844 472.34 489.738 471.553 489.593L477.341 458.121ZM461.174 491.213C464.75 493.008 472.997 496.079 481.21 490.785C487.808 486.532 489.506 479.53 489.937 477.864L458.957 469.85C458.888 470.118 459.005 469.536 459.487 468.608C459.981 467.656 461.253 465.577 463.873 463.888C466.754 462.031 469.819 461.57 472.198 461.775C474.24 461.951 475.455 462.576 475.526 462.612L461.174 491.213ZM486.452 483.654C486.208 483.365 486.076 483.208 485.957 483.059C485.849 482.925 485.8 482.859 485.783 482.835L459.702 501.376C460.648 502.707 461.582 503.801 462.01 504.308L486.452 483.654ZM491.607 498.305C492.273 492.347 489.63 488.039 488.794 486.736C487.836 485.245 486.664 483.904 486.452 483.654L462.01 504.308C462.685 505.107 462.29 504.685 461.868 504.028C461.593 503.599 460.995 502.612 460.503 501.181C459.987 499.679 459.504 497.443 459.805 494.748L491.607 498.305ZM472.877 515.447C477.157 515.419 480.325 513.788 481.752 512.952C483.466 511.947 484.851 510.78 485.911 509.719C486.983 508.645 488.077 507.323 489.025 505.76C489.851 504.398 491.22 501.789 491.608 498.293L459.804 494.759C460.129 491.837 461.231 489.879 461.661 489.17C462.212 488.262 462.779 487.596 463.266 487.109C463.74 486.634 464.482 485.982 465.566 485.347C466.363 484.88 468.915 483.473 472.664 483.448L472.877 515.447ZM453.958 498.397C454.365 501.863 455.731 504.447 456.547 505.788C457.486 507.332 458.569 508.644 459.634 509.714C460.682 510.766 462.069 511.943 463.797 512.958C465.2 513.781 468.507 515.508 472.99 515.446L472.551 483.449C476.518 483.395 479.218 484.904 479.997 485.361C481.102 486.01 481.849 486.672 482.312 487.137C482.793 487.62 483.348 488.273 483.888 489.16C484.304 489.845 485.401 491.776 485.74 494.67L453.958 498.397ZM458.957 483.781C458.748 484.034 457.589 485.391 456.648 486.895C455.828 488.205 453.223 492.56 453.975 498.531L485.724 494.536C486.064 497.238 485.607 499.489 485.107 501.002C484.631 502.443 484.044 503.44 483.774 503.872C483.359 504.534 482.968 504.961 483.635 504.152L458.957 483.781ZM459.618 482.954C459.599 482.981 459.549 483.05 459.442 483.186C459.324 483.336 459.195 483.493 458.957 483.781L483.635 504.152C484.051 503.648 484.953 502.567 485.867 501.257L459.618 482.954ZM463.184 511.044C461.857 511.957 460.766 512.859 460.259 513.273L480.507 538.052C480.796 537.816 480.952 537.69 481.1 537.574C481.233 537.47 481.3 537.423 481.324 537.406L463.184 511.044ZM460.094 535.005C460.604 535.432 461.697 536.357 463.026 537.295L481.483 511.155C481.454 511.135 481.383 511.083 481.247 510.974C481.095 510.853 480.936 510.72 480.646 510.477L460.094 535.005ZM469.332 537.18C466.727 537.432 464.572 536.956 463.117 536.453C461.729 535.972 460.768 535.395 460.347 535.126C460.108 534.974 459.933 534.85 459.835 534.778C459.783 534.74 459.744 534.711 459.72 534.692C459.695 534.673 459.681 534.662 459.68 534.661C459.678 534.66 459.686 534.665 459.705 534.681C459.723 534.696 459.749 534.717 459.786 534.747C459.865 534.813 459.954 534.887 460.094 535.005L480.646 510.477C480.386 510.259 479.048 509.1 477.561 508.151C476.235 507.305 472.047 504.768 466.25 505.329L469.332 537.18ZM480.882 524.741C480.769 528.21 479.49 530.568 479.04 531.343C478.442 532.375 477.825 533.097 477.354 533.577C476.877 534.065 476.205 534.654 475.272 535.23C474.545 535.679 472.516 536.842 469.481 537.165L466.101 505.344C462.5 505.726 459.83 507.156 458.459 508.002C456.882 508.976 455.562 510.096 454.505 511.174C453.455 512.245 452.328 513.617 451.359 515.288C450.54 516.701 449.031 519.685 448.899 523.696L480.882 524.741ZM469.492 511.185C472.456 511.498 474.433 512.615 475.101 513.015C475.988 513.548 476.638 514.094 477.116 514.562C477.574 515.012 478.246 515.753 478.91 516.865C479.347 517.596 481.004 520.455 480.885 524.672L448.897 523.764C448.764 528.48 450.637 531.933 451.44 533.278C452.472 535.004 453.662 536.381 454.712 537.411C455.781 538.459 457.095 539.53 458.641 540.458C459.969 541.254 462.599 542.635 466.132 543.008L469.492 511.185ZM460.259 513.273C460.119 513.387 460.031 513.459 459.953 513.522C459.878 513.582 459.851 513.603 459.853 513.602C459.855 513.6 459.915 513.554 460.019 513.48C460.122 513.407 460.302 513.282 460.548 513.13C461.074 512.804 464.523 510.637 469.568 511.193L466.057 543C471.82 543.637 476.026 541.184 477.394 540.337C478.898 539.405 480.254 538.259 480.507 538.052L460.259 513.273ZM499.767 529.671C500.05 529.425 500.206 529.291 500.356 529.168C500.49 529.057 500.564 529.001 500.598 528.976L481.724 503.135C480.414 504.092 479.343 505.027 478.84 505.461L499.767 529.671ZM485.327 534.986C491.207 535.531 495.417 532.896 496.731 532.031C498.202 531.062 499.523 529.881 499.767 529.671L478.84 505.461C478.704 505.579 478.618 505.654 478.541 505.719C478.468 505.781 478.442 505.803 478.444 505.801C478.446 505.8 478.505 505.751 478.607 505.674C478.708 505.598 478.886 505.467 479.129 505.307C479.558 505.025 480.534 504.419 481.95 503.912C483.438 503.379 485.632 502.877 488.281 503.123L485.327 534.986ZM472.571 527.958C472.751 528.16 473.888 529.483 475.283 530.668C476.564 531.755 480.05 534.501 485.338 534.987L488.27 503.122C492.754 503.535 495.469 505.828 495.996 506.275C496.637 506.819 497.035 507.313 496.478 506.686L472.571 527.958ZM472.76 528.111C472.623 527.986 472.521 527.885 472.457 527.821C472.394 527.758 472.356 527.717 472.349 527.709C472.342 527.702 472.354 527.714 472.394 527.759C472.437 527.807 472.486 527.862 472.571 527.958L496.478 506.686C496.285 506.47 495.403 505.454 494.355 504.496L472.76 528.111ZM471.643 505.599C471.565 505.703 471.52 505.763 471.48 505.815C471.444 505.864 471.433 505.877 471.439 505.869C471.446 505.86 471.482 505.815 471.541 505.744C471.601 505.674 471.697 505.562 471.827 505.422L495.287 527.184C496.269 526.127 497.077 525.021 497.251 524.788L471.643 505.599ZM484.129 497.465C478.69 498.31 475.323 501.462 474.146 502.641C472.839 503.951 471.804 505.384 471.643 505.599L497.251 524.789C497.762 524.107 497.399 524.642 496.795 525.248C496.418 525.625 495.646 526.348 494.482 527.075C493.285 527.822 491.447 528.712 489.04 529.086L484.129 497.465ZM498.964 501.96C498.698 501.756 497.302 500.645 495.772 499.757C494.435 498.982 489.996 496.526 484.057 497.477L489.112 529.075C486.426 529.505 484.162 529.125 482.63 528.675C481.174 528.248 480.158 527.694 479.72 527.44C479.47 527.295 479.286 527.176 479.184 527.107C479.13 527.071 479.09 527.043 479.064 527.025C479.039 527.008 479.024 526.997 479.023 526.996C479.022 526.995 479.03 527.001 479.049 527.016C479.069 527.03 479.096 527.051 479.135 527.08C479.218 527.143 479.311 527.215 479.457 527.327L498.964 501.96ZM499.206 502.15L499.206 502.15L479.216 527.138L479.216 527.138L499.206 502.15ZM499.885 502.643C499.835 502.611 499.747 502.551 499.598 502.441C499.433 502.32 499.263 502.19 498.964 501.96L479.458 527.327C479.989 527.736 481.097 528.596 482.436 529.468L499.885 502.643ZM498.126 501.68C498.982 503.067 499.838 504.215 500.232 504.749L525.984 485.753C525.76 485.449 525.638 485.283 525.527 485.126C525.427 484.984 525.38 484.91 525.361 484.88L498.126 501.68ZM521.838 506.024C522.299 505.53 523.292 504.476 524.31 503.184L499.178 483.376C499.153 483.408 499.094 483.48 498.973 483.615C498.841 483.764 498.697 483.919 498.435 484.199L521.838 506.024ZM524.489 496.304C524.714 499.12 524.108 501.42 523.509 502.933C522.939 504.373 522.279 505.35 521.984 505.762C521.531 506.397 521.117 506.798 521.838 506.024L498.435 484.199C498.21 484.441 496.97 485.727 495.941 487.168C495.076 488.38 492.097 492.688 492.591 498.856L524.489 496.304ZM520.994 488.02C520.358 487.449 520.841 487.842 521.376 488.479C521.711 488.877 522.343 489.683 522.952 490.865C523.576 492.078 524.288 493.909 524.484 496.244L492.596 498.917C493.043 504.248 495.794 507.777 496.882 509.071C498.07 510.484 499.4 511.638 499.611 511.827L520.994 488.02ZM523.214 490.193C522.247 489.124 521.219 488.223 520.994 488.02L499.611 511.827C499.71 511.916 499.767 511.967 499.817 512.013C499.864 512.055 499.878 512.069 499.873 512.064C499.867 512.059 499.828 512.022 499.766 511.959C499.704 511.897 499.605 511.795 499.481 511.659L523.214 490.193ZM502.845 487.243C502.609 487.421 501.513 488.224 500.463 489.199L522.232 512.653C522.096 512.78 521.987 512.873 521.919 512.931C521.851 512.989 521.807 513.023 521.8 513.029C521.794 513.034 521.808 513.023 521.857 512.985C521.91 512.945 521.969 512.9 522.074 512.822L502.845 487.243ZM498.648 495.084C499.429 490.667 501.927 488.161 502.413 487.676C503.003 487.087 503.522 486.735 502.845 487.243L522.074 512.822C522.297 512.654 523.716 511.625 525.018 510.326C526.215 509.131 529.235 505.882 530.159 500.656L498.648 495.084ZM500.232 504.749C500.853 505.591 500.484 505.141 500.105 504.455C499.858 504.008 499.324 502.979 498.926 501.512C498.508 499.971 498.174 497.697 498.66 495.017L530.147 500.723C531.219 494.807 528.856 490.323 528.11 488.974C527.256 487.427 526.176 486.014 525.984 485.753L500.232 504.749Z" fill="#F0E9DF" mask="url(#path-2-outside-1_101_39)"/>
</svg>
