<svg width="1080" height="1080" viewBox="0 0 1080 1080" fill="none" xmlns="http://www.w3.org/2000/svg">
<rect width="1080" height="1080" fill="white"/>
<mask id="path-1-outside-1_101_51" maskUnits="userSpaceOnUse" x="408.63" y="363.834" width="262.804" height="352.621" fill="black">
<rect fill="white" x="408.63" y="363.834" width="262.804" height="352.621"/>
<path d="M526.065 611.277C516.939 604.402 514.565 597.007 517.762 585.866C512.388 586.529 512.355 582.756 512.052 579.103C511.08 567.49 510.092 555.878 509.025 544.272C508.609 539.716 511.905 538.625 516.342 537.152C513.947 536.449 512.601 536.021 511.233 535.669C508.722 535.025 506.113 534.678 503.7 533.776C498.088 531.691 496.275 527.581 498.946 522.277C500.822 518.543 503.428 515.175 505.763 511.553C505.749 511.531 505.689 511.209 505.529 511.152C499.695 509.013 499.777 509.016 499.704 502.874C499.583 492.938 500.419 483.125 502.717 473.421C503.652 469.486 505.507 466.553 509.018 464.541C513.913 461.742 518.766 458.857 523.559 455.895C524.274 455.453 525.154 454.254 525.018 453.595C523.178 444.5 528.563 439.602 535.552 436.091C538.473 434.625 539.448 433.098 539.323 429.999C538.984 421.532 538.733 413.056 538.809 404.583C538.847 400.374 539.586 396.152 540.187 391.966C540.497 389.824 541.614 387.988 544.176 388.522C546.571 389.019 546.444 390.977 546.358 393.02C546.014 401.459 545.818 409.906 545.623 418.353C545.53 422.472 545.619 426.595 545.488 430.713C545.418 432.755 545.861 433.784 548.174 434.332C555.267 435.991 560.701 439.914 562.599 447.314C563.248 449.84 562.917 452.616 563.045 455.671C566.492 455.742 569.999 455.929 573.499 455.853C576.336 455.789 577.737 456.644 578.054 459.777C578.774 466.901 580.199 473.962 580.77 481.095C581.084 485.02 580.396 489.063 579.89 493.013C579.384 496.948 577.699 500.194 573.589 501.633C572.742 501.929 572.033 502.617 570.876 503.375C572.881 507.219 575.014 510.864 576.718 514.7C577.935 517.443 578.603 520.429 579.495 523.314C579.663 523.857 579.535 524.675 579.879 524.938C583.377 527.635 582.67 531.403 582.552 535.023C582.29 543.259 582.169 551.507 581.61 559.721C581.456 561.989 580.418 564.529 579 566.318C574.511 571.996 569.654 577.377 564.904 582.91C572.257 591.658 572.115 596.047 563.821 604.999C562.076 606.876 560.041 608.49 557.885 610.459C562.606 613.977 563.888 618.977 564.112 624.433C564.591 636.074 558.904 644.18 547.604 647.175C544.553 647.984 543.862 649.283 543.812 652.212C543.619 664.228 543.117 676.232 542.789 688.239C542.729 690.445 542.382 692.473 539.738 692.494C537.144 692.519 536.447 690.523 536.508 688.317C536.797 678.311 537.14 668.305 537.461 658.297C537.497 657.235 537.547 656.178 537.574 655.12C537.702 649.289 537.695 649.286 532.185 647.287C524.74 644.583 516.351 631.843 517.703 624.006C518.299 620.544 520.847 617.375 522.741 614.214C523.446 613.088 524.8 612.373 526.065 611.277ZM515.655 544.313C516.476 555.138 517.326 565.571 518.021 576.009C518.209 578.844 519.3 580.061 522.217 580.496C530.004 581.652 537.787 582.951 545.467 584.667C548.394 585.32 549.439 584.371 549.867 581.956C551.093 575.007 552.329 568.055 553.272 561.067C553.423 559.968 552.374 558.179 551.354 557.533C545.493 553.848 539.682 549.97 533.439 547.015C528.052 544.471 522.31 541.713 515.655 544.313ZM565.431 506.736C558.117 510.014 551.146 513.126 544.191 516.276C543.675 516.508 543.319 517.119 542.796 517.295C541.128 517.844 539.302 518.909 537.733 518.635C531.595 517.557 525.434 516.386 519.482 514.573C514.874 513.172 511.761 514.415 509.114 518.033C508.353 519.074 507.441 520.016 506.686 521.06C502.915 526.327 503.361 527.518 509.579 528.942C510.725 529.204 511.891 529.397 513.037 529.659C520.979 531.504 528.911 533.445 535.338 538.867C537.803 540.951 539.748 540.958 542.041 538.731C547.446 533.467 553.992 530.647 561.434 529.354C564.69 528.789 567.777 526.994 570.81 525.497C573.213 524.309 573.681 522.246 572.394 519.841C570.071 515.485 567.766 511.12 565.431 506.736ZM541.781 479.786C531.527 477.15 521.769 474.57 511.944 472.269C511.162 472.087 509.164 473.724 509.04 474.682C507.871 483.755 506.924 492.865 506.113 501.977C506.033 502.884 507.083 504.543 507.912 504.775C517.387 507.468 526.915 509.954 537.158 512.693C538.738 501.434 540.221 490.9 541.781 479.786ZM573.265 466.714C573.265 466.714 570.78 467.333 570.5 467.494C563.368 471.579 557.192 475.071 550.22 479.421C548.803 480.309 547.721 482.526 547.433 484.28C546.437 490.421 545.872 496.631 545.099 502.81C544.849 504.824 544.448 506.815 544.018 509.459C545.904 508.732 547.134 508.378 548.249 507.817C553.713 505.083 559.214 502.409 564.572 499.486C574.882 493.864 574.95 493.792 574.586 482.076C574.42 476.981 573.723 471.898 573.265 466.714ZM557.571 630.983C557.46 628.317 557.439 624.03 557.045 619.774C556.824 617.414 555.122 616.008 552.703 615.869C546.73 615.53 540.722 614.788 534.777 615.126C526.056 615.621 521.918 623.114 525.494 631.046C526.215 632.647 527.115 634.184 528.033 635.697C531.125 640.773 535.68 642.771 541.535 642.037C548.025 641.204 553.646 639.022 557.571 630.983ZM531.137 606.434C544.05 611.372 556.996 606.818 562.827 595.982C564.884 592.162 564.298 590.379 560.135 587.533C557.131 585.48 555.342 587.951 553.978 589.663C552.269 591.808 550.57 592.115 548.151 591.585C542.063 590.252 535.972 588.872 529.823 587.896C524.896 587.107 521.493 591.119 522.605 595.897C523.838 601.222 526.678 605.117 531.137 606.434ZM557.191 579.553C558.961 578.305 560.132 577.721 560.991 576.834C565.05 572.601 568.986 568.257 573.028 564.009C575.131 561.797 575.601 559.207 575.608 556.253C575.616 550.022 575.916 543.788 576.07 537.555C576.085 536.92 575.935 536.278 575.794 535.089C570.116 541.06 564.778 546.627 559.525 552.267C559.088 552.738 559.107 553.74 559.12 554.494C559.172 557.64 559.613 560.807 559.342 563.921C558.907 568.839 558.018 573.71 557.191 579.553ZM554.479 444.991C548.382 438.742 540.684 438.623 534.3 444.282C530.635 447.53 529.979 450.914 532.156 455.311C536.01 463.104 547.749 464.667 553.155 457.866C554.319 456.401 555.117 453.212 554.307 451.904C552.722 449.293 552.311 447.306 554.479 444.991ZM565.431 463.494C562.599 460.494 559.71 461.292 555.251 464.613C547.265 470.566 537.203 469.742 530.073 462.582C529.514 462.025 528.593 461.06 528.218 461.213C524.7 462.641 521.5 463.494 519.482 465.994C528.627 469.492 535.606 471.894 544.274 474.41C544.793 474.561 545.501 474.567 545.952 474.324C552.746 470.673 558.663 467.193 565.431 463.494ZM544.129 545.628C549.857 550.947 551.828 550.965 556.864 545.855C557.934 544.772 559.026 543.705 560.071 542.588C562.267 540.261 564.442 537.91 567.096 535.059C562.827 532.994 549.877 538.7 544.129 545.628Z"/>
</mask>
<path d="M526.065 611.277C516.939 604.402 514.565 597.007 517.762 585.866C512.388 586.529 512.355 582.756 512.052 579.103C511.08 567.49 510.092 555.878 509.025 544.272C508.609 539.716 511.905 538.625 516.342 537.152C513.947 536.449 512.601 536.021 511.233 535.669C508.722 535.025 506.113 534.678 503.7 533.776C498.088 531.691 496.275 527.581 498.946 522.277C500.822 518.543 503.428 515.175 505.763 511.553C505.749 511.531 505.689 511.209 505.529 511.152C499.695 509.013 499.777 509.016 499.704 502.874C499.583 492.938 500.419 483.125 502.717 473.421C503.652 469.486 505.507 466.553 509.018 464.541C513.913 461.742 518.766 458.857 523.559 455.895C524.274 455.453 525.154 454.254 525.018 453.595C523.178 444.5 528.563 439.602 535.552 436.091C538.473 434.625 539.448 433.098 539.323 429.999C538.984 421.532 538.733 413.056 538.809 404.583C538.847 400.374 539.586 396.152 540.187 391.966C540.497 389.824 541.614 387.988 544.176 388.522C546.571 389.019 546.444 390.977 546.358 393.02C546.014 401.459 545.818 409.906 545.623 418.353C545.53 422.472 545.619 426.595 545.488 430.713C545.418 432.755 545.861 433.784 548.174 434.332C555.267 435.991 560.701 439.914 562.599 447.314C563.248 449.84 562.917 452.616 563.045 455.671C566.492 455.742 569.999 455.929 573.499 455.853C576.336 455.789 577.737 456.644 578.054 459.777C578.774 466.901 580.199 473.962 580.77 481.095C581.084 485.02 580.396 489.063 579.89 493.013C579.384 496.948 577.699 500.194 573.589 501.633C572.742 501.929 572.033 502.617 570.876 503.375C572.881 507.219 575.014 510.864 576.718 514.7C577.935 517.443 578.603 520.429 579.495 523.314C579.663 523.857 579.535 524.675 579.879 524.938C583.377 527.635 582.67 531.403 582.552 535.023C582.29 543.259 582.169 551.507 581.61 559.721C581.456 561.989 580.418 564.529 579 566.318C574.511 571.996 569.654 577.377 564.904 582.91C572.257 591.658 572.115 596.047 563.821 604.999C562.076 606.876 560.041 608.49 557.885 610.459C562.606 613.977 563.888 618.977 564.112 624.433C564.591 636.074 558.904 644.18 547.604 647.175C544.553 647.984 543.862 649.283 543.812 652.212C543.619 664.228 543.117 676.232 542.789 688.239C542.729 690.445 542.382 692.473 539.738 692.494C537.144 692.519 536.447 690.523 536.508 688.317C536.797 678.311 537.14 668.305 537.461 658.297C537.497 657.235 537.547 656.178 537.574 655.12C537.702 649.289 537.695 649.286 532.185 647.287C524.74 644.583 516.351 631.843 517.703 624.006C518.299 620.544 520.847 617.375 522.741 614.214C523.446 613.088 524.8 612.373 526.065 611.277ZM515.655 544.313C516.476 555.138 517.326 565.571 518.021 576.009C518.209 578.844 519.3 580.061 522.217 580.496C530.004 581.652 537.787 582.951 545.467 584.667C548.394 585.32 549.439 584.371 549.867 581.956C551.093 575.007 552.329 568.055 553.272 561.067C553.423 559.968 552.374 558.179 551.354 557.533C545.493 553.848 539.682 549.97 533.439 547.015C528.052 544.471 522.31 541.713 515.655 544.313ZM565.431 506.736C558.117 510.014 551.146 513.126 544.191 516.276C543.675 516.508 543.319 517.119 542.796 517.295C541.128 517.844 539.302 518.909 537.733 518.635C531.595 517.557 525.434 516.386 519.482 514.573C514.874 513.172 511.761 514.415 509.114 518.033C508.353 519.074 507.441 520.016 506.686 521.06C502.915 526.327 503.361 527.518 509.579 528.942C510.725 529.204 511.891 529.397 513.037 529.659C520.979 531.504 528.911 533.445 535.338 538.867C537.803 540.951 539.748 540.958 542.041 538.731C547.446 533.467 553.992 530.647 561.434 529.354C564.69 528.789 567.777 526.994 570.81 525.497C573.213 524.309 573.681 522.246 572.394 519.841C570.071 515.485 567.766 511.12 565.431 506.736ZM541.781 479.786C531.527 477.15 521.769 474.57 511.944 472.269C511.162 472.087 509.164 473.724 509.04 474.682C507.871 483.755 506.924 492.865 506.113 501.977C506.033 502.884 507.083 504.543 507.912 504.775C517.387 507.468 526.915 509.954 537.158 512.693C538.738 501.434 540.221 490.9 541.781 479.786ZM573.265 466.714C573.265 466.714 570.78 467.333 570.5 467.494C563.368 471.579 557.192 475.071 550.22 479.421C548.803 480.309 547.721 482.526 547.433 484.28C546.437 490.421 545.872 496.631 545.099 502.81C544.849 504.824 544.448 506.815 544.018 509.459C545.904 508.732 547.134 508.378 548.249 507.817C553.713 505.083 559.214 502.409 564.572 499.486C574.882 493.864 574.95 493.792 574.586 482.076C574.42 476.981 573.723 471.898 573.265 466.714ZM557.571 630.983C557.46 628.317 557.439 624.03 557.045 619.774C556.824 617.414 555.122 616.008 552.703 615.869C546.73 615.53 540.722 614.788 534.777 615.126C526.056 615.621 521.918 623.114 525.494 631.046C526.215 632.647 527.115 634.184 528.033 635.697C531.125 640.773 535.68 642.771 541.535 642.037C548.025 641.204 553.646 639.022 557.571 630.983ZM531.137 606.434C544.05 611.372 556.996 606.818 562.827 595.982C564.884 592.162 564.298 590.379 560.135 587.533C557.131 585.48 555.342 587.951 553.978 589.663C552.269 591.808 550.57 592.115 548.151 591.585C542.063 590.252 535.972 588.872 529.823 587.896C524.896 587.107 521.493 591.119 522.605 595.897C523.838 601.222 526.678 605.117 531.137 606.434ZM557.191 579.553C558.961 578.305 560.132 577.721 560.991 576.834C565.05 572.601 568.986 568.257 573.028 564.009C575.131 561.797 575.601 559.207 575.608 556.253C575.616 550.022 575.916 543.788 576.07 537.555C576.085 536.92 575.935 536.278 575.794 535.089C570.116 541.06 564.778 546.627 559.525 552.267C559.088 552.738 559.107 553.74 559.12 554.494C559.172 557.64 559.613 560.807 559.342 563.921C558.907 568.839 558.018 573.71 557.191 579.553ZM554.479 444.991C548.382 438.742 540.684 438.623 534.3 444.282C530.635 447.53 529.979 450.914 532.156 455.311C536.01 463.104 547.749 464.667 553.155 457.866C554.319 456.401 555.117 453.212 554.307 451.904C552.722 449.293 552.311 447.306 554.479 444.991ZM565.431 463.494C562.599 460.494 559.71 461.292 555.251 464.613C547.265 470.566 537.203 469.742 530.073 462.582C529.514 462.025 528.593 461.06 528.218 461.213C524.7 462.641 521.5 463.494 519.482 465.994C528.627 469.492 535.606 471.894 544.274 474.41C544.793 474.561 545.501 474.567 545.952 474.324C552.746 470.673 558.663 467.193 565.431 463.494ZM544.129 545.628C549.857 550.947 551.828 550.965 556.864 545.855C557.934 544.772 559.026 543.705 560.071 542.588C562.267 540.261 564.442 537.91 567.096 535.059C562.827 532.994 549.877 538.7 544.129 545.628Z" fill="#1F1C1C"/>
<path d="M526.065 611.277C516.939 604.402 514.565 597.007 517.762 585.866C512.388 586.529 512.355 582.756 512.052 579.103C511.08 567.49 510.092 555.878 509.025 544.272C508.609 539.716 511.905 538.625 516.342 537.152C513.947 536.449 512.601 536.021 511.233 535.669C508.722 535.025 506.113 534.678 503.7 533.776C498.088 531.691 496.275 527.581 498.946 522.277C500.822 518.543 503.428 515.175 505.763 511.553C505.749 511.531 505.689 511.209 505.529 511.152C499.695 509.013 499.777 509.016 499.704 502.874C499.583 492.938 500.419 483.125 502.717 473.421C503.652 469.486 505.507 466.553 509.018 464.541C513.913 461.742 518.766 458.857 523.559 455.895C524.274 455.453 525.154 454.254 525.018 453.595C523.178 444.5 528.563 439.602 535.552 436.091C538.473 434.625 539.448 433.098 539.323 429.999C538.984 421.532 538.733 413.056 538.809 404.583C538.847 400.374 539.586 396.152 540.187 391.966C540.497 389.824 541.614 387.988 544.176 388.522C546.571 389.019 546.444 390.977 546.358 393.02C546.014 401.459 545.818 409.906 545.623 418.353C545.53 422.472 545.619 426.595 545.488 430.713C545.418 432.755 545.861 433.784 548.174 434.332C555.267 435.991 560.701 439.914 562.599 447.314C563.248 449.84 562.917 452.616 563.045 455.671C566.492 455.742 569.999 455.929 573.499 455.853C576.336 455.789 577.737 456.644 578.054 459.777C578.774 466.901 580.199 473.962 580.77 481.095C581.084 485.02 580.396 489.063 579.89 493.013C579.384 496.948 577.699 500.194 573.589 501.633C572.742 501.929 572.033 502.617 570.876 503.375C572.881 507.219 575.014 510.864 576.718 514.7C577.935 517.443 578.603 520.429 579.495 523.314C579.663 523.857 579.535 524.675 579.879 524.938C583.377 527.635 582.67 531.403 582.552 535.023C582.29 543.259 582.169 551.507 581.61 559.721C581.456 561.989 580.418 564.529 579 566.318C574.511 571.996 569.654 577.377 564.904 582.91C572.257 591.658 572.115 596.047 563.821 604.999C562.076 606.876 560.041 608.49 557.885 610.459C562.606 613.977 563.888 618.977 564.112 624.433C564.591 636.074 558.904 644.18 547.604 647.175C544.553 647.984 543.862 649.283 543.812 652.212C543.619 664.228 543.117 676.232 542.789 688.239C542.729 690.445 542.382 692.473 539.738 692.494C537.144 692.519 536.447 690.523 536.508 688.317C536.797 678.311 537.14 668.305 537.461 658.297C537.497 657.235 537.547 656.178 537.574 655.12C537.702 649.289 537.695 649.286 532.185 647.287C524.74 644.583 516.351 631.843 517.703 624.006C518.299 620.544 520.847 617.375 522.741 614.214C523.446 613.088 524.8 612.373 526.065 611.277ZM515.655 544.313C516.476 555.138 517.326 565.571 518.021 576.009C518.209 578.844 519.3 580.061 522.217 580.496C530.004 581.652 537.787 582.951 545.467 584.667C548.394 585.32 549.439 584.371 549.867 581.956C551.093 575.007 552.329 568.055 553.272 561.067C553.423 559.968 552.374 558.179 551.354 557.533C545.493 553.848 539.682 549.97 533.439 547.015C528.052 544.471 522.31 541.713 515.655 544.313ZM565.431 506.736C558.117 510.014 551.146 513.126 544.191 516.276C543.675 516.508 543.319 517.119 542.796 517.295C541.128 517.844 539.302 518.909 537.733 518.635C531.595 517.557 525.434 516.386 519.482 514.573C514.874 513.172 511.761 514.415 509.114 518.033C508.353 519.074 507.441 520.016 506.686 521.06C502.915 526.327 503.361 527.518 509.579 528.942C510.725 529.204 511.891 529.397 513.037 529.659C520.979 531.504 528.911 533.445 535.338 538.867C537.803 540.951 539.748 540.958 542.041 538.731C547.446 533.467 553.992 530.647 561.434 529.354C564.69 528.789 567.777 526.994 570.81 525.497C573.213 524.309 573.681 522.246 572.394 519.841C570.071 515.485 567.766 511.12 565.431 506.736ZM541.781 479.786C531.527 477.15 521.769 474.57 511.944 472.269C511.162 472.087 509.164 473.724 509.04 474.682C507.871 483.755 506.924 492.865 506.113 501.977C506.033 502.884 507.083 504.543 507.912 504.775C517.387 507.468 526.915 509.954 537.158 512.693C538.738 501.434 540.221 490.9 541.781 479.786ZM573.265 466.714C573.265 466.714 570.78 467.333 570.5 467.494C563.368 471.579 557.192 475.071 550.22 479.421C548.803 480.309 547.721 482.526 547.433 484.28C546.437 490.421 545.872 496.631 545.099 502.81C544.849 504.824 544.448 506.815 544.018 509.459C545.904 508.732 547.134 508.378 548.249 507.817C553.713 505.083 559.214 502.409 564.572 499.486C574.882 493.864 574.95 493.792 574.586 482.076C574.42 476.981 573.723 471.898 573.265 466.714ZM557.571 630.983C557.46 628.317 557.439 624.03 557.045 619.774C556.824 617.414 555.122 616.008 552.703 615.869C546.73 615.53 540.722 614.788 534.777 615.126C526.056 615.621 521.918 623.114 525.494 631.046C526.215 632.647 527.115 634.184 528.033 635.697C531.125 640.773 535.68 642.771 541.535 642.037C548.025 641.204 553.646 639.022 557.571 630.983ZM531.137 606.434C544.05 611.372 556.996 606.818 562.827 595.982C564.884 592.162 564.298 590.379 560.135 587.533C557.131 585.48 555.342 587.951 553.978 589.663C552.269 591.808 550.57 592.115 548.151 591.585C542.063 590.252 535.972 588.872 529.823 587.896C524.896 587.107 521.493 591.119 522.605 595.897C523.838 601.222 526.678 605.117 531.137 606.434ZM557.191 579.553C558.961 578.305 560.132 577.721 560.991 576.834C565.05 572.601 568.986 568.257 573.028 564.009C575.131 561.797 575.601 559.207 575.608 556.253C575.616 550.022 575.916 543.788 576.07 537.555C576.085 536.92 575.935 536.278 575.794 535.089C570.116 541.06 564.778 546.627 559.525 552.267C559.088 552.738 559.107 553.74 559.12 554.494C559.172 557.64 559.613 560.807 559.342 563.921C558.907 568.839 558.018 573.71 557.191 579.553ZM554.479 444.991C548.382 438.742 540.684 438.623 534.3 444.282C530.635 447.53 529.979 450.914 532.156 455.311C536.01 463.104 547.749 464.667 553.155 457.866C554.319 456.401 555.117 453.212 554.307 451.904C552.722 449.293 552.311 447.306 554.479 444.991ZM565.431 463.494C562.599 460.494 559.71 461.292 555.251 464.613C547.265 470.566 537.203 469.742 530.073 462.582C529.514 462.025 528.593 461.06 528.218 461.213C524.7 462.641 521.5 463.494 519.482 465.994C528.627 469.492 535.606 471.894 544.274 474.41C544.793 474.561 545.501 474.567 545.952 474.324C552.746 470.673 558.663 467.193 565.431 463.494ZM544.129 545.628C549.857 550.947 551.828 550.965 556.864 545.855C557.934 544.772 559.026 543.705 560.071 542.588C562.267 540.261 564.442 537.91 567.096 535.059C562.827 532.994 549.877 538.7 544.129 545.628Z" stroke="#F0E9DF" stroke-width="34" mask="url(#path-1-outside-1_101_51)"/>
</svg>
