<svg width="1920" height="1080" viewBox="0 0 1920 1080" fill="none" xmlns="http://www.w3.org/2000/svg">
<g clip-path="url(#clip0_1_19)">
<rect width="1920" height="1080" fill="#F0E9DF"/>
<rect y="545.293" width="1920" height="540" fill="#242424"/>
<rect y="5.29272" width="1920" height="540" fill="#F0E9DF"/>
<g clip-path="url(#clip1_1_19)">
<path d="M1279.09 279.683C1277.17 274.183 1274.46 269.251 1271.05 264.955C1270.2 263.87 1269.3 262.831 1268.35 261.84C1270.7 259.173 1272.64 256.175 1274.13 252.895C1276.34 248.104 1277.43 242.864 1277.43 237.294C1277.43 231.394 1276.19 225.446 1273.78 219.64C1271.22 213.48 1267.17 207.957 1261.79 203.19C1256.69 198.705 1250.29 195.118 1242.73 192.498C1235.46 190.02 1227.19 188.793 1217.45 188.793C1207.87 188.793 1199.03 190.185 1191.19 192.947C1184.55 195.283 1178.68 198.446 1173.51 202.34C1170.38 199.555 1166.73 197.337 1162.56 195.802C1158.13 194.174 1153.18 193.348 1147.84 193.348C1141.52 193.348 1135.81 194.575 1130.85 196.982C1127.18 198.776 1123.98 201.018 1121.28 203.709C1118.46 201.302 1115.45 199.13 1112.3 197.266C1103.41 192.003 1093.53 189.359 1082.86 189.359C1076.11 189.359 1069.47 190.681 1063.12 193.253C1057.29 195.637 1051.77 199.012 1046.72 203.237C1044.28 205.29 1041.94 207.532 1039.71 209.987C1036.32 206.282 1032.41 203.143 1028 200.664C1023.81 198.304 1019.23 196.416 1014.45 195.071C1010.06 193.843 1005.42 192.97 1000.68 192.498C996.389 192.073 992.076 191.837 987.834 191.837C984.871 191.837 982.099 191.908 979.634 192.026C977.43 192.144 975.297 192.262 973.259 192.38L967.216 192.711C963.638 192.923 959.183 192.923 952.618 192.569C949.371 192.404 945.959 192.05 942.475 191.507C934.868 190.35 927.332 193.843 923.375 200.334C920.862 198.965 918.327 197.761 915.696 196.746C910.127 194.599 904.345 193.135 898.515 192.427C890.173 191.389 881.926 191.342 875.528 191.672C873.324 191.79 871.262 191.908 869.343 192.026L863.75 192.333C860.053 192.569 855.953 192.475 850.502 192.168C847.327 191.979 843.914 191.578 840.336 191.011C837.468 190.539 834.601 190.775 831.947 191.554C829.174 190.728 826.212 190.539 823.297 191.058C819.837 191.672 815.903 192.215 811.495 192.687C807.774 193.112 803.272 193.489 798.153 193.796C789.124 194.363 778.483 194.528 767.274 193.749C762.321 193.419 757.202 192.876 752.06 192.144C745.519 191.224 739.05 193.773 734.855 198.776C734.025 198.304 733.196 197.832 732.367 197.431C727.911 195.212 723.361 193.607 718.859 192.64C711.299 191.035 705.232 191.011 697.743 191.767C695.137 192.026 692.459 192.309 689.662 192.593C686.984 192.876 684.283 193.135 681.534 193.371C676.889 193.796 672.292 193.796 667.931 193.277C666.059 193.041 664.282 192.663 662.623 192.144C655.371 189.878 647.456 192.168 642.527 197.927C637.597 203.685 636.602 211.828 639.991 218.602C640.607 219.829 641.555 222.095 642.55 225.965C643.522 229.671 644.351 233.895 645.015 238.521C645.702 243.336 646.247 248.599 646.626 254.193C647.005 259.857 647.195 265.71 647.195 271.587C647.195 277.039 647.029 282.586 646.721 288.108C646.413 293.608 645.915 299.036 645.276 304.276C644.659 309.421 643.854 314.424 642.906 319.168C642.029 323.582 640.986 327.688 639.778 331.394C637.526 338.285 639.541 345.814 644.802 350.842C648.38 354.24 653.12 356.058 657.93 356.058C660.182 356.058 662.457 355.656 664.637 354.854C664.661 354.854 665.466 354.547 667.765 354.075C668.784 353.863 670.727 353.532 674.187 353.202C679.188 352.706 686.984 352.588 696.819 353.131C701.109 353.367 706.085 353.792 711.607 354.382C718.882 355.161 725.992 351.691 729.831 345.437C729.973 345.201 730.068 344.965 730.21 344.729C730.803 346.074 731.537 347.372 732.461 348.576C736.087 353.273 741.68 355.94 747.486 355.94C748.695 355.94 749.927 355.822 751.159 355.585C754.122 354.995 757.25 354.523 760.449 354.146C763.767 353.768 767.037 353.461 770.189 353.249C773.341 353.037 776.327 352.919 779.005 352.848C781.872 352.801 784.361 352.753 786.446 352.753C790.972 352.753 795.191 352.777 799.077 352.8C802.75 352.824 806.21 352.919 809.362 353.084C812.514 353.249 815.524 353.461 818.296 353.745C820.832 354.004 823.368 354.358 825.785 354.83C827.373 355.137 828.984 355.208 830.572 355.113C832.539 355.585 834.553 355.798 836.615 355.609C840.265 355.302 843.701 355.09 846.877 354.995C850.171 354.877 853.228 354.83 855.977 354.83C857.327 354.83 859.816 354.901 863.939 355.302C868.513 355.727 873.75 355.94 879.959 355.94C884.012 355.94 888.467 355.633 893.515 355.019C899.131 354.335 904.866 352.966 910.601 350.936C913.895 349.779 917.142 348.316 920.365 346.664C920.507 346.924 920.626 347.183 920.791 347.443C925.247 354.193 933.517 357.356 941.361 355.326C943.779 354.712 946.67 354.264 949.917 354.028C956.931 353.532 964.136 353.509 970.7 353.792C973.496 353.91 975.961 354.099 978.07 354.287C979.397 354.405 980.321 354.523 980.961 354.618C982.194 355.09 983.473 355.444 984.8 355.68C987.312 356.86 990.061 357.474 992.858 357.474C994.801 357.474 996.768 357.167 998.664 356.577C998.711 356.577 999.635 356.27 1002.12 355.892C1004 355.609 1006.6 355.326 1009.83 355.043C1014.49 354.641 1021.41 354.547 1030.16 354.759C1033.1 354.83 1036.27 355.019 1039.64 355.255C1044.19 355.609 1048.5 354.311 1052.01 351.856C1052.15 351.927 1052.29 352.022 1052.44 352.092C1061.27 356.884 1071.51 359.315 1082.89 359.315C1094.31 359.315 1104.6 356.884 1113.41 352.092C1122.06 347.396 1129.29 340.929 1134.93 332.834C1140.17 325.328 1144.08 316.572 1146.59 306.777C1148.84 297.974 1149.98 288.533 1150.07 278.715C1150.69 278.786 1151.3 278.833 1151.94 278.833C1154.67 278.833 1157.32 278.243 1159.79 277.11C1160.19 277.7 1160.59 278.29 1161.02 278.857C1161.42 279.376 1161.85 279.895 1162.28 280.391C1158.67 283.789 1155.83 287.872 1153.77 292.569C1151.59 297.573 1150.47 303.19 1150.47 309.279C1150.47 317.374 1152.54 325.021 1156.61 331.984C1160.26 338.238 1165.14 343.69 1171.14 348.222C1176.8 352.494 1183.39 355.869 1190.69 358.252C1197.92 360.613 1205.57 361.816 1213.46 361.816C1222.16 361.816 1230.65 360.353 1238.66 357.497C1246.81 354.571 1254.15 350.37 1260.46 344.941C1266.93 339.395 1272.17 332.621 1276.03 324.833C1280.03 316.737 1282.07 307.769 1282.07 298.21C1282 291.413 1281 285.182 1279.09 279.683ZM682.079 314.967C682.363 313.055 682.624 311.144 682.861 309.185C683.169 310.624 683.525 312.088 683.904 313.527C684.022 313.999 684.141 314.448 684.283 314.92C683.525 314.967 682.79 314.967 682.079 314.967ZM683.596 239.088C683.524 239.253 683.453 239.442 683.382 239.607C683.122 237.365 682.837 235.194 682.553 233.093C682.458 232.432 682.363 231.795 682.268 231.158C683.169 231.11 684.07 231.04 684.946 230.945C686.131 230.851 687.293 230.733 688.454 230.615C686.487 233.093 684.852 235.925 683.596 239.088ZM721.11 278.101C722.271 276.685 723.409 275.222 724.499 273.711C725.589 272.177 726.632 270.62 727.556 269.015C727.485 269.204 727.414 269.369 727.366 269.534C726.324 272.177 724.996 274.349 723.456 276.024C722.698 276.827 721.916 277.511 721.11 278.101ZM732.272 322.992C731.75 325.257 731.229 326.768 730.874 327.736C730.471 326.862 730.02 326.013 729.475 325.187C727.698 322.496 726.205 319.782 725.02 317.044C728.054 316.336 731.04 315.321 733.978 314.047C733.48 317.162 732.935 320.183 732.272 322.992ZM773.388 231.889C773.151 232.243 772.938 232.574 772.725 232.928C772.701 232.574 772.654 232.22 772.63 231.842C772.867 231.866 773.128 231.866 773.388 231.889ZM772.085 315.25C772.274 313.763 772.464 312.253 772.606 310.742C773.483 312.324 774.478 313.763 775.592 315.109C774.455 315.156 773.27 315.203 772.085 315.25ZM775.071 271.587C774.881 271.823 774.692 272.059 774.526 272.295C774.526 271.941 774.502 271.044 774.478 269.652C774.478 269.652 774.478 269.416 774.478 269.392C774.478 269.085 774.478 268.755 774.455 268.401C774.644 268.684 774.858 268.944 775.047 269.203C775.355 269.628 775.687 270.03 776.042 270.431C775.711 270.808 775.379 271.21 775.071 271.587ZM867.494 317.658C865.266 317.445 863.228 317.28 861.356 317.186C861.996 314.141 862.541 311.073 863.015 308.005C863.181 306.966 863.323 305.928 863.489 304.913C863.679 305.833 863.892 306.73 864.105 307.58C865.124 311.521 866.475 314.896 868.229 317.728C867.992 317.705 867.731 317.681 867.494 317.658ZM864.745 239.418C864.413 236.397 864.01 233.329 863.56 230.261C863.56 230.237 863.56 230.19 863.536 230.166C864.437 230.143 865.314 230.096 866.167 230.025L868.94 229.86C867.233 232.527 865.835 235.689 864.745 239.418ZM916.36 254.028C915.957 249.638 915.412 245.838 914.654 242.557C916.478 245.625 917.995 249.638 919.18 254.452C920.507 259.763 921.171 266.442 921.171 274.301C921.171 281.689 920.412 287.872 918.919 292.734C917.782 296.393 916.431 299.532 914.867 302.151C916.336 294.717 917.023 285.135 917.023 272.437C917.047 265.12 916.834 259.102 916.36 254.028ZM963.899 315.817C963.993 315.274 964.088 314.707 964.183 314.141C964.467 312.489 964.728 310.837 964.965 309.208C965.083 311.332 965.249 313.551 965.439 315.84C964.941 315.84 964.42 315.817 963.899 315.817ZM967.24 240.055C967.003 236.822 966.648 233.612 966.221 230.497C967.311 230.473 968.378 230.426 969.373 230.355L971.529 230.237C969.681 233.211 968.259 236.492 967.24 240.055ZM1109.81 297.431C1108.43 302.836 1106.4 307.485 1103.74 311.309C1101.47 314.566 1098.69 317.068 1095.23 318.932C1092.04 320.679 1087.86 321.552 1082.84 321.552C1077.89 321.552 1073.74 320.679 1070.54 318.932C1067.08 317.044 1064.26 314.542 1061.96 311.262C1059.31 307.485 1057.27 302.836 1055.9 297.455C1055.4 295.472 1054.97 293.419 1054.62 291.318C1055.21 292.9 1055.87 294.386 1056.61 295.803C1058.95 300.358 1062.03 304.134 1065.78 307.061C1070.68 310.884 1076.58 312.914 1082.84 312.914C1088.91 312.914 1094.71 310.955 1099.62 307.273C1103.48 304.37 1106.68 300.57 1109.1 295.991C1109.76 294.74 1110.38 293.419 1110.95 292.026C1110.64 293.867 1110.26 295.685 1109.81 297.431ZM1190.95 255.727C1190.52 255.184 1190.17 254.405 1189.86 253.414C1189.7 252.895 1189.48 251.903 1189.34 250.299C1189.6 251.03 1189.86 251.738 1190.17 252.446C1190.93 254.216 1191.83 255.963 1192.87 257.615C1192.09 257.001 1191.47 256.388 1190.95 255.727ZM1241.95 308.146C1241.5 309.09 1240.98 309.964 1240.46 310.813C1241.14 308.406 1241.5 305.928 1241.5 303.426C1241.5 297.974 1239.98 292.664 1236.97 287.66C1235.88 285.819 1234.6 284.096 1233.16 282.468C1234.91 283.364 1236.59 284.356 1238.13 285.418C1239.37 286.267 1240.43 287.259 1241.36 288.415C1242.12 289.383 1242.78 290.634 1243.3 292.121C1243.66 293.136 1244.08 295.024 1244.08 298.186C1244.08 301.986 1243.37 305.243 1241.95 308.146Z" fill="#242424"/>
<path d="M1166.16 230.119C1166.16 232.456 1165.71 235.052 1164.79 237.908C1163.86 240.764 1162.73 243.596 1161.35 246.381C1159.98 249.189 1158.44 251.786 1156.75 254.169C1155.07 256.577 1153.44 258.488 1151.9 259.905L1134.43 257.851C1136.26 256.435 1137.96 254.83 1139.5 253.06C1141.04 251.29 1142.49 249.425 1143.79 247.49C1141.68 247.325 1139.74 246.758 1137.99 245.767C1136.23 244.8 1134.74 243.549 1133.46 241.991C1132.18 240.433 1131.23 238.663 1130.54 236.633C1129.86 234.604 1129.5 232.432 1129.5 230.072C1129.5 228.137 1129.81 226.131 1130.45 224.03C1131.09 221.953 1132.11 220.018 1133.51 218.248C1134.9 216.478 1136.78 215.014 1139.15 213.881C1141.49 212.748 1144.38 212.158 1147.84 212.158C1150.95 212.158 1153.65 212.583 1155.97 213.433C1158.3 214.283 1160.19 215.51 1161.68 217.068C1163.18 218.649 1164.29 220.513 1165.05 222.732C1165.81 224.974 1166.16 227.429 1166.16 230.119Z" fill="#E8A938"/>
<path d="M747.865 260.164C747.865 266.23 746.893 271.658 744.974 276.473C743.054 281.288 740.519 285.418 737.367 288.817C734.215 292.215 730.613 294.835 726.537 296.652C722.461 298.47 718.242 299.39 713.905 299.39C711.488 299.39 709.118 299.131 706.772 298.588C704.426 298.045 702.104 297.148 699.805 295.897C700.326 300.122 701.156 304.464 702.293 308.925C703.265 312.749 704.663 317.021 706.464 321.717C708.265 326.438 710.659 331.04 713.645 335.548C707.791 334.911 702.53 334.486 697.862 334.226C693.193 333.967 688.951 333.849 685.183 333.849C680.088 333.849 675.799 334.014 672.315 334.368C668.855 334.698 666.011 335.099 663.855 335.571C661.319 336.091 659.328 336.634 657.835 337.2C659.257 332.81 660.513 328.019 661.532 322.803C662.575 317.611 663.428 312.182 664.115 306.518C664.803 300.877 665.324 295.095 665.656 289.171C666.011 283.27 666.177 277.393 666.177 271.564C666.177 265.215 665.988 259.008 665.585 252.942C665.182 246.853 664.589 241.141 663.831 235.807C663.049 230.473 662.101 225.611 660.94 221.198C659.755 216.808 658.452 213.126 656.959 210.152C659.708 211.002 662.599 211.616 665.608 211.993C668.618 212.371 671.675 212.56 674.756 212.56C677.576 212.56 680.396 212.442 683.24 212.182C686.084 211.922 688.88 211.663 691.629 211.38C694.378 211.096 697.032 210.79 699.615 210.53C702.199 210.27 704.592 210.152 706.843 210.152C709.261 210.152 711.939 210.459 714.877 211.096C717.839 211.734 720.825 212.796 723.859 214.306C726.892 215.817 729.854 217.823 732.722 220.348C735.589 222.874 738.149 225.965 740.376 229.694C742.604 233.4 744.405 237.766 745.756 242.793C747.107 247.821 747.794 253.603 747.865 260.164ZM698.833 274.136C700.255 272.767 701.914 271.092 703.786 269.133C705.658 267.174 707.412 265.026 709.071 262.713C710.73 260.4 712.128 258.016 713.242 255.562C714.356 253.107 714.925 250.771 714.925 248.529C714.925 245.956 714.19 243.926 712.744 242.416C711.275 240.905 709.663 240.15 707.886 240.15C706.275 240.15 704.948 240.693 703.881 241.779C702.815 242.864 701.938 244.28 701.251 246.027C700.563 247.773 700.042 249.709 699.71 251.856C699.378 254.004 699.118 256.105 698.928 258.205C698.762 260.282 698.668 262.241 698.668 264.035C698.668 265.829 698.668 267.245 698.668 268.283C698.668 269.251 698.668 270.219 698.668 271.186C698.668 272.154 698.715 273.098 698.833 274.136Z" fill="#F0E9DF"/>
<path d="M829.34 336.232C826.354 335.666 823.297 335.217 820.168 334.911C817.04 334.604 813.746 334.344 810.286 334.179C806.826 334.014 803.129 333.919 799.195 333.872C795.262 333.848 791.02 333.825 786.422 333.825C784.242 333.825 781.659 333.848 778.625 333.919C775.616 333.966 772.369 334.108 768.909 334.344C765.449 334.58 761.871 334.911 758.198 335.335C754.524 335.76 750.946 336.327 747.439 337.011C748.695 334.439 749.785 331.205 750.709 327.287C751.633 323.369 752.391 319.215 752.984 314.826C753.576 310.436 754.05 305.951 754.406 301.373C754.738 296.794 754.998 292.546 755.188 288.604C755.354 284.663 755.449 281.24 755.496 278.361C755.52 275.482 755.543 273.499 755.543 272.413C755.543 272.177 755.52 271.304 755.496 269.746C755.472 268.212 755.425 266.206 755.377 263.752C755.33 261.297 755.235 258.488 755.117 255.326C754.998 252.163 754.832 248.859 754.643 245.437C754.429 242.015 754.193 238.545 753.861 235.076C753.553 231.583 753.173 228.302 752.747 225.187C752.32 222.071 751.823 219.286 751.278 216.784C750.733 214.306 750.093 212.324 749.334 210.837C754.951 211.639 760.496 212.229 765.923 212.583C771.374 212.961 776.635 213.15 781.754 213.15C788.01 213.15 793.84 212.984 799.29 212.63C804.741 212.276 809.504 211.899 813.557 211.427C818.32 210.908 822.633 210.318 826.543 209.633V249.803C823.226 246.711 820.026 244.351 816.993 242.699C813.96 241.047 811.258 239.82 808.912 239.017C806.163 238.097 803.58 237.601 801.162 237.483C798.295 237.483 795.949 237.837 794.148 238.545C792.347 239.253 790.925 240.174 789.929 241.283C788.934 242.392 788.247 243.643 787.915 245.059C787.583 246.452 787.394 247.868 787.394 249.307C787.394 250.794 787.607 252.281 788.034 253.768C788.46 255.255 789.147 256.6 790.048 257.804C790.949 259.008 792.157 259.975 793.626 260.754C795.096 261.533 796.826 261.911 798.84 261.911C800.499 261.911 802.016 261.533 803.39 260.754C804.765 259.975 805.949 259.102 806.921 258.134C808.059 257.049 809.125 255.798 810.097 254.358V289.218C809.172 287.046 808.106 285.324 806.874 284.073C805.641 282.822 804.433 281.901 803.272 281.288C802.087 280.698 801.044 280.32 800.096 280.178C799.148 280.037 798.508 279.966 798.153 279.966C794.432 279.966 791.636 281.099 789.811 283.388C787.986 285.678 787.062 288.604 787.062 292.215C787.062 294.835 787.37 297.077 787.963 298.894C788.555 300.712 789.361 302.199 790.38 303.355C791.375 304.488 792.56 305.314 793.911 305.833C795.262 306.353 796.683 306.612 798.176 306.612C800.475 306.612 802.94 306.093 805.57 305.078C808.201 304.04 810.737 302.671 813.177 300.971C815.618 299.272 817.846 297.313 819.884 295.095C821.922 292.9 823.534 290.657 824.742 288.368L829.34 336.232Z" fill="#F0E9DF"/>
<path d="M940.153 274.302C940.153 283.601 939.11 291.602 937.048 298.281C934.986 304.96 932.261 310.625 928.872 315.274C925.483 319.924 921.644 323.676 917.355 326.485C913.066 329.317 908.681 331.512 904.25 333.07C899.795 334.651 895.458 335.689 891.216 336.185C886.974 336.704 883.206 336.964 879.959 336.964C874.39 336.964 869.65 336.775 865.716 336.398C861.783 336.02 858.536 335.831 855.953 335.831C853.038 335.831 849.791 335.878 846.237 335.996C842.682 336.114 838.937 336.35 834.98 336.681C836.52 333.896 837.895 330.757 839.056 327.311C840.217 323.865 841.26 320.254 842.113 316.478C842.966 312.701 843.701 308.902 844.293 305.055C844.886 301.207 845.407 297.478 845.81 293.867C846.734 285.418 847.232 276.733 847.35 267.835C847.232 258.984 846.805 250.676 846.071 242.911C845.715 239.607 845.312 236.279 844.815 232.928C844.317 229.577 843.748 226.414 843.061 223.416C842.374 220.419 841.568 217.729 840.62 215.321C839.672 212.914 838.558 211.002 837.302 209.586C841.544 210.27 845.573 210.719 849.388 210.955C853.204 211.191 856.569 211.309 859.484 211.309C861.38 211.309 863.204 211.262 864.982 211.144C866.759 211.026 868.584 210.908 870.48 210.813C872.376 210.695 874.39 210.577 876.547 210.459C878.703 210.341 881.12 210.294 883.822 210.294C887.708 210.294 891.832 210.554 896.169 211.096C900.506 211.639 904.747 212.701 908.895 214.306C913.042 215.911 917.023 218.153 920.815 221.08C924.607 223.983 927.924 227.806 930.792 232.55C933.659 237.294 935.934 243.077 937.617 249.898C939.3 256.766 940.153 264.885 940.153 274.302ZM898.088 272.413C898.088 265.734 897.899 260.164 897.496 255.704C897.093 251.243 896.501 247.655 895.742 244.965C894.96 242.251 894.012 240.339 892.851 239.182C891.713 238.05 890.386 237.459 888.893 237.459C887.566 237.459 886.381 238.12 885.315 239.466C884.249 240.811 883.348 242.959 882.613 245.932C881.879 248.906 881.286 252.706 880.883 257.356C880.48 262.005 880.291 267.646 880.291 274.278C880.291 281.241 880.481 287.047 880.86 291.696C881.239 296.346 881.784 300.075 882.495 302.883C883.206 305.692 884.106 307.674 885.173 308.831C886.239 310.011 887.471 310.577 888.917 310.577C891.737 310.577 893.965 307.533 895.624 301.42C897.259 295.354 898.088 285.678 898.088 272.413Z" fill="#F0E9DF"/>
<path d="M1041.08 336.397C1037.36 336.114 1033.88 335.925 1030.63 335.831C1027.39 335.737 1024.4 335.713 1021.65 335.713C1016.27 335.713 1011.77 335.878 1008.14 336.185C1004.54 336.492 1001.58 336.822 999.28 337.176C996.578 337.578 994.445 338.026 992.834 338.545C993.071 336.775 993.284 335.123 993.521 333.565C993.758 332.008 993.948 330.521 994.09 329.057C994.232 327.594 994.351 326.154 994.422 324.691C994.516 323.228 994.54 321.717 994.54 320.112C994.54 313.834 994.303 308.595 993.806 304.441C993.308 300.263 992.621 296.794 991.696 293.985C990.772 291.177 989.658 288.935 988.331 287.212C987.004 285.489 985.559 283.955 983.947 282.586C983.829 285.158 983.757 287.637 983.686 290.044C983.639 292.451 983.592 294.977 983.592 297.667C983.592 300.287 983.639 303.025 983.757 305.881C983.876 308.736 984.066 311.757 984.35 314.967C984.634 318.177 985.061 321.576 985.63 325.21C986.198 328.845 986.909 332.763 987.786 336.988C987.739 336.752 986.98 336.492 985.559 336.209C984.137 335.925 982.193 335.666 979.8 335.43C977.383 335.194 974.634 335.005 971.505 334.863C968.377 334.722 965.131 334.651 961.742 334.651C957.334 334.651 952.902 334.816 948.494 335.123C944.087 335.43 940.105 336.043 936.551 336.964C937.925 335.194 939.181 332.952 940.295 330.237C941.409 327.523 942.404 324.549 943.257 321.292C944.11 318.035 944.845 314.613 945.461 311.026C946.077 307.438 946.599 303.898 947.049 300.405C948.092 292.239 948.779 283.53 949.111 274.278C949.111 271.989 949.134 269.109 949.158 265.616C949.182 262.123 949.134 258.347 948.992 254.217C948.85 250.086 948.613 245.885 948.305 241.543C947.997 237.2 947.475 233.046 946.764 229.034C946.054 225.021 945.106 221.387 943.968 218.059C942.831 214.755 941.361 212.088 939.584 210.082C943.707 210.719 947.736 211.12 951.623 211.332C955.509 211.521 958.851 211.639 961.6 211.639C964.017 211.639 966.221 211.592 968.259 211.474C970.297 211.356 972.311 211.238 974.326 211.12C976.34 211.002 978.425 210.884 980.606 210.79C982.786 210.672 985.203 210.624 987.834 210.624C991.436 210.624 995.085 210.813 998.758 211.191C1002.43 211.568 1005.94 212.229 1009.3 213.15C1012.67 214.094 1015.77 215.368 1018.69 216.997C1021.58 218.625 1024.12 220.679 1026.25 223.157C1028.4 225.635 1030.09 228.632 1031.32 232.102C1032.55 235.571 1033.17 239.631 1033.17 244.257C1033.17 246.829 1032.84 249.402 1032.17 251.974C1031.51 254.547 1030.44 257.072 1028.95 259.551C1027.46 262.029 1025.51 264.413 1023.14 266.655C1020.77 268.92 1017.86 270.974 1014.42 272.862C1018.5 274.514 1021.58 276.567 1023.67 279.022C1025.75 281.476 1027.27 284.285 1028.19 287.424C1029.12 290.563 1029.61 293.985 1029.68 297.667C1029.78 301.349 1029.87 305.196 1029.99 309.185C1030.23 313.457 1030.77 317.445 1031.63 321.08C1031.96 322.614 1032.41 324.195 1032.96 325.8C1033.5 327.405 1034.16 328.892 1034.92 330.261C1035.7 331.63 1036.58 332.857 1037.6 333.943C1038.6 335.099 1039.76 335.902 1041.08 336.397ZM983.971 262.572C985.227 261.651 986.649 260.495 988.236 259.102C989.824 257.71 991.27 256.152 992.621 254.476C993.971 252.8 995.109 251.007 996.009 249.119C996.934 247.231 997.384 245.342 997.384 243.454C997.384 241.637 996.863 240.15 995.796 238.994C994.73 237.861 993.545 237.271 992.218 237.271C990.393 237.271 988.924 238.12 987.834 239.796C986.743 241.472 985.89 243.454 985.298 245.744C984.705 248.033 984.303 250.322 984.089 252.635C983.9 254.948 983.781 256.742 983.781 257.993C983.781 258.677 983.781 259.409 983.781 260.188C983.805 260.99 983.876 261.769 983.971 262.572Z" fill="#F0E9DF"/>
<path d="M1131.11 277.653C1131.11 286.338 1130.14 294.481 1128.2 302.104C1126.26 309.728 1123.29 316.383 1119.34 322.071C1115.38 327.759 1110.38 332.244 1104.33 335.524C1098.29 338.805 1091.13 340.457 1082.89 340.457C1074.69 340.457 1067.55 338.805 1061.51 335.524C1055.47 332.244 1050.44 327.759 1046.46 322.071C1042.48 316.383 1039.52 309.728 1037.55 302.104C1035.61 294.481 1034.64 286.338 1034.64 277.653C1034.64 271.257 1035.23 265.097 1036.44 259.149C1037.65 253.202 1039.31 247.679 1041.42 242.534C1043.52 237.389 1046.08 232.715 1049.07 228.491C1052.06 224.266 1055.33 220.655 1058.93 217.658C1062.51 214.66 1066.32 212.324 1070.37 210.672C1074.43 209.019 1078.6 208.193 1082.89 208.193C1090.12 208.193 1096.68 209.94 1102.63 213.457C1108.58 216.973 1113.65 221.835 1117.84 228.066C1122.04 234.297 1125.33 241.637 1127.65 250.086C1129.95 258.512 1131.11 267.717 1131.11 277.653ZM1095.92 270.289C1095.92 266.017 1095.59 262.052 1094.88 258.418C1094.19 254.783 1093.27 251.644 1092.08 249.001C1090.9 246.334 1089.52 244.257 1087.91 242.746C1086.3 241.236 1084.62 240.48 1082.84 240.48C1081.11 240.48 1079.47 241.377 1077.93 243.171C1076.39 244.965 1075.02 247.301 1073.86 250.157C1072.67 253.013 1071.75 256.223 1071.06 259.739C1070.37 263.28 1070.02 266.796 1070.02 270.266C1070.02 273.641 1070.33 276.756 1070.92 279.636C1071.51 282.515 1072.37 285.017 1073.46 287.141C1074.55 289.265 1075.87 290.917 1077.46 292.144C1079.05 293.372 1080.83 293.985 1082.84 293.985C1084.78 293.985 1086.58 293.372 1088.22 292.144C1089.85 290.917 1091.23 289.241 1092.34 287.141C1093.46 285.04 1094.33 282.539 1094.97 279.636C1095.61 276.78 1095.92 273.641 1095.92 270.289Z" fill="#F0E9DF"/>
<path d="M1258.47 237.294C1258.47 240.15 1257.95 242.723 1256.88 245.036C1255.81 247.349 1254.34 249.331 1252.45 250.983C1250.55 252.635 1248.32 253.933 1245.79 254.83C1243.23 255.751 1240.46 256.199 1237.49 256.199C1234.22 256.199 1231.43 255.798 1229.11 254.995C1226.78 254.193 1224.84 253.178 1223.25 251.951C1221.66 250.724 1220.43 249.355 1219.51 247.844C1218.58 246.334 1217.9 244.87 1217.4 243.431C1216.9 242.015 1216.59 240.693 1216.45 239.489C1216.31 238.285 1216.24 237.389 1216.24 236.751C1216.92 237.884 1217.73 238.616 1218.65 238.946C1219.58 239.277 1220.34 239.418 1220.98 239.418C1222.59 239.418 1223.7 238.994 1224.37 238.144C1225.03 237.294 1225.36 236.374 1225.36 235.406C1225.36 234.769 1225.24 234.132 1224.98 233.447C1224.72 232.763 1224.27 232.125 1223.61 231.512C1222.94 230.922 1222.07 230.403 1220.93 230.025C1219.79 229.647 1218.42 229.435 1216.76 229.435C1215.62 229.435 1214.44 229.647 1213.23 230.072C1212.02 230.497 1210.93 231.158 1209.91 232.031C1208.91 232.928 1208.09 234.014 1207.47 235.335C1206.85 236.657 1206.52 238.191 1206.52 239.961C1206.52 241.684 1206.88 243.383 1207.59 245.059C1208.3 246.735 1209.27 248.34 1210.5 249.803C1211.73 251.266 1213.2 252.635 1214.89 253.839C1216.57 255.043 1218.42 256.034 1220.43 256.836C1223.58 258.158 1226.83 259.433 1230.2 260.683C1233.56 261.934 1236.81 263.303 1239.96 264.79C1243.11 266.277 1246.07 267.976 1248.87 269.888C1251.67 271.8 1254.08 274.066 1256.17 276.685C1258.25 279.305 1259.91 282.373 1261.15 285.89C1262.38 289.407 1262.99 293.49 1262.99 298.186C1262.99 304.866 1261.64 310.955 1258.92 316.478C1256.19 322 1252.54 326.697 1247.99 330.615C1243.44 334.533 1238.16 337.554 1232.16 339.702C1226.17 341.849 1219.91 342.912 1213.37 342.912C1207.47 342.912 1201.85 342.038 1196.52 340.292C1191.19 338.545 1186.52 336.161 1182.49 333.14C1178.49 330.119 1175.29 326.556 1172.89 322.473C1170.5 318.389 1169.31 313.976 1169.31 309.232C1169.31 305.739 1169.88 302.694 1171.04 300.075C1172.18 297.455 1173.79 295.26 1175.81 293.513C1177.85 291.767 1180.22 290.469 1182.94 289.619C1185.67 288.769 1188.58 288.345 1191.66 288.345C1194.08 288.345 1196.43 288.604 1198.75 289.123C1201.07 289.643 1203.25 290.398 1205.29 291.389C1207.33 292.38 1209.15 293.608 1210.79 295.024C1212.42 296.44 1213.73 298.068 1214.7 299.909C1213.49 299.555 1212.42 299.39 1211.52 299.39C1209.98 299.39 1208.75 299.839 1207.82 300.759C1206.9 301.679 1206.45 303.048 1206.45 304.866C1206.45 305.833 1206.69 306.73 1207.14 307.556C1207.59 308.382 1208.18 309.114 1208.89 309.751C1209.6 310.388 1210.43 310.861 1211.38 311.215C1212.33 311.569 1213.32 311.734 1214.34 311.734C1215.48 311.734 1216.55 311.498 1217.52 311.002C1218.49 310.506 1219.34 309.869 1220.1 309.067C1220.83 308.264 1221.43 307.391 1221.83 306.4C1222.23 305.432 1222.42 304.441 1222.42 303.402C1222.42 301.396 1221.81 299.367 1220.57 297.313C1219.34 295.26 1217.54 293.442 1215.19 291.838C1210.72 289.1 1206.5 286.716 1202.56 284.733C1198.61 282.727 1194.96 280.839 1191.64 279.046C1188.32 277.252 1185.31 275.434 1182.66 273.617C1180 271.8 1177.73 269.676 1175.86 267.268C1173.98 264.861 1172.56 262.052 1171.59 258.819C1170.62 255.585 1170.12 251.691 1170.12 247.136C1170.12 241.661 1171.19 236.515 1173.3 231.724C1175.41 226.933 1178.51 222.756 1182.54 219.168C1186.59 215.604 1191.52 212.796 1197.37 210.719C1203.23 208.665 1209.86 207.627 1217.33 207.627C1224.84 207.627 1231.19 208.524 1236.43 210.318C1241.64 212.111 1245.88 214.448 1249.11 217.304C1252.35 220.159 1254.7 223.346 1256.17 226.862C1257.76 230.403 1258.47 233.872 1258.47 237.294Z" fill="#F0E9DF"/>
</g>
<g clip-path="url(#clip2_1_19)">
<path d="M1279.09 819.683C1277.17 814.183 1274.46 809.251 1271.05 804.955C1270.2 803.87 1269.3 802.831 1268.35 801.84C1270.7 799.173 1272.64 796.175 1274.13 792.895C1276.34 788.104 1277.43 782.864 1277.43 777.294C1277.43 771.394 1276.19 765.446 1273.78 759.64C1271.22 753.48 1267.17 747.957 1261.79 743.19C1256.69 738.705 1250.29 735.118 1242.73 732.498C1235.46 730.02 1227.19 728.793 1217.45 728.793C1207.87 728.793 1199.03 730.185 1191.19 732.947C1184.55 735.283 1178.68 738.446 1173.51 742.34C1170.38 739.555 1166.73 737.337 1162.56 735.802C1158.13 734.174 1153.18 733.348 1147.84 733.348C1141.52 733.348 1135.81 734.575 1130.85 736.982C1127.18 738.776 1123.98 741.018 1121.28 743.709C1118.46 741.302 1115.45 739.13 1112.3 737.266C1103.41 732.003 1093.53 729.359 1082.86 729.359C1076.11 729.359 1069.47 730.681 1063.12 733.253C1057.29 735.637 1051.77 739.012 1046.72 743.237C1044.28 745.29 1041.94 747.532 1039.71 749.987C1036.32 746.282 1032.41 743.143 1028 740.664C1023.81 738.304 1019.23 736.416 1014.45 735.071C1010.06 733.843 1005.42 732.97 1000.68 732.498C996.389 732.073 992.076 731.837 987.834 731.837C984.871 731.837 982.099 731.908 979.634 732.026C977.43 732.144 975.297 732.262 973.259 732.38L967.216 732.711C963.638 732.923 959.183 732.923 952.618 732.569C949.371 732.404 945.959 732.05 942.475 731.507C934.868 730.35 927.332 733.843 923.375 740.334C920.862 738.965 918.327 737.761 915.696 736.746C910.127 734.599 904.345 733.135 898.515 732.427C890.173 731.389 881.926 731.342 875.528 731.672C873.324 731.79 871.262 731.908 869.343 732.026L863.75 732.333C860.053 732.569 855.953 732.475 850.502 732.168C847.327 731.979 843.914 731.578 840.336 731.011C837.468 730.539 834.601 730.775 831.947 731.554C829.174 730.728 826.212 730.539 823.297 731.058C819.837 731.672 815.903 732.215 811.495 732.687C807.774 733.112 803.272 733.489 798.153 733.796C789.124 734.363 778.483 734.528 767.274 733.749C762.321 733.419 757.202 732.876 752.06 732.144C745.519 731.224 739.05 733.773 734.855 738.776C734.025 738.304 733.196 737.832 732.367 737.431C727.911 735.212 723.361 733.607 718.859 732.64C711.299 731.035 705.232 731.011 697.743 731.767C695.137 732.026 692.459 732.309 689.662 732.593C686.984 732.876 684.283 733.135 681.534 733.371C676.889 733.796 672.292 733.796 667.931 733.277C666.059 733.041 664.282 732.663 662.623 732.144C655.371 729.878 647.456 732.168 642.527 737.927C637.597 743.685 636.602 751.828 639.991 758.602C640.607 759.829 641.555 762.095 642.55 765.965C643.522 769.671 644.351 773.895 645.015 778.521C645.702 783.336 646.247 788.599 646.626 794.193C647.005 799.857 647.195 805.71 647.195 811.587C647.195 817.039 647.029 822.586 646.721 828.108C646.413 833.608 645.915 839.036 645.276 844.276C644.659 849.421 643.854 854.424 642.906 859.168C642.029 863.582 640.986 867.688 639.778 871.394C637.526 878.285 639.541 885.814 644.802 890.842C648.38 894.24 653.12 896.058 657.93 896.058C660.182 896.058 662.457 895.656 664.637 894.854C664.661 894.854 665.466 894.547 667.765 894.075C668.784 893.863 670.727 893.532 674.187 893.202C679.188 892.706 686.984 892.588 696.819 893.131C701.109 893.367 706.085 893.792 711.607 894.382C718.882 895.161 725.992 891.691 729.831 885.437C729.973 885.201 730.068 884.965 730.21 884.729C730.803 886.074 731.537 887.372 732.461 888.576C736.087 893.273 741.68 895.94 747.486 895.94C748.695 895.94 749.927 895.822 751.159 895.585C754.122 894.995 757.25 894.523 760.449 894.146C763.767 893.768 767.037 893.461 770.189 893.249C773.341 893.037 776.327 892.919 779.005 892.848C781.872 892.801 784.361 892.753 786.446 892.753C790.972 892.753 795.191 892.777 799.077 892.8C802.75 892.824 806.21 892.919 809.362 893.084C812.514 893.249 815.524 893.461 818.296 893.745C820.832 894.004 823.368 894.358 825.785 894.83C827.373 895.137 828.984 895.208 830.572 895.113C832.539 895.585 834.553 895.798 836.615 895.609C840.265 895.302 843.701 895.09 846.877 894.995C850.171 894.877 853.228 894.83 855.977 894.83C857.327 894.83 859.816 894.901 863.939 895.302C868.513 895.727 873.75 895.94 879.959 895.94C884.012 895.94 888.467 895.633 893.515 895.019C899.131 894.335 904.866 892.966 910.601 890.936C913.895 889.779 917.142 888.316 920.365 886.664C920.507 886.924 920.626 887.183 920.791 887.443C925.247 894.193 933.517 897.356 941.361 895.326C943.779 894.712 946.67 894.264 949.917 894.028C956.931 893.532 964.136 893.509 970.7 893.792C973.496 893.91 975.961 894.099 978.07 894.287C979.397 894.405 980.321 894.523 980.961 894.618C982.194 895.09 983.473 895.444 984.8 895.68C987.312 896.86 990.061 897.474 992.858 897.474C994.801 897.474 996.768 897.167 998.664 896.577C998.711 896.577 999.635 896.27 1002.12 895.892C1004 895.609 1006.6 895.326 1009.83 895.043C1014.49 894.641 1021.41 894.547 1030.16 894.759C1033.1 894.83 1036.27 895.019 1039.64 895.255C1044.19 895.609 1048.5 894.311 1052.01 891.856C1052.15 891.927 1052.29 892.022 1052.44 892.092C1061.27 896.884 1071.51 899.315 1082.89 899.315C1094.31 899.315 1104.6 896.884 1113.41 892.092C1122.06 887.396 1129.29 880.929 1134.93 872.834C1140.17 865.328 1144.08 856.572 1146.59 846.777C1148.84 837.974 1149.98 828.533 1150.07 818.715C1150.69 818.786 1151.3 818.833 1151.94 818.833C1154.67 818.833 1157.32 818.243 1159.79 817.11C1160.19 817.7 1160.59 818.29 1161.02 818.857C1161.42 819.376 1161.85 819.895 1162.28 820.391C1158.67 823.789 1155.83 827.872 1153.77 832.569C1151.59 837.573 1150.47 843.19 1150.47 849.279C1150.47 857.374 1152.54 865.021 1156.61 871.984C1160.26 878.238 1165.14 883.69 1171.14 888.222C1176.8 892.494 1183.39 895.869 1190.69 898.252C1197.92 900.613 1205.57 901.816 1213.46 901.816C1222.16 901.816 1230.65 900.353 1238.66 897.497C1246.81 894.571 1254.15 890.37 1260.46 884.941C1266.93 879.395 1272.17 872.621 1276.03 864.833C1280.03 856.737 1282.07 847.769 1282.07 838.21C1282 831.413 1281 825.182 1279.09 819.683ZM682.079 854.967C682.363 853.055 682.624 851.144 682.861 849.185C683.169 850.624 683.525 852.088 683.904 853.527C684.022 853.999 684.141 854.448 684.283 854.92C683.525 854.967 682.79 854.967 682.079 854.967ZM683.596 779.088C683.524 779.253 683.453 779.442 683.382 779.607C683.122 777.365 682.837 775.194 682.553 773.093C682.458 772.432 682.363 771.795 682.268 771.158C683.169 771.11 684.07 771.04 684.946 770.945C686.131 770.851 687.293 770.733 688.454 770.615C686.487 773.093 684.852 775.925 683.596 779.088ZM721.11 818.101C722.271 816.685 723.409 815.222 724.499 813.711C725.589 812.177 726.632 810.62 727.556 809.015C727.485 809.204 727.414 809.369 727.366 809.534C726.324 812.177 724.996 814.349 723.456 816.024C722.698 816.827 721.916 817.511 721.11 818.101ZM732.272 862.992C731.75 865.257 731.229 866.768 730.874 867.736C730.471 866.862 730.02 866.013 729.475 865.187C727.698 862.496 726.205 859.782 725.02 857.044C728.054 856.336 731.04 855.321 733.978 854.047C733.48 857.162 732.935 860.183 732.272 862.992ZM773.388 771.889C773.151 772.243 772.938 772.574 772.725 772.928C772.701 772.574 772.654 772.22 772.63 771.842C772.867 771.866 773.128 771.866 773.388 771.889ZM772.085 855.25C772.274 853.763 772.464 852.253 772.606 850.742C773.483 852.324 774.478 853.763 775.592 855.109C774.455 855.156 773.27 855.203 772.085 855.25ZM775.071 811.587C774.881 811.823 774.692 812.059 774.526 812.295C774.526 811.941 774.502 811.044 774.478 809.652C774.478 809.652 774.478 809.416 774.478 809.392C774.478 809.085 774.478 808.755 774.455 808.401C774.644 808.684 774.858 808.944 775.047 809.203C775.355 809.628 775.687 810.03 776.042 810.431C775.711 810.808 775.379 811.21 775.071 811.587ZM867.494 857.658C865.266 857.445 863.228 857.28 861.356 857.186C861.996 854.141 862.541 851.073 863.015 848.005C863.181 846.966 863.323 845.928 863.489 844.913C863.679 845.833 863.892 846.73 864.105 847.58C865.124 851.521 866.475 854.896 868.229 857.728C867.992 857.705 867.731 857.681 867.494 857.658ZM864.745 779.418C864.413 776.397 864.01 773.329 863.56 770.261C863.56 770.237 863.56 770.19 863.536 770.166C864.437 770.143 865.314 770.096 866.167 770.025L868.94 769.86C867.233 772.527 865.835 775.689 864.745 779.418ZM916.36 794.028C915.957 789.638 915.412 785.838 914.654 782.557C916.478 785.625 917.995 789.638 919.18 794.452C920.507 799.763 921.171 806.442 921.171 814.301C921.171 821.689 920.412 827.872 918.919 832.734C917.782 836.393 916.431 839.532 914.867 842.151C916.336 834.717 917.023 825.135 917.023 812.437C917.047 805.12 916.834 799.102 916.36 794.028ZM963.899 855.817C963.993 855.274 964.088 854.707 964.183 854.141C964.467 852.489 964.728 850.837 964.965 849.208C965.083 851.332 965.249 853.551 965.439 855.84C964.941 855.84 964.42 855.817 963.899 855.817ZM967.24 780.055C967.003 776.822 966.648 773.612 966.221 770.497C967.311 770.473 968.378 770.426 969.373 770.355L971.529 770.237C969.681 773.211 968.259 776.492 967.24 780.055ZM1109.81 837.431C1108.43 842.836 1106.4 847.485 1103.74 851.309C1101.47 854.566 1098.69 857.068 1095.23 858.932C1092.04 860.679 1087.86 861.552 1082.84 861.552C1077.89 861.552 1073.74 860.679 1070.54 858.932C1067.08 857.044 1064.26 854.542 1061.96 851.262C1059.31 847.485 1057.27 842.836 1055.9 837.455C1055.4 835.472 1054.97 833.419 1054.62 831.318C1055.21 832.9 1055.87 834.386 1056.61 835.803C1058.95 840.358 1062.03 844.134 1065.78 847.061C1070.68 850.884 1076.58 852.914 1082.84 852.914C1088.91 852.914 1094.71 850.955 1099.62 847.273C1103.48 844.37 1106.68 840.57 1109.1 835.991C1109.76 834.74 1110.38 833.419 1110.95 832.026C1110.64 833.867 1110.26 835.685 1109.81 837.431ZM1190.95 795.727C1190.52 795.184 1190.17 794.405 1189.86 793.414C1189.7 792.895 1189.48 791.903 1189.34 790.299C1189.6 791.03 1189.86 791.738 1190.17 792.446C1190.93 794.216 1191.83 795.963 1192.87 797.615C1192.09 797.001 1191.47 796.388 1190.95 795.727ZM1241.95 848.146C1241.5 849.09 1240.98 849.964 1240.46 850.813C1241.14 848.406 1241.5 845.928 1241.5 843.426C1241.5 837.974 1239.98 832.664 1236.97 827.66C1235.88 825.819 1234.6 824.096 1233.16 822.468C1234.91 823.364 1236.59 824.356 1238.13 825.418C1239.37 826.267 1240.43 827.259 1241.36 828.415C1242.12 829.383 1242.78 830.634 1243.3 832.121C1243.66 833.136 1244.08 835.024 1244.08 838.186C1244.08 841.986 1243.37 845.243 1241.95 848.146Z" fill="#F0E9DF"/>
<path d="M1166.16 770.119C1166.16 772.456 1165.71 775.052 1164.79 777.908C1163.86 780.764 1162.73 783.596 1161.35 786.381C1159.98 789.189 1158.44 791.786 1156.75 794.169C1155.07 796.577 1153.44 798.488 1151.9 799.905L1134.43 797.851C1136.26 796.435 1137.96 794.83 1139.5 793.06C1141.04 791.29 1142.49 789.425 1143.79 787.49C1141.68 787.325 1139.74 786.758 1137.99 785.767C1136.23 784.8 1134.74 783.549 1133.46 781.991C1132.18 780.433 1131.23 778.663 1130.54 776.633C1129.86 774.604 1129.5 772.432 1129.5 770.072C1129.5 768.137 1129.81 766.131 1130.45 764.03C1131.09 761.953 1132.11 760.018 1133.51 758.248C1134.9 756.478 1136.78 755.014 1139.15 753.881C1141.49 752.748 1144.38 752.158 1147.84 752.158C1150.95 752.158 1153.65 752.583 1155.97 753.433C1158.3 754.283 1160.19 755.51 1161.68 757.068C1163.18 758.649 1164.29 760.513 1165.05 762.732C1165.81 764.974 1166.16 767.429 1166.16 770.119Z" fill="#E8A938"/>
<path d="M747.865 800.164C747.865 806.23 746.893 811.658 744.974 816.473C743.054 821.288 740.519 825.418 737.367 828.817C734.215 832.215 730.613 834.835 726.537 836.652C722.461 838.47 718.242 839.39 713.905 839.39C711.488 839.39 709.118 839.131 706.772 838.588C704.426 838.045 702.104 837.148 699.805 835.897C700.326 840.122 701.156 844.464 702.293 848.925C703.265 852.749 704.663 857.021 706.464 861.717C708.265 866.438 710.659 871.04 713.645 875.548C707.791 874.911 702.53 874.486 697.862 874.226C693.193 873.967 688.951 873.849 685.183 873.849C680.088 873.849 675.799 874.014 672.315 874.368C668.855 874.698 666.011 875.099 663.855 875.571C661.319 876.091 659.328 876.634 657.835 877.2C659.257 872.81 660.513 868.019 661.532 862.803C662.575 857.611 663.428 852.182 664.115 846.518C664.803 840.877 665.324 835.095 665.656 829.171C666.011 823.27 666.177 817.393 666.177 811.564C666.177 805.215 665.988 799.008 665.585 792.942C665.182 786.853 664.589 781.141 663.831 775.807C663.049 770.473 662.101 765.611 660.94 761.198C659.755 756.808 658.452 753.126 656.959 750.152C659.708 751.002 662.599 751.616 665.608 751.993C668.618 752.371 671.675 752.56 674.756 752.56C677.576 752.56 680.396 752.442 683.24 752.182C686.084 751.922 688.88 751.663 691.629 751.38C694.378 751.096 697.032 750.79 699.615 750.53C702.199 750.27 704.592 750.152 706.843 750.152C709.261 750.152 711.939 750.459 714.877 751.096C717.839 751.734 720.825 752.796 723.859 754.306C726.892 755.817 729.854 757.823 732.722 760.348C735.589 762.874 738.149 765.965 740.376 769.694C742.604 773.4 744.405 777.766 745.756 782.793C747.107 787.821 747.794 793.603 747.865 800.164ZM698.833 814.136C700.255 812.767 701.914 811.092 703.786 809.133C705.658 807.174 707.412 805.026 709.071 802.713C710.73 800.4 712.128 798.016 713.242 795.562C714.356 793.107 714.925 790.771 714.925 788.529C714.925 785.956 714.19 783.926 712.744 782.416C711.275 780.905 709.663 780.15 707.886 780.15C706.275 780.15 704.948 780.693 703.881 781.779C702.815 782.864 701.938 784.28 701.251 786.027C700.563 787.773 700.042 789.709 699.71 791.856C699.378 794.004 699.118 796.105 698.928 798.205C698.762 800.282 698.668 802.241 698.668 804.035C698.668 805.829 698.668 807.245 698.668 808.283C698.668 809.251 698.668 810.219 698.668 811.186C698.668 812.154 698.715 813.098 698.833 814.136Z" fill="#242424"/>
<path d="M829.34 876.232C826.354 875.666 823.297 875.217 820.168 874.911C817.04 874.604 813.746 874.344 810.286 874.179C806.826 874.014 803.129 873.919 799.195 873.872C795.262 873.848 791.02 873.825 786.422 873.825C784.242 873.825 781.659 873.848 778.625 873.919C775.616 873.966 772.369 874.108 768.909 874.344C765.449 874.58 761.871 874.911 758.198 875.335C754.524 875.76 750.946 876.327 747.439 877.011C748.695 874.439 749.785 871.205 750.709 867.287C751.633 863.369 752.391 859.215 752.984 854.826C753.576 850.436 754.05 845.951 754.406 841.373C754.738 836.794 754.998 832.546 755.188 828.604C755.354 824.663 755.449 821.24 755.496 818.361C755.52 815.482 755.543 813.499 755.543 812.413C755.543 812.177 755.52 811.304 755.496 809.746C755.472 808.212 755.425 806.206 755.377 803.752C755.33 801.297 755.235 798.488 755.117 795.326C754.998 792.163 754.832 788.859 754.643 785.437C754.429 782.015 754.193 778.545 753.861 775.076C753.553 771.583 753.173 768.302 752.747 765.187C752.32 762.071 751.823 759.286 751.278 756.784C750.733 754.306 750.093 752.324 749.334 750.837C754.951 751.639 760.496 752.229 765.923 752.583C771.374 752.961 776.635 753.15 781.754 753.15C788.01 753.15 793.84 752.984 799.29 752.63C804.741 752.276 809.504 751.899 813.557 751.427C818.32 750.908 822.633 750.318 826.543 749.633V789.803C823.226 786.711 820.026 784.351 816.993 782.699C813.96 781.047 811.258 779.82 808.912 779.017C806.163 778.097 803.58 777.601 801.162 777.483C798.295 777.483 795.949 777.837 794.148 778.545C792.347 779.253 790.925 780.174 789.929 781.283C788.934 782.392 788.247 783.643 787.915 785.059C787.583 786.452 787.394 787.868 787.394 789.307C787.394 790.794 787.607 792.281 788.034 793.768C788.46 795.255 789.147 796.6 790.048 797.804C790.949 799.008 792.157 799.975 793.626 800.754C795.096 801.533 796.826 801.911 798.84 801.911C800.499 801.911 802.016 801.533 803.39 800.754C804.765 799.975 805.949 799.102 806.921 798.134C808.059 797.049 809.125 795.798 810.097 794.358V829.218C809.172 827.046 808.106 825.324 806.874 824.073C805.641 822.822 804.433 821.901 803.272 821.288C802.087 820.698 801.044 820.32 800.096 820.178C799.148 820.037 798.508 819.966 798.153 819.966C794.432 819.966 791.636 821.099 789.811 823.388C787.986 825.678 787.062 828.604 787.062 832.215C787.062 834.835 787.37 837.077 787.963 838.894C788.555 840.712 789.361 842.199 790.38 843.355C791.375 844.488 792.56 845.314 793.911 845.833C795.262 846.353 796.683 846.612 798.176 846.612C800.475 846.612 802.94 846.093 805.57 845.078C808.201 844.04 810.737 842.671 813.177 840.971C815.618 839.272 817.846 837.313 819.884 835.095C821.922 832.9 823.534 830.657 824.742 828.368L829.34 876.232Z" fill="#242424"/>
<path d="M940.153 814.302C940.153 823.601 939.11 831.602 937.048 838.281C934.986 844.96 932.261 850.625 928.872 855.274C925.483 859.924 921.644 863.676 917.355 866.485C913.066 869.317 908.681 871.512 904.25 873.07C899.795 874.651 895.458 875.689 891.216 876.185C886.974 876.704 883.206 876.964 879.959 876.964C874.39 876.964 869.65 876.775 865.716 876.398C861.783 876.02 858.536 875.831 855.953 875.831C853.038 875.831 849.791 875.878 846.237 875.996C842.682 876.114 838.937 876.35 834.98 876.681C836.52 873.896 837.895 870.757 839.056 867.311C840.217 863.865 841.26 860.254 842.113 856.478C842.966 852.701 843.701 848.902 844.293 845.055C844.886 841.207 845.407 837.478 845.81 833.867C846.734 825.418 847.232 816.733 847.35 807.835C847.232 798.984 846.805 790.676 846.071 782.911C845.715 779.607 845.312 776.279 844.815 772.928C844.317 769.577 843.748 766.414 843.061 763.416C842.374 760.419 841.568 757.729 840.62 755.321C839.672 752.914 838.558 751.002 837.302 749.586C841.544 750.27 845.573 750.719 849.388 750.955C853.204 751.191 856.569 751.309 859.484 751.309C861.38 751.309 863.204 751.262 864.982 751.144C866.759 751.026 868.584 750.908 870.48 750.813C872.376 750.695 874.39 750.577 876.547 750.459C878.703 750.341 881.12 750.294 883.822 750.294C887.708 750.294 891.832 750.554 896.169 751.096C900.506 751.639 904.747 752.701 908.895 754.306C913.042 755.911 917.023 758.153 920.815 761.08C924.607 763.983 927.924 767.806 930.792 772.55C933.659 777.294 935.934 783.077 937.617 789.898C939.3 796.766 940.153 804.885 940.153 814.302ZM898.088 812.413C898.088 805.734 897.899 800.164 897.496 795.704C897.093 791.243 896.501 787.655 895.742 784.965C894.96 782.251 894.012 780.339 892.851 779.182C891.713 778.05 890.386 777.459 888.893 777.459C887.566 777.459 886.381 778.12 885.315 779.466C884.249 780.811 883.348 782.959 882.613 785.932C881.879 788.906 881.286 792.706 880.883 797.356C880.48 802.005 880.291 807.646 880.291 814.278C880.291 821.241 880.481 827.047 880.86 831.696C881.239 836.346 881.784 840.075 882.495 842.883C883.206 845.692 884.106 847.674 885.173 848.831C886.239 850.011 887.471 850.577 888.917 850.577C891.737 850.577 893.965 847.533 895.624 841.42C897.259 835.354 898.088 825.678 898.088 812.413Z" fill="#242424"/>
<path d="M1041.08 876.397C1037.36 876.114 1033.88 875.925 1030.63 875.831C1027.39 875.737 1024.4 875.713 1021.65 875.713C1016.27 875.713 1011.77 875.878 1008.14 876.185C1004.54 876.492 1001.58 876.822 999.28 877.176C996.578 877.578 994.445 878.026 992.834 878.545C993.071 876.775 993.284 875.123 993.521 873.565C993.758 872.008 993.948 870.521 994.09 869.057C994.232 867.594 994.351 866.154 994.422 864.691C994.516 863.228 994.54 861.717 994.54 860.112C994.54 853.834 994.303 848.595 993.806 844.441C993.308 840.263 992.621 836.794 991.696 833.985C990.772 831.177 989.658 828.935 988.331 827.212C987.004 825.489 985.559 823.955 983.947 822.586C983.829 825.158 983.757 827.637 983.686 830.044C983.639 832.451 983.592 834.977 983.592 837.667C983.592 840.287 983.639 843.025 983.757 845.881C983.876 848.736 984.066 851.757 984.35 854.967C984.634 858.177 985.061 861.576 985.63 865.21C986.198 868.845 986.909 872.763 987.786 876.988C987.739 876.752 986.98 876.492 985.559 876.209C984.137 875.925 982.193 875.666 979.8 875.43C977.383 875.194 974.634 875.005 971.505 874.863C968.377 874.722 965.131 874.651 961.742 874.651C957.334 874.651 952.902 874.816 948.494 875.123C944.087 875.43 940.105 876.043 936.551 876.964C937.925 875.194 939.181 872.952 940.295 870.237C941.409 867.523 942.404 864.549 943.257 861.292C944.11 858.035 944.845 854.613 945.461 851.026C946.077 847.438 946.599 843.898 947.049 840.405C948.092 832.239 948.779 823.53 949.111 814.278C949.111 811.989 949.134 809.109 949.158 805.616C949.182 802.123 949.134 798.347 948.992 794.217C948.85 790.086 948.613 785.885 948.305 781.543C947.997 777.2 947.475 773.046 946.764 769.034C946.054 765.021 945.106 761.387 943.968 758.059C942.831 754.755 941.361 752.088 939.584 750.082C943.707 750.719 947.736 751.12 951.623 751.332C955.509 751.521 958.851 751.639 961.6 751.639C964.017 751.639 966.221 751.592 968.259 751.474C970.297 751.356 972.311 751.238 974.326 751.12C976.34 751.002 978.425 750.884 980.606 750.79C982.786 750.672 985.203 750.624 987.834 750.624C991.436 750.624 995.085 750.813 998.758 751.191C1002.43 751.568 1005.94 752.229 1009.3 753.15C1012.67 754.094 1015.77 755.368 1018.69 756.997C1021.58 758.625 1024.12 760.679 1026.25 763.157C1028.4 765.635 1030.09 768.632 1031.32 772.102C1032.55 775.571 1033.17 779.631 1033.17 784.257C1033.17 786.829 1032.84 789.402 1032.17 791.974C1031.51 794.547 1030.44 797.072 1028.95 799.551C1027.46 802.029 1025.51 804.413 1023.14 806.655C1020.77 808.92 1017.86 810.974 1014.42 812.862C1018.5 814.514 1021.58 816.567 1023.67 819.022C1025.75 821.476 1027.27 824.285 1028.19 827.424C1029.12 830.563 1029.61 833.985 1029.68 837.667C1029.78 841.349 1029.87 845.196 1029.99 849.185C1030.23 853.457 1030.77 857.445 1031.63 861.08C1031.96 862.614 1032.41 864.195 1032.96 865.8C1033.5 867.405 1034.16 868.892 1034.92 870.261C1035.7 871.63 1036.58 872.857 1037.6 873.943C1038.6 875.099 1039.76 875.902 1041.08 876.397ZM983.971 802.572C985.227 801.651 986.649 800.495 988.236 799.102C989.824 797.71 991.27 796.152 992.621 794.476C993.971 792.8 995.109 791.007 996.009 789.119C996.934 787.231 997.384 785.342 997.384 783.454C997.384 781.637 996.863 780.15 995.796 778.994C994.73 777.861 993.545 777.271 992.218 777.271C990.393 777.271 988.924 778.12 987.834 779.796C986.743 781.472 985.89 783.454 985.298 785.744C984.705 788.033 984.303 790.322 984.089 792.635C983.9 794.948 983.781 796.742 983.781 797.993C983.781 798.677 983.781 799.409 983.781 800.188C983.805 800.99 983.876 801.769 983.971 802.572Z" fill="#242424"/>
<path d="M1131.11 817.653C1131.11 826.338 1130.14 834.481 1128.2 842.104C1126.26 849.728 1123.29 856.383 1119.34 862.071C1115.38 867.759 1110.38 872.244 1104.33 875.524C1098.29 878.805 1091.13 880.457 1082.89 880.457C1074.69 880.457 1067.55 878.805 1061.51 875.524C1055.47 872.244 1050.44 867.759 1046.46 862.071C1042.48 856.383 1039.52 849.728 1037.55 842.104C1035.61 834.481 1034.64 826.338 1034.64 817.653C1034.64 811.257 1035.23 805.097 1036.44 799.149C1037.65 793.202 1039.31 787.679 1041.42 782.534C1043.52 777.389 1046.08 772.715 1049.07 768.491C1052.06 764.266 1055.33 760.655 1058.93 757.658C1062.51 754.66 1066.32 752.324 1070.37 750.672C1074.43 749.019 1078.6 748.193 1082.89 748.193C1090.12 748.193 1096.68 749.94 1102.63 753.457C1108.58 756.973 1113.65 761.835 1117.84 768.066C1122.04 774.297 1125.33 781.637 1127.65 790.086C1129.95 798.512 1131.11 807.717 1131.11 817.653ZM1095.92 810.289C1095.92 806.017 1095.59 802.052 1094.88 798.418C1094.19 794.783 1093.27 791.644 1092.08 789.001C1090.9 786.334 1089.52 784.257 1087.91 782.746C1086.3 781.236 1084.62 780.48 1082.84 780.48C1081.11 780.48 1079.47 781.377 1077.93 783.171C1076.39 784.965 1075.02 787.301 1073.86 790.157C1072.67 793.013 1071.75 796.223 1071.06 799.739C1070.37 803.28 1070.02 806.796 1070.02 810.266C1070.02 813.641 1070.33 816.756 1070.92 819.636C1071.51 822.515 1072.37 825.017 1073.46 827.141C1074.55 829.265 1075.87 830.917 1077.46 832.144C1079.05 833.372 1080.83 833.985 1082.84 833.985C1084.78 833.985 1086.58 833.372 1088.22 832.144C1089.85 830.917 1091.23 829.241 1092.34 827.141C1093.46 825.04 1094.33 822.539 1094.97 819.636C1095.61 816.78 1095.92 813.641 1095.92 810.289Z" fill="#242424"/>
<path d="M1258.47 777.294C1258.47 780.15 1257.95 782.723 1256.88 785.036C1255.81 787.349 1254.34 789.331 1252.45 790.983C1250.55 792.635 1248.32 793.933 1245.79 794.83C1243.23 795.751 1240.46 796.199 1237.49 796.199C1234.22 796.199 1231.43 795.798 1229.11 794.995C1226.78 794.193 1224.84 793.178 1223.25 791.951C1221.66 790.724 1220.43 789.355 1219.51 787.844C1218.58 786.334 1217.9 784.87 1217.4 783.431C1216.9 782.015 1216.59 780.693 1216.45 779.489C1216.31 778.285 1216.24 777.389 1216.24 776.751C1216.92 777.884 1217.73 778.616 1218.65 778.946C1219.58 779.277 1220.34 779.418 1220.98 779.418C1222.59 779.418 1223.7 778.994 1224.37 778.144C1225.03 777.294 1225.36 776.374 1225.36 775.406C1225.36 774.769 1225.24 774.132 1224.98 773.447C1224.72 772.763 1224.27 772.125 1223.61 771.512C1222.94 770.922 1222.07 770.403 1220.93 770.025C1219.79 769.647 1218.42 769.435 1216.76 769.435C1215.62 769.435 1214.44 769.647 1213.23 770.072C1212.02 770.497 1210.93 771.158 1209.91 772.031C1208.91 772.928 1208.09 774.014 1207.47 775.335C1206.85 776.657 1206.52 778.191 1206.52 779.961C1206.52 781.684 1206.88 783.383 1207.59 785.059C1208.3 786.735 1209.27 788.34 1210.5 789.803C1211.73 791.266 1213.2 792.635 1214.89 793.839C1216.57 795.043 1218.42 796.034 1220.43 796.836C1223.58 798.158 1226.83 799.433 1230.2 800.683C1233.56 801.934 1236.81 803.303 1239.96 804.79C1243.11 806.277 1246.07 807.976 1248.87 809.888C1251.67 811.8 1254.08 814.066 1256.17 816.685C1258.25 819.305 1259.91 822.373 1261.15 825.89C1262.38 829.407 1262.99 833.49 1262.99 838.186C1262.99 844.866 1261.64 850.955 1258.92 856.478C1256.19 862 1252.54 866.697 1247.99 870.615C1243.44 874.533 1238.16 877.554 1232.16 879.702C1226.17 881.849 1219.91 882.912 1213.37 882.912C1207.47 882.912 1201.85 882.038 1196.52 880.292C1191.19 878.545 1186.52 876.161 1182.49 873.14C1178.49 870.119 1175.29 866.556 1172.89 862.473C1170.5 858.389 1169.31 853.976 1169.31 849.232C1169.31 845.739 1169.88 842.694 1171.04 840.075C1172.18 837.455 1173.79 835.26 1175.81 833.513C1177.85 831.767 1180.22 830.469 1182.94 829.619C1185.67 828.769 1188.58 828.345 1191.66 828.345C1194.08 828.345 1196.43 828.604 1198.75 829.123C1201.07 829.643 1203.25 830.398 1205.29 831.389C1207.33 832.38 1209.15 833.608 1210.79 835.024C1212.42 836.44 1213.73 838.068 1214.7 839.909C1213.49 839.555 1212.42 839.39 1211.52 839.39C1209.98 839.39 1208.75 839.839 1207.82 840.759C1206.9 841.679 1206.45 843.048 1206.45 844.866C1206.45 845.833 1206.69 846.73 1207.14 847.556C1207.59 848.382 1208.18 849.114 1208.89 849.751C1209.6 850.388 1210.43 850.861 1211.38 851.215C1212.33 851.569 1213.32 851.734 1214.34 851.734C1215.48 851.734 1216.55 851.498 1217.52 851.002C1218.49 850.506 1219.34 849.869 1220.1 849.067C1220.83 848.264 1221.43 847.391 1221.83 846.4C1222.23 845.432 1222.42 844.441 1222.42 843.402C1222.42 841.396 1221.81 839.367 1220.57 837.313C1219.34 835.26 1217.54 833.442 1215.19 831.838C1210.72 829.1 1206.5 826.716 1202.56 824.733C1198.61 822.727 1194.96 820.839 1191.64 819.046C1188.32 817.252 1185.31 815.434 1182.66 813.617C1180 811.8 1177.73 809.676 1175.86 807.268C1173.98 804.861 1172.56 802.052 1171.59 798.819C1170.62 795.585 1170.12 791.691 1170.12 787.136C1170.12 781.661 1171.19 776.515 1173.3 771.724C1175.41 766.933 1178.51 762.756 1182.54 759.168C1186.59 755.604 1191.52 752.796 1197.37 750.719C1203.23 748.665 1209.86 747.627 1217.33 747.627C1224.84 747.627 1231.19 748.524 1236.43 750.318C1241.64 752.111 1245.88 754.448 1249.11 757.304C1252.35 760.159 1254.7 763.346 1256.17 766.862C1257.76 770.403 1258.47 773.872 1258.47 777.294Z" fill="#242424"/>
</g>
</g>
<defs>
<clipPath id="clip0_1_19">
<rect width="1920" height="1080" fill="white"/>
</clipPath>
<clipPath id="clip1_1_19">
<rect width="644" height="173" fill="white" transform="translate(638 188.793)"/>
</clipPath>
<clipPath id="clip2_1_19">
<rect width="644" height="173" fill="white" transform="translate(638 728.793)"/>
</clipPath>
</defs>
</svg>
