<svg width="1920" height="1080" viewBox="0 0 1920 1080" fill="none" xmlns="http://www.w3.org/2000/svg">
<rect width="1920" height="1080" fill="#F0E9DF"/>
<g clip-path="url(#clip0_1_7)">
<path d="M856.98 676.655C849.031 676.655 841.2 673.679 835.287 668.002C826.594 659.701 823.305 647.171 826.986 635.737C828.983 629.589 830.706 622.776 832.155 615.454C833.721 607.623 835.013 599.282 836.07 590.746C837.127 582.054 837.911 573.048 838.459 563.924C839.007 554.762 839.242 545.56 839.242 536.515C839.242 526.765 838.929 517.054 838.302 507.657C837.676 498.377 836.814 489.645 835.639 481.657C834.543 473.982 833.173 466.973 831.567 460.826C829.883 454.404 828.317 450.645 827.338 448.609C821.739 437.371 823.384 423.862 831.528 414.308C839.673 404.754 852.751 400.956 864.733 404.715C867.474 405.576 870.41 406.202 873.504 406.594C880.708 407.495 888.305 407.455 895.979 406.751C900.522 406.32 904.985 405.889 909.41 405.459C913.991 404.989 918.455 404.519 922.762 404.088C935.097 402.874 945.16 402.874 957.651 405.537C965.129 407.142 972.648 409.805 979.97 413.486C987.331 417.166 994.536 422.061 1001.27 427.973C1008.44 434.278 1014.78 441.991 1020.1 450.88C1025.27 459.533 1029.42 469.518 1032.4 480.639C1035.3 491.524 1036.82 503.819 1036.94 517.289C1036.94 517.367 1036.94 517.485 1036.94 517.563C1036.94 531.542 1034.59 544.503 1029.97 556.171C1025.39 567.762 1019.09 577.903 1011.29 586.361C1003.27 595.054 993.831 601.906 983.259 606.644C978.247 608.915 973.078 610.638 967.87 611.852C969.828 616.394 972.334 620.897 975.232 625.361C981.888 635.502 982.123 648.541 975.819 658.918C969.515 669.255 957.768 675.05 945.708 673.758C936.545 672.779 928.323 672.074 921.274 671.682C905.024 670.782 892.142 670.978 883.88 671.8C878.163 672.348 874.952 672.896 873.269 673.249C869.471 674.032 868.178 674.502 868.1 674.541C864.459 675.99 860.7 676.655 856.98 676.655ZM898.172 599.008C897.781 602.219 897.35 605.43 896.88 608.602C898.055 608.602 899.269 608.562 900.482 608.562C900.287 607.779 900.052 606.996 899.856 606.252C899.269 603.825 898.72 601.397 898.172 599.008ZM972.021 532.325C970.455 534.949 968.771 537.572 966.97 540.117C965.169 542.623 963.289 545.051 961.37 547.4C962.741 546.421 964.033 545.286 965.247 543.954C967.792 541.174 969.985 537.572 971.708 533.186C971.786 532.912 971.904 532.599 972.021 532.325ZM897.193 469.557C897.35 470.615 897.506 471.672 897.663 472.768C898.172 476.253 898.642 479.856 899.034 483.575C899.151 483.262 899.269 482.988 899.386 482.714C901.461 477.467 904.124 472.768 907.413 468.696C905.494 468.892 903.576 469.048 901.618 469.244C900.169 469.362 898.681 469.479 897.193 469.557Z" fill="#242424"/>
<path d="M1041.01 548.575C1039.8 548.575 1038.55 548.497 1037.33 548.34L1008.48 544.933C995.867 543.445 985.412 534.479 982.006 522.262C980.166 515.644 980.557 508.792 982.906 502.644C980.087 498.376 977.816 493.678 976.093 488.666C973.861 482.087 972.726 475.078 972.726 467.756C972.726 461.491 973.705 455.109 975.623 448.726C977.816 441.443 981.34 434.708 986.117 428.717C991.325 422.1 998.099 416.735 1006.24 412.742C1014.43 408.748 1023.86 406.711 1034.32 406.711C1043.13 406.711 1051.31 408.082 1058.63 410.784C1066.98 413.877 1074.14 418.537 1079.94 424.645C1085.54 430.597 1089.72 437.606 1092.43 445.555C1094.74 452.407 1095.91 459.886 1095.91 467.717C1095.91 474.843 1094.66 482.401 1092.15 490.193C1090.16 496.379 1087.69 502.527 1084.75 508.518C1081.78 514.587 1078.37 520.382 1074.65 525.668C1070.54 531.503 1066.51 536.241 1062.28 540.156C1056.48 545.599 1048.85 548.575 1041.01 548.575Z" fill="#242424"/>
<path d="M1005.58 517.642C1005.58 527.705 1003.97 536.711 1000.8 544.699C997.629 552.687 993.44 559.539 988.232 565.178C983.024 570.816 977.072 575.162 970.337 578.177C963.602 581.192 956.633 582.72 949.467 582.72C945.473 582.72 941.557 582.289 937.681 581.388C933.804 580.488 929.967 579 926.169 576.924C927.03 583.933 928.401 591.138 930.28 598.539C931.886 604.882 934.196 611.969 937.172 619.761C940.148 627.593 944.103 635.228 949.036 642.707C939.365 641.65 930.672 640.945 922.958 640.514C915.244 640.084 908.235 639.888 902.009 639.888C893.591 639.888 886.504 640.162 880.748 640.749C875.031 641.297 870.332 641.963 866.769 642.746C862.579 643.608 859.29 644.508 856.823 645.448C859.172 638.165 861.248 630.216 862.931 621.563C864.654 612.948 866.064 603.942 867.199 594.545C868.335 585.186 869.196 575.593 869.745 565.765C870.332 555.976 870.606 546.226 870.606 536.554C870.606 526.021 870.293 515.723 869.627 505.66C868.962 495.558 867.983 486.082 866.73 477.232C865.437 468.383 863.871 460.317 861.953 452.995C859.995 445.712 857.841 439.603 855.374 434.669C859.916 436.079 864.693 437.097 869.666 437.724C874.639 438.35 879.69 438.663 884.781 438.663C889.44 438.663 894.1 438.468 898.799 438.037C903.497 437.606 908.118 437.175 912.66 436.706C917.202 436.236 921.588 435.727 925.856 435.296C930.124 434.865 934.079 434.669 937.798 434.669C941.792 434.669 946.217 435.178 951.072 436.236C955.967 437.293 960.901 439.055 965.913 441.561C970.925 444.067 975.819 447.395 980.557 451.585C985.295 455.775 989.524 460.904 993.205 467.091C996.885 473.238 999.861 480.482 1002.09 488.823C1004.32 497.163 1005.46 506.756 1005.58 517.642ZM924.564 540.822C926.913 538.551 929.654 535.771 932.747 532.521C935.841 529.271 938.738 525.708 941.479 521.871C944.22 518.033 946.53 514.078 948.371 510.006C950.211 505.934 951.151 502.057 951.151 498.338C951.151 494.07 949.937 490.702 947.548 488.196C945.121 485.69 942.458 484.437 939.521 484.437C936.859 484.437 934.666 485.338 932.904 487.139C931.142 488.94 929.693 491.29 928.557 494.187C927.422 497.085 926.56 500.295 926.012 503.859C925.464 507.422 925.033 510.907 924.72 514.392C924.446 517.838 924.289 521.087 924.289 524.063C924.289 527.039 924.289 529.389 924.289 531.112C924.289 532.717 924.289 534.322 924.289 535.928C924.289 537.533 924.368 539.099 924.564 540.822Z" fill="#F0E9DF"/>
<path d="M1071.09 467.796C1071.09 471.672 1070.34 475.979 1068.82 480.717C1067.29 485.455 1065.41 490.154 1063.14 494.774C1060.87 499.434 1058.32 503.741 1055.54 507.696C1052.76 511.69 1050.06 514.861 1047.51 517.211L1018.66 513.804C1021.67 511.455 1024.49 508.792 1027.04 505.855C1029.58 502.919 1031.97 499.825 1034.12 496.615C1030.64 496.341 1027.43 495.401 1024.53 493.756C1021.63 492.151 1019.17 490.075 1017.05 487.491C1014.94 484.907 1013.37 481.97 1012.23 478.603C1011.1 475.235 1010.51 471.633 1010.51 467.717C1010.51 464.506 1011.02 461.178 1012.08 457.693C1013.14 454.247 1014.82 451.037 1017.13 448.1C1019.44 445.163 1022.53 442.735 1026.45 440.856C1030.32 438.976 1035.1 437.998 1040.82 437.998C1045.95 437.998 1050.41 438.702 1054.25 440.112C1058.09 441.522 1061.22 443.558 1063.69 446.142C1066.15 448.766 1067.99 451.859 1069.25 455.54C1070.46 459.259 1071.09 463.332 1071.09 467.796Z" fill="#E8A938"/>
</g>
<defs>
<clipPath id="clip0_1_7">
<rect width="271.902" height="273.311" fill="white" transform="translate(824.049 403.344)"/>
</clipPath>
</defs>
</svg>
